SplineFontDB: 3.0
FontName: Ultra
FullName: Ultra
FamilyName: Ultra
Weight: Book
Copyright: Copyright (c) 2010 by Brian J. Bonislawsky DBA Astigmatic (AOETI). All rights reserved. Available under the Apache 2.0 licence.\nhttp://www.apache.org/licenses/LICENSE-2.0.html
Version: 1.000
ItalicAngle: 0
UnderlinePosition: -103
UnderlineWidth: 102
Ascent: 1638
Descent: 410
sfntRevision: 0x00010000
LayerCount: 2
Layer: 0 1 "Back"  1
Layer: 1 1 "Fore"  0
XUID: [1021 288 713564382 6247955]
FSType: 0
OS2Version: 3
OS2_WeightWidthSlopeOnly: 0
OS2_UseTypoMetrics: 1
CreationTime: 1304129940
ModificationTime: 1304463351
PfmFamily: 17
TTFWeight: 400
TTFWidth: 5
LineGap: 0
VLineGap: 0
Panose: 2 6 5 5 0 0 0 2 0 4
OS2TypoAscent: 428
OS2TypoAOffset: 1
OS2TypoDescent: -151
OS2TypoDOffset: 1
OS2TypoLinegap: 0
OS2WinAscent: 0
OS2WinAOffset: 1
OS2WinDescent: 0
OS2WinDOffset: 1
HheadAscent: 0
HheadAOffset: 1
HheadDescent: 0
HheadDOffset: 1
OS2SubXSize: 1434
OS2SubYSize: 1331
OS2SubXOff: 0
OS2SubYOff: 287
OS2SupXSize: 1434
OS2SupYSize: 1331
OS2SupXOff: 0
OS2SupYOff: 977
OS2StrikeYSize: 102
OS2StrikeYPos: 512
OS2Vendor: 'AOEF'
OS2CodePages: 00000093.00000000
OS2UnicodeRanges: a00000ef.4000004a.00000000.00000000
Lookup: 258 0 0 "'kern' Horizontal Kerning in Latin lookup 0"  {"'kern' Horizontal Kerning in Latin lookup 0 subtable"  } ['kern' ('DFLT' <'dflt' > 'latn' <'dflt' > ) ]
DEI: 91125
TtTable: prep
PUSHW_1
 511
SCANCTRL
PUSHB_1
 4
SCANTYPE
EndTTInstrs
TtTable: fpgm
PUSHW_1
 0
FDEF
MPPEM
PUSHW_1
 9
LT
IF
PUSHB_2
 1
 1
INSTCTRL
EIF
PUSHW_1
 511
SCANCTRL
PUSHW_1
 68
SCVTCI
PUSHW_2
 9
 3
SDS
SDB
ENDF
PUSHW_1
 1
FDEF
DUP
DUP
RCVT
ROUND[Black]
WCVTP
PUSHB_1
 1
ADD
ENDF
PUSHW_1
 2
FDEF
PUSHW_1
 1
LOOPCALL
POP
ENDF
PUSHW_1
 3
FDEF
DUP
GC[cur]
PUSHB_1
 3
CINDEX
GC[cur]
GT
IF
SWAP
EIF
DUP
ROLL
DUP
ROLL
MD[grid]
ABS
ROLL
DUP
GC[cur]
DUP
ROUND[Grey]
SUB
ABS
PUSHB_1
 4
CINDEX
GC[cur]
DUP
ROUND[Grey]
SUB
ABS
GT
IF
SWAP
NEG
ROLL
EIF
MDAP[rnd]
DUP
PUSHB_1
 0
GTEQ
IF
ROUND[Black]
DUP
PUSHB_1
 0
EQ
IF
POP

StartChar: exclam
Encoding: 33 33 4
Width: 754
Flags: W
LayerCount: 2
Fore
SplineSet
123 1260 m 0,0,1
 123 1311 123 1311 143.5 1358 c 128,-1,2
 164 1405 164 1405 197.5 1439 c 128,-1,3
 231 1473 231 1473 277.5 1493 c 128,-1,4
 324 1513 324 1513 377 1513 c 0,5,6
 428 1513 428 1513 475 1493 c 128,-1,7
 522 1473 522 1473 556 1439 c 128,-1,8
 590 1405 590 1405 610.5 1358 c 128,-1,9
 631 1311 631 1311 631 1260 c 0,10,11
 631 1241 631 1241 629 1217.5 c 128,-1,12
 627 1194 627 1194 623 1178 c 1,13,-1
 510 532 l 1,14,-1
 248 532 l 1,15,-1
 131 1178 l 2,16,17
 127 1196 127 1196 125 1217.5 c 128,-1,18
 123 1239 123 1239 123 1260 c 0,0,1
123 211 m 0,19,20
 123 262 123 262 143.5 309 c 128,-1,21
 164 356 164 356 197.5 390 c 128,-1,22
 231 424 231 424 277.5 444.5 c 128,-1,23
 324 465 324 465 377 465 c 0,24,25
 428 465 428 465 475 444.5 c 128,-1,26
 522 424 522 424 556 390 c 128,-1,27
 590 356 590 356 610.5 309 c 128,-1,28
 631 262 631 262 631 211 c 0,29,30
 631 158 631 158 610.5 112 c 128,-1,31
 590 66 590 66 556 32 c 128,-1,32
 522 -2 522 -2 475 -22.5 c 128,-1,33
 428 -43 428 -43 377 -43 c 0,34,35
 324 -43 324 -43 277.5 -22.5 c 128,-1,36
 231 -2 231 -2 197.5 32 c 128,-1,37
 164 66 164 66 143.5 112 c 128,-1,38
 123 158 123 158 123 211 c 0,19,20
EndSplineSet
EndChar

StartChar: quotedbl
Encoding: 34 34 5
Width: 1006
Flags: W
LayerCount: 2
Fore
SplineSet
268 1513 m 256,0,1
 362 1513 362 1513 407.5 1461 c 128,-1,2
 453 1409 453 1409 453 1341 c 0,3,4
 453 1278 453 1278 433.5 1157 c 128,-1,5
 414 1036 414 1036 350 840 c 1,6,-1
 186 840 l 1,7,8
 154 938 154 938 133.5 1017 c 128,-1,9
 113 1096 113 1096 101.5 1156.5 c 128,-1,10
 90 1217 90 1217 86 1262 c 128,-1,11
 82 1307 82 1307 82 1337 c 0,12,13
 82 1407 82 1407 128 1460 c 128,-1,14
 174 1513 174 1513 268 1513 c 256,0,1
739 1513 m 0,15,16
 834 1513 834 1513 879 1461 c 128,-1,17
 924 1409 924 1409 924 1341 c 0,18,19
 924 1278 924 1278 904.5 1157 c 128,-1,20
 885 1036 885 1036 821 840 c 1,21,-1
 657 840 l 1,22,23
 625 938 625 938 604.5 1017 c 128,-1,24
 584 1096 584 1096 572.5 1156.5 c 128,-1,25
 561 1217 561 1217 557 1262 c 128,-1,26
 553 1307 553 1307 553 1337 c 0,27,28
 553 1407 553 1407 599 1460 c 128,-1,29
 645 1513 645 1513 739 1513 c 0,15,16
EndSplineSet
EndChar

StartChar: numbersign
Encoding: 35 35 6
Width: 1532
Flags: W
LayerCount: 2
Fore
SplineSet
948 1405 m 1,0,-1
 815 1032 l 1,1,-1
 956 1032 l 1,2,-1
 1092 1405 l 1,3,-1
 1368 1405 l 1,4,-1
 1237 1032 l 1,5,-1
 1491 1032 l 1,6,-1
 1395 774 l 1,7,-1
 1147 774 l 1,8,-1
 1094 631 l 1,9,-1
 1360 631 l 1,10,-1
 1264 373 l 1,11,-1
 1006 373 l 1,12,-1
 870 0 l 1,13,-1
 592 0 l 1,14,-1
 725 373 l 1,15,-1
 584 373 l 1,16,-1
 449 0 l 1,17,-1
 170 0 l 1,18,-1
 303 373 l 1,19,-1
 41 373 l 1,20,-1
 137 631 l 1,21,-1
 393 631 l 1,22,-1
 446 774 l 1,23,-1
 172 774 l 1,24,-1
 268 1032 l 1,25,-1
 535 1032 l 1,26,-1
 670 1405 l 1,27,-1
 948 1405 l 1,0,-1
670 631 m 1,28,-1
 819 631 l 1,29,-1
 868 774 l 1,30,-1
 721 774 l 1,31,-1
 670 631 l 1,28,-1
EndSplineSet
EndChar

StartChar: dollar
Encoding: 36 36 7
Width: 1231
Flags: W
LayerCount: 2
Fore
SplineSet
514 139 m 1,0,1
 426 160 426 160 332 213 c 1,2,-1
 332 143 l 1,3,-1
 72 143 l 1,4,-1
 72 575 l 1,5,-1
 332 575 l 1,6,7
 354 481 354 481 423 428 c 128,-1,8
 492 375 492 375 578 375 c 0,9,10
 637 375 637 375 664.5 397.5 c 128,-1,11
 692 420 692 420 692 446 c 0,12,13
 692 489 692 489 645 513 c 128,-1,14
 598 537 598 537 528.5 556 c 128,-1,15
 459 575 459 575 377 598 c 128,-1,16
 295 621 295 621 225.5 665 c 128,-1,17
 156 709 156 709 108.5 780.5 c 128,-1,18
 61 852 61 852 61 969 c 0,19,20
 61 1055 61 1055 98 1120.5 c 128,-1,21
 135 1186 135 1186 197.5 1231 c 128,-1,22
 260 1276 260 1276 342 1300.5 c 128,-1,23
 424 1325 424 1325 514 1325 c 1,24,-1
 514 1493 l 1,25,-1
 717 1493 l 1,26,-1
 717 1300 l 1,27,28
 766 1286 766 1286 805 1268.5 c 128,-1,29
 844 1251 844 1251 870 1235 c 1,30,-1
 870 1307 l 1,31,-1
 1133 1307 l 1,32,-1
 1133 885 l 1,33,-1
 870 885 l 1,34,35
 864 926 864 926 841.5 960.5 c 128,-1,36
 819 995 819 995 787.5 1019.5 c 128,-1,37
 756 1044 756 1044 717 1058.5 c 128,-1,38
 678 1073 678 1073 639 1073 c 0,39,40
 590 1073 590 1073 558 1054.5 c 128,-1,41
 526 1036 526 1036 526 1001 c 0,42,43
 526 958 526 958 574.5 935.5 c 128,-1,44
 623 913 623 913 693.5 893.5 c 128,-1,45
 764 874 764 874 848 850.5 c 128,-1,46
 932 827 932 827 1002.5 783 c 128,-1,47
 1073 739 1073 739 1121 665.5 c 128,-1,48
 1169 592 1169 592 1169 473 c 0,49,50
 1169 385 1169 385 1132.5 320.5 c 128,-1,51
 1096 256 1096 256 1033.5 213 c 128,-1,52
 971 170 971 170 889 148.5 c 128,-1,53
 807 127 807 127 717 123 c 1,54,-1
 717 -41 l 1,55,-1
 514 -41 l 1,56,-1
 514 139 l 1,0,1
EndSplineSet
EndChar

StartChar: percent
Encoding: 37 37 8
Width: 1851
Flags: W
LayerCount: 2
Fore
SplineSet
1323 1473 m 1,0,-1
 1612 1473 l 1,1,-1
 528 0 l 1,2,-1
 240 0 l 1,3,-1
 1323 1473 l 1,0,-1
51 1112 m 256,4,5
 51 1204 51 1204 80 1275 c 128,-1,6
 109 1346 109 1346 160 1394 c 128,-1,7
 211 1442 211 1442 282.5 1467.5 c 128,-1,8
 354 1493 354 1493 440 1493 c 256,9,10
 526 1493 526 1493 598 1467.5 c 128,-1,11
 670 1442 670 1442 721 1394 c 128,-1,12
 772 1346 772 1346 800.5 1275 c 128,-1,13
 829 1204 829 1204 829 1112 c 256,14,15
 829 1020 829 1020 800.5 949.5 c 128,-1,16
 772 879 772 879 721 830.5 c 128,-1,17
 670 782 670 782 598 756.5 c 128,-1,18
 526 731 526 731 440 731 c 256,19,20
 354 731 354 731 282.5 756.5 c 128,-1,21
 211 782 211 782 160 830.5 c 128,-1,22
 109 879 109 879 80 949.5 c 128,-1,23
 51 1020 51 1020 51 1112 c 256,4,5
358 1112 m 0,24,25
 358 1053 358 1053 361.5 1013 c 128,-1,26
 365 973 365 973 374 950.5 c 128,-1,27
 383 928 383 928 399.5 918.5 c 128,-1,28
 416 909 416 909 440 909 c 0,29,30
 465 909 465 909 480.5 918.5 c 128,-1,31
 496 928 496 928 505 950.5 c 128,-1,32
 514 973 514 973 518 1013 c 128,-1,33
 522 1053 522 1053 522 1112 c 0,34,35
 522 1231 522 1231 505.5 1273 c 128,-1,36
 489 1315 489 1315 440 1315 c 256,37,38
 391 1315 391 1315 374.5 1273 c 128,-1,39
 358 1231 358 1231 358 1112 c 0,24,25
1022 360 m 0,40,41
 1022 453 1022 453 1050.5 523.5 c 128,-1,42
 1079 594 1079 594 1130.5 642 c 128,-1,43
 1182 690 1182 690 1253.5 715.5 c 128,-1,44
 1325 741 1325 741 1411 741 c 256,45,46
 1497 741 1497 741 1568.5 715.5 c 128,-1,47
 1640 690 1640 690 1691.5 642 c 128,-1,48
 1743 594 1743 594 1771.5 523.5 c 128,-1,49
 1800 453 1800 453 1800 360 c 0,50,51
 1800 268 1800 268 1771.5 197.5 c 128,-1,52
 1743 127 1743 127 1691.5 79 c 128,-1,53
 1640 31 1640 31 1568.5 5.5 c 128,-1,54
 1497 -20 1497 -20 1411 -20 c 256,55,56
 1325 -20 1325 -20 1253.5 5.5 c 128,-1,57
 1182 31 1182 31 1130.5 79 c 128,-1,58
 1079 127 1079 127 1050.5 197.5 c 128,-1,59
 1022 268 1022 268 1022 360 c 0,40,41
1329 360 m 0,60,61
 1329 301 1329 301 1332 261 c 128,-1,62
 1335 221 1335 221 1344.5 198.5 c 128,-1,63
 1354 176 1354 176 1370 167 c 128,-1,64
 1386 158 1386 158 1411 158 c 256,65,66
 1436 158 1436 158 1451 167 c 128,-1,67
 1466 176 1466 176 1475.5 198.5 c 128,-1,68
 1485 221 1485 221 1489 261 c 128,-1,69
 1493 301 1493 301 1493 360 c 0,70,71
 1493 479 1493 479 1476.5 521 c 128,-1,72
 1460 563 1460 563 1411 563 c 256,73,74
 1362 563 1362 563 1345.5 521 c 128,-1,75
 1329 479 1329 479 1329 360 c 0,60,61
EndSplineSet
EndChar

StartChar: ampersand
Encoding: 38 38 9
Width: 2015
Flags: W
LayerCount: 2
Fore
SplineSet
1706 309 m 0,0,1
 1761 309 1761 309 1803 347 c 128,-1,2
 1845 385 1845 385 1845 494 c 1,3,-1
 1954 494 l 1,4,5
 1954 340 1954 340 1931.5 236.5 c 128,-1,6
 1909 133 1909 133 1862 70.5 c 128,-1,7
 1815 8 1815 8 1742 -17.5 c 128,-1,8
 1669 -43 1669 -43 1567 -43 c 0,9,10
 1464 -43 1464 -43 1371 -11.5 c 128,-1,11
 1278 20 1278 20 1200 72 c 1,12,13
 1157 53 1157 53 1109 32.5 c 128,-1,14
 1061 12 1061 12 1000.5 -5.5 c 128,-1,15
 940 -23 940 -23 861 -33 c 128,-1,16
 782 -43 782 -43 676 -43 c 0,17,18
 549 -43 549 -43 435.5 -16.5 c 128,-1,19
 322 10 322 10 237 64.5 c 128,-1,20
 152 119 152 119 101.5 203 c 128,-1,21
 51 287 51 287 51 403 c 0,22,23
 51 492 51 492 82 562.5 c 128,-1,24
 113 633 113 633 166 686 c 128,-1,25
 219 739 219 739 293 777 c 128,-1,26
 367 815 367 815 453 838 c 1,27,28
 403 915 403 915 375.5 989 c 128,-1,29
 348 1063 348 1063 348 1122 c 0,30,31
 348 1243 348 1243 401.5 1319 c 128,-1,32
 455 1395 455 1395 540 1438 c 128,-1,33
 625 1481 625 1481 730.5 1497 c 128,-1,34
 836 1513 836 1513 940 1513 c 0,35,36
 1030 1513 1030 1513 1117 1495 c 128,-1,37
 1204 1477 1204 1477 1273.5 1438 c 128,-1,38
 1343 1399 1343 1399 1385 1338.5 c 128,-1,39
 1427 1278 1427 1278 1427 1194 c 0,40,41
 1427 1114 1427 1114 1392.5 1059 c 128,-1,42
 1358 1004 1358 1004 1299.5 963 c 128,-1,43
 1241 922 1241 922 1166.5 891 c 128,-1,44
 1092 860 1092 860 1012 831 c 1,45,46
 1100 727 1100 727 1186 649 c 128,-1,47
 1272 571 1272 571 1376 494 c 1,48,49
 1393 500 1393 500 1407 513 c 128,-1,50
 1421 526 1421 526 1421 547 c 0,51,52
 1421 567 1421 567 1402.5 583.5 c 128,-1,53
 1384 600 1384 600 1305 600 c 1,54,-1
 1305 885 l 1,55,-1
 1954 885 l 1,56,-1
 1954 600 l 1,57,-1
 1907 600 l 2,58,59
 1853 600 1853 600 1812.5 570.5 c 128,-1,60
 1772 541 1772 541 1735 499 c 128,-1,61
 1698 457 1698 457 1663 413 c 128,-1,62
 1628 369 1628 369 1587 340 c 1,63,64
 1599 332 1599 332 1615.5 327 c 128,-1,65
 1632 322 1632 322 1649.5 317.5 c 128,-1,66
 1667 313 1667 313 1682.5 311 c 128,-1,67
 1698 309 1698 309 1706 309 c 0,0,1
610 586 m 1,68,69
 578 561 578 561 564.5 518 c 128,-1,70
 551 475 551 475 551 434 c 0,71,72
 551 336 551 336 609.5 288 c 128,-1,73
 668 240 668 240 754 240 c 0,74,75
 788 240 788 240 828 246 c 128,-1,76
 868 252 868 252 905 266 c 1,77,78
 856 309 856 309 817 346 c 128,-1,79
 778 383 778 383 743.5 421 c 128,-1,80
 709 459 709 459 677 499 c 128,-1,81
 645 539 645 539 610 586 c 1,68,69
1012 1180 m 0,82,83
 1012 1212 1012 1212 986.5 1237 c 128,-1,84
 961 1262 961 1262 915 1262 c 0,85,86
 864 1262 864 1262 836.5 1237 c 128,-1,87
 809 1212 809 1212 809 1171 c 0,88,89
 809 1137 809 1137 825.5 1104 c 128,-1,90
 842 1071 842 1071 872 1020 c 1,91,92
 936 1055 936 1055 974 1087.5 c 128,-1,93
 1012 1120 1012 1120 1012 1180 c 0,82,83
EndSplineSet
EndChar

StartChar: quotesingle
Encoding: 39 39 10
Width: 535
Flags: W
LayerCount: 2
Fore
SplineSet
268 1513 m 256,0,1
 362 1513 362 1513 407.5 1461 c 128,-1,2
 453 1409 453 1409 453 1341 c 0,3,4
 453 1278 453 1278 433.5 1157 c 128,-1,5
 414 1036 414 1036 350 840 c 1,6,-1
 186 840 l 1,7,8
 154 938 154 938 133.5 1017 c 128,-1,9
 113 1096 113 1096 101.5 1156.5 c 128,-1,10
 90 1217 90 1217 86 1262 c 128,-1,11
 82 1307 82 1307 82 1337 c 0,12,13
 82 1407 82 1407 128 1460 c 128,-1,14
 174 1513 174 1513 268 1513 c 256,0,1
EndSplineSet
EndChar

StartChar: parenleft
Encoding: 40 40 11
Width: 983
Flags: W
LayerCount: 2
Fore
SplineSet
901 1214 m 1,0,1
 758 1159 758 1159 697.5 1001.5 c 128,-1,2
 637 844 637 844 637 604 c 0,3,4
 637 369 637 369 698.5 211 c 128,-1,5
 760 53 760 53 901 0 c 1,6,-1
 901 -303 l 1,7,8
 709 -276 709 -276 556 -202.5 c 128,-1,9
 403 -129 403 -129 298 -13.5 c 128,-1,10
 193 102 193 102 137.5 258 c 128,-1,11
 82 414 82 414 82 606 c 0,12,13
 82 799 82 799 138.5 955.5 c 128,-1,14
 195 1112 195 1112 300.5 1227.5 c 128,-1,15
 406 1343 406 1343 558.5 1416 c 128,-1,16
 711 1489 711 1489 901 1516 c 1,17,-1
 901 1214 l 1,0,1
EndSplineSet
EndChar

StartChar: parenright
Encoding: 41 41 12
Width: 983
Flags: W
LayerCount: 2
Fore
SplineSet
82 1516 m 1,0,1
 272 1489 272 1489 425 1416 c 128,-1,2
 578 1343 578 1343 683 1227.5 c 128,-1,3
 788 1112 788 1112 844.5 955.5 c 128,-1,4
 901 799 901 799 901 606 c 0,5,6
 901 414 901 414 846 258 c 128,-1,7
 791 102 791 102 685.5 -13.5 c 128,-1,8
 580 -129 580 -129 427 -202.5 c 128,-1,9
 274 -276 274 -276 82 -303 c 1,10,-1
 82 0 l 1,11,12
 223 53 223 53 284.5 211 c 128,-1,13
 346 369 346 369 346 604 c 0,14,15
 346 844 346 844 285.5 1001.5 c 128,-1,16
 225 1159 225 1159 82 1214 c 1,17,-1
 82 1516 l 1,0,1
EndSplineSet
EndChar

StartChar: asterisk
Encoding: 42 42 13
Width: 1069
Flags: W
LayerCount: 2
Fore
SplineSet
389 1268 m 1,0,1
 410 1239 410 1239 434.5 1206.5 c 128,-1,2
 459 1174 459 1174 496 1143 c 1,3,4
 489 1192 489 1192 474 1233 c 128,-1,5
 459 1274 459 1274 442 1305 c 1,6,7
 428 1333 428 1333 417 1361 c 128,-1,8
 406 1389 406 1389 406 1411 c 0,9,10
 406 1462 406 1462 440.5 1495 c 128,-1,11
 475 1528 475 1528 535 1528 c 0,12,13
 594 1528 594 1528 629 1491 c 128,-1,14
 664 1454 664 1454 664 1407 c 0,15,16
 664 1384 664 1384 654.5 1361.5 c 128,-1,17
 645 1339 645 1339 629 1311 c 0,18,19
 612 1280 612 1280 596 1238 c 128,-1,20
 580 1196 580 1196 569 1141 c 1,21,22
 606 1167 606 1167 632.5 1200 c 128,-1,23
 659 1233 659 1233 682 1266 c 0,24,25
 711 1309 711 1309 739.5 1339.5 c 128,-1,26
 768 1370 768 1370 819 1370 c 256,27,28
 870 1370 870 1370 908 1331 c 128,-1,29
 946 1292 946 1292 946 1239 c 0,30,31
 946 1169 946 1169 904 1141.5 c 128,-1,32
 862 1114 862 1114 778 1110 c 1,33,34
 725 1106 725 1106 683 1100 c 128,-1,35
 641 1094 641 1094 606 1079 c 1,36,37
 657 1057 657 1057 705.5 1052 c 128,-1,38
 754 1047 754 1047 805 1042 c 1,39,40
 872 1038 872 1038 909 1006.5 c 128,-1,41
 946 975 946 975 946 922 c 0,42,43
 946 860 946 860 907 820 c 128,-1,44
 868 780 868 780 821 780 c 0,45,46
 768 780 768 780 739.5 811 c 128,-1,47
 711 842 711 842 682 887 c 1,48,49
 662 915 662 915 636 950 c 128,-1,50
 610 985 610 985 573 1014 c 1,51,52
 580 963 580 963 596 924 c 128,-1,53
 612 885 612 885 629 852 c 0,54,55
 645 823 645 823 655.5 796.5 c 128,-1,56
 666 770 666 770 666 745 c 0,57,58
 666 696 666 696 631 661.5 c 128,-1,59
 596 627 596 627 537 627 c 0,60,61
 477 627 477 627 442.5 658.5 c 128,-1,62
 408 690 408 690 408 745 c 0,63,64
 408 768 408 768 417 793.5 c 128,-1,65
 426 819 426 819 442 848 c 0,66,67
 459 881 459 881 475.5 919.5 c 128,-1,68
 492 958 492 958 500 1012 c 1,69,70
 465 985 465 985 439.5 951.5 c 128,-1,71
 414 918 414 918 391 887 c 1,72,73
 362 844 362 844 333.5 813 c 128,-1,74
 305 782 305 782 254 782 c 0,75,76
 199 782 199 782 161 824 c 128,-1,77
 123 866 123 866 123 922 c 0,78,79
 123 987 123 987 171 1014.5 c 128,-1,80
 219 1042 219 1042 279 1042 c 1,81,82
 324 1047 324 1047 371 1052 c 128,-1,83
 418 1057 418 1057 463 1075 c 1,84,85
 379 1112 379 1112 242 1112 c 0,86,87
 199 1112 199 1112 161 1145 c 128,-1,88
 123 1178 123 1178 123 1231 c 0,89,90
 123 1286 123 1286 160 1327 c 128,-1,91
 197 1368 197 1368 254 1368 c 0,92,93
 307 1368 307 1368 333.5 1339.5 c 128,-1,94
 360 1311 360 1311 389 1268 c 1,0,1
EndSplineSet
EndChar

StartChar: plus
Encoding: 43 43 14
Width: 1434
Flags: W
LayerCount: 2
Fore
SplineSet
553 553 m 1,0,-1
 154 553 l 1,1,-1
 154 879 l 1,2,-1
 553 879 l 1,3,-1
 553 1278 l 1,4,-1
 879 1278 l 1,5,-1
 879 879 l 1,6,-1
 1280 879 l 1,7,-1
 1280 553 l 1,8,-1
 879 553 l 1,9,-1
 879 152 l 1,10,-1
 553 152 l 1,11,-1
 553 553 l 1,0,-1
EndSplineSet
EndChar

StartChar: comma
Encoding: 44 44 15
Width: 676
Flags: W
LayerCount: 2
Fore
SplineSet
133 -113 m 1,0,1
 213 -109 213 -109 260 -85 c 128,-1,2
 307 -61 307 -61 336 -12 c 1,3,4
 225 -12 225 -12 153.5 46 c 128,-1,5
 82 104 82 104 82 223 c 0,6,7
 82 274 82 274 101.5 318 c 128,-1,8
 121 362 121 362 154.5 395 c 128,-1,9
 188 428 188 428 235.5 446.5 c 128,-1,10
 283 465 283 465 336 465 c 0,11,12
 393 465 393 465 440 442.5 c 128,-1,13
 487 420 487 420 521 383 c 128,-1,14
 555 346 555 346 574.5 297 c 128,-1,15
 594 248 594 248 594 195 c 0,16,17
 594 121 594 121 573.5 43 c 128,-1,18
 553 -35 553 -35 502 -102.5 c 128,-1,19
 451 -170 451 -170 360.5 -219 c 128,-1,20
 270 -268 270 -268 133 -285 c 1,21,-1
 133 -113 l 1,0,1
EndSplineSet
EndChar

StartChar: hyphen
Encoding: 45 45 16
Width: 860
Flags: W
LayerCount: 2
Fore
SplineSet
82 819 m 1,0,-1
 778 819 l 1,1,-1
 778 424 l 1,2,-1
 82 424 l 1,3,-1
 82 819 l 1,0,-1
EndSplineSet
EndChar

StartChar: period
Encoding: 46 46 17
Width: 672
Flags: W
LayerCount: 2
Fore
SplineSet
82 211 m 0,0,1
 82 262 82 262 102.5 309 c 128,-1,2
 123 356 123 356 156.5 390 c 128,-1,3
 190 424 190 424 236.5 444.5 c 128,-1,4
 283 465 283 465 336 465 c 0,5,6
 387 465 387 465 434 444.5 c 128,-1,7
 481 424 481 424 515 390 c 128,-1,8
 549 356 549 356 569.5 309 c 128,-1,9
 590 262 590 262 590 211 c 0,10,11
 590 158 590 158 569.5 112 c 128,-1,12
 549 66 549 66 515 32 c 128,-1,13
 481 -2 481 -2 434 -22.5 c 128,-1,14
 387 -43 387 -43 336 -43 c 0,15,16
 283 -43 283 -43 236.5 -22.5 c 128,-1,17
 190 -2 190 -2 156.5 32 c 128,-1,18
 123 66 123 66 102.5 112 c 128,-1,19
 82 158 82 158 82 211 c 0,0,1
EndSplineSet
EndChar

StartChar: slash
Encoding: 47 47 18
Width: 922
Flags: W
LayerCount: 2
Fore
SplineSet
530 1473 m 1,0,-1
 819 1473 l 1,1,-1
 391 0 l 1,2,-1
 102 0 l 1,3,-1
 530 1473 l 1,0,-1
EndSplineSet
EndChar

StartChar: zero
Encoding: 48 48 19
Width: 1573
Flags: W
LayerCount: 2
Fore
SplineSet
45 725 m 256,0,1
 45 909 45 909 100.5 1052.5 c 128,-1,2
 156 1196 156 1196 254 1293.5 c 128,-1,3
 352 1391 352 1391 488.5 1442 c 128,-1,4
 625 1493 625 1493 786 1493 c 0,5,6
 948 1493 948 1493 1084.5 1442 c 128,-1,7
 1221 1391 1221 1391 1319 1293.5 c 128,-1,8
 1417 1196 1417 1196 1472.5 1052.5 c 128,-1,9
 1528 909 1528 909 1528 725 c 256,10,11
 1528 541 1528 541 1472.5 397.5 c 128,-1,12
 1417 254 1417 254 1319 156.5 c 128,-1,13
 1221 59 1221 59 1084.5 8 c 128,-1,14
 948 -43 948 -43 786 -43 c 0,15,16
 625 -43 625 -43 488.5 8 c 128,-1,17
 352 59 352 59 254 156.5 c 128,-1,18
 156 254 156 254 100.5 397.5 c 128,-1,19
 45 541 45 541 45 725 c 256,0,1
623 725 m 256,20,21
 623 485 623 485 655.5 380.5 c 128,-1,22
 688 276 688 276 786 276 c 0,23,24
 885 276 885 276 917.5 380.5 c 128,-1,25
 950 485 950 485 950 725 c 256,26,27
 950 965 950 965 917.5 1069.5 c 128,-1,28
 885 1174 885 1174 786 1174 c 0,29,30
 688 1174 688 1174 655.5 1069.5 c 128,-1,31
 623 965 623 965 623 725 c 256,20,21
EndSplineSet
EndChar

StartChar: one
Encoding: 49 49 20
Width: 1006
Flags: W
LayerCount: 2
Fore
SplineSet
51 1288 m 1,0,1
 94 1288 94 1288 143.5 1296.5 c 128,-1,2
 193 1305 193 1305 233.5 1325.5 c 128,-1,3
 274 1346 274 1346 301 1381.5 c 128,-1,4
 328 1417 328 1417 328 1473 c 1,5,-1
 791 1473 l 1,6,-1
 791 479 l 2,7,8
 791 412 791 412 823.5 391.5 c 128,-1,9
 856 371 856 371 907 371 c 2,10,-1
 975 371 l 1,11,-1
 975 0 l 1,12,-1
 72 0 l 1,13,-1
 72 371 l 1,14,-1
 152 371 l 2,15,16
 205 371 205 371 230.5 404.5 c 128,-1,17
 256 438 256 438 256 477 c 2,18,-1
 256 958 l 1,19,-1
 51 958 l 1,20,-1
 51 1288 l 1,0,1
EndSplineSet
EndChar

StartChar: two
Encoding: 50 50 21
Width: 1454
Flags: W
LayerCount: 2
Fore
SplineSet
365 262 m 1,0,1
 385 287 385 287 418 316.5 c 128,-1,2
 451 346 451 346 494 371.5 c 128,-1,3
 537 397 537 397 591 414.5 c 128,-1,4
 645 432 645 432 709 432 c 0,5,6
 774 432 774 432 819 425 c 128,-1,7
 864 418 864 418 901 410.5 c 128,-1,8
 938 403 938 403 971 396 c 128,-1,9
 1004 389 1004 389 1044 389 c 0,10,11
 1120 389 1120 389 1163 422 c 128,-1,12
 1206 455 1206 455 1206 545 c 1,13,-1
 1403 545 l 1,14,15
 1403 354 1403 354 1367 241.5 c 128,-1,16
 1331 129 1331 129 1268.5 70.5 c 128,-1,17
 1206 12 1206 12 1120 -4 c 128,-1,18
 1034 -20 1034 -20 936 -20 c 0,19,20
 858 -20 858 -20 785.5 -5 c 128,-1,21
 713 10 713 10 646.5 27.5 c 128,-1,22
 580 45 580 45 519.5 60.5 c 128,-1,23
 459 76 459 76 406 76 c 0,24,25
 360 76 360 76 333.5 63.5 c 128,-1,26
 307 51 307 51 291 37 c 0,27,28
 272 20 272 20 262 0 c 1,29,-1
 33 0 l 1,30,31
 33 150 33 150 66.5 259.5 c 128,-1,32
 100 369 100 369 155.5 450.5 c 128,-1,33
 211 532 211 532 282.5 590.5 c 128,-1,34
 354 649 354 649 428 693 c 128,-1,35
 502 737 502 737 573.5 772 c 128,-1,36
 645 807 645 807 700.5 844 c 128,-1,37
 756 881 756 881 789.5 924 c 128,-1,38
 823 967 823 967 823 1026 c 0,39,40
 823 1114 823 1114 754.5 1157 c 128,-1,41
 686 1200 686 1200 590 1200 c 0,42,43
 522 1200 522 1200 468 1190 c 128,-1,44
 414 1180 414 1180 365 1155 c 1,45,46
 426 1137 426 1137 471 1097 c 128,-1,47
 516 1057 516 1057 516 979 c 0,48,49
 516 944 516 944 500.5 911.5 c 128,-1,50
 485 879 485 879 455.5 852 c 128,-1,51
 426 825 426 825 381 810 c 128,-1,52
 336 795 336 795 279 795 c 0,53,54
 236 795 236 795 190.5 809 c 128,-1,55
 145 823 145 823 108.5 854 c 128,-1,56
 72 885 72 885 48.5 935 c 128,-1,57
 25 985 25 985 25 1057 c 0,58,59
 25 1153 25 1153 76 1233 c 128,-1,60
 127 1313 127 1313 219 1371.5 c 128,-1,61
 311 1430 311 1430 440 1461.5 c 128,-1,62
 569 1493 569 1493 723 1493 c 0,63,64
 887 1493 887 1493 1012 1458 c 128,-1,65
 1137 1423 1137 1423 1222 1361.5 c 128,-1,66
 1307 1300 1307 1300 1350 1218.5 c 128,-1,67
 1393 1137 1393 1137 1393 1044 c 0,68,69
 1393 932 1393 932 1357 857 c 128,-1,70
 1321 782 1321 782 1259.5 733 c 128,-1,71
 1198 684 1198 684 1118 652.5 c 128,-1,72
 1038 621 1038 621 950 597 c 128,-1,73
 862 573 862 573 772 549.5 c 128,-1,74
 682 526 682 526 601 490.5 c 128,-1,75
 520 455 520 455 453.5 402.5 c 128,-1,76
 387 350 387 350 348 268 c 1,77,-1
 365 262 l 1,0,1
EndSplineSet
EndChar

StartChar: three
Encoding: 51 51 22
Width: 1540
Flags: W
LayerCount: 2
Fore
SplineSet
662 1202 m 0,0,1
 559 1202 559 1202 509 1179.5 c 128,-1,2
 459 1157 459 1157 434 1137 c 1,3,4
 455 1135 455 1135 480.5 1126.5 c 128,-1,5
 506 1118 506 1118 527.5 1101.5 c 128,-1,6
 549 1085 549 1085 563.5 1056.5 c 128,-1,7
 578 1028 578 1028 578 985 c 0,8,9
 578 905 578 905 520.5 857 c 128,-1,10
 463 809 463 809 352 809 c 0,11,12
 299 809 299 809 251 825.5 c 128,-1,13
 203 842 203 842 166 875.5 c 128,-1,14
 129 909 129 909 107.5 958.5 c 128,-1,15
 86 1008 86 1008 86 1075 c 0,16,17
 86 1169 86 1169 133 1246 c 128,-1,18
 180 1323 180 1323 268 1378.5 c 128,-1,19
 356 1434 356 1434 481 1463.5 c 128,-1,20
 606 1493 606 1493 762 1493 c 0,21,22
 891 1493 891 1493 1016 1473.5 c 128,-1,23
 1141 1454 1141 1454 1238 1407 c 128,-1,24
 1335 1360 1335 1360 1394.5 1283 c 128,-1,25
 1454 1206 1454 1206 1454 1094 c 0,26,27
 1454 954 1454 954 1371 869 c 128,-1,28
 1288 784 1288 784 1120 756 c 1,29,-1
 1120 745 l 1,30,31
 1288 725 1288 725 1391.5 636 c 128,-1,32
 1495 547 1495 547 1495 379 c 0,33,34
 1495 307 1495 307 1457 232.5 c 128,-1,35
 1419 158 1419 158 1332 97.5 c 128,-1,36
 1245 37 1245 37 1104 -2 c 128,-1,37
 963 -41 963 -41 758 -41 c 0,38,39
 563 -41 563 -41 427 0 c 128,-1,40
 291 41 291 41 206 105.5 c 128,-1,41
 121 170 121 170 83 252 c 128,-1,42
 45 334 45 334 45 418 c 0,43,44
 45 485 45 485 65.5 538.5 c 128,-1,45
 86 592 86 592 122 628 c 128,-1,46
 158 664 158 664 206 682 c 128,-1,47
 254 700 254 700 307 700 c 0,48,49
 375 700 375 700 421 682 c 128,-1,50
 467 664 467 664 494.5 636 c 128,-1,51
 522 608 522 608 534.5 574.5 c 128,-1,52
 547 541 547 541 547 510 c 0,53,54
 547 426 547 426 496.5 381 c 128,-1,55
 446 336 446 336 385 317 c 1,56,57
 485 256 485 256 655 256 c 0,58,59
 795 256 795 256 860.5 309 c 128,-1,60
 926 362 926 362 926 461 c 0,61,62
 926 510 926 510 906.5 545 c 128,-1,63
 887 580 887 580 855 601.5 c 128,-1,64
 823 623 823 623 782 633 c 128,-1,65
 741 643 741 643 700 643 c 2,66,-1
 629 643 l 1,67,-1
 629 860 l 1,68,-1
 700 860 l 2,69,70
 799 860 799 860 848 909 c 128,-1,71
 897 958 897 958 897 1024 c 0,72,73
 897 1075 897 1075 877.5 1110 c 128,-1,74
 858 1145 858 1145 826.5 1165.5 c 128,-1,75
 795 1186 795 1186 752 1194 c 128,-1,76
 709 1202 709 1202 662 1202 c 0,0,1
EndSplineSet
EndChar

StartChar: four
Encoding: 52 52 23
Width: 1487
Flags: W
LayerCount: 2
Fore
SplineSet
41 797 m 1,0,-1
 686 1473 l 1,1,-1
 1241 1473 l 1,2,-1
 1241 711 l 1,3,-1
 1466 711 l 1,4,-1
 1466 494 l 1,5,-1
 1241 494 l 1,6,-1
 1241 459 l 2,7,8
 1241 424 1241 424 1246 406.5 c 128,-1,9
 1251 389 1251 389 1263.5 381 c 128,-1,10
 1276 373 1276 373 1294.5 372 c 128,-1,11
 1313 371 1313 371 1337 371 c 2,12,-1
 1384 371 l 1,13,-1
 1384 0 l 1,14,-1
 543 0 l 1,15,-1
 543 371 l 1,16,-1
 602 371 l 2,17,18
 655 371 655 371 670.5 394.5 c 128,-1,19
 686 418 686 418 686 457 c 2,20,-1
 686 494 l 1,21,-1
 41 494 l 1,22,-1
 41 797 l 1,0,-1
313 711 m 1,23,-1
 686 711 l 1,24,-1
 686 1110 l 1,25,-1
 313 711 l 1,23,-1
EndSplineSet
EndChar

StartChar: five
Encoding: 53 53 24
Width: 1448
Flags: W
LayerCount: 2
Fore
SplineSet
598 246 m 0,0,1
 733 246 733 246 800.5 317.5 c 128,-1,2
 868 389 868 389 868 500 c 0,3,4
 868 616 868 616 793.5 677.5 c 128,-1,5
 719 739 719 739 592 739 c 0,6,7
 508 739 508 739 457 722 c 128,-1,8
 406 705 406 705 381 694 c 1,9,-1
 131 694 l 1,10,-1
 131 1493 l 1,11,-1
 174 1493 l 1,12,13
 252 1479 252 1479 312.5 1470.5 c 128,-1,14
 373 1462 373 1462 434.5 1458 c 128,-1,15
 496 1454 496 1454 566.5 1453 c 128,-1,16
 637 1452 637 1452 733 1452 c 0,17,18
 846 1452 846 1452 932 1454 c 128,-1,19
 1018 1456 1018 1456 1084.5 1460 c 128,-1,20
 1151 1464 1151 1464 1204 1472.5 c 128,-1,21
 1257 1481 1257 1481 1305 1493 c 1,22,-1
 1354 1473 l 1,23,24
 1333 1386 1333 1386 1299.5 1312.5 c 128,-1,25
 1266 1239 1266 1239 1199.5 1187 c 128,-1,26
 1133 1135 1133 1135 1021 1105 c 128,-1,27
 909 1075 909 1075 735 1075 c 0,28,29
 633 1075 633 1075 576.5 1080 c 128,-1,30
 520 1085 520 1085 483 1094 c 1,31,-1
 483 961 l 1,32,33
 502 967 502 967 522.5 971 c 128,-1,34
 543 975 543 975 570.5 979 c 128,-1,35
 598 983 598 983 635 985 c 128,-1,36
 672 987 672 987 723 987 c 0,37,38
 915 987 915 987 1045.5 945 c 128,-1,39
 1176 903 1176 903 1253.5 830.5 c 128,-1,40
 1331 758 1331 758 1364 662.5 c 128,-1,41
 1397 567 1397 567 1397 461 c 0,42,43
 1397 352 1397 352 1355 261 c 128,-1,44
 1313 170 1313 170 1226 102.5 c 128,-1,45
 1139 35 1139 35 1005.5 -3 c 128,-1,46
 872 -41 872 -41 688 -41 c 0,47,48
 379 -41 379 -41 205 66.5 c 128,-1,49
 31 174 31 174 31 371 c 0,50,51
 31 442 31 442 53.5 495.5 c 128,-1,52
 76 549 76 549 113 582.5 c 128,-1,53
 150 616 150 616 197 632.5 c 128,-1,54
 244 649 244 649 291 649 c 0,55,56
 408 649 408 649 465 600 c 128,-1,57
 522 551 522 551 522 473 c 256,58,59
 522 395 522 395 477 355 c 128,-1,60
 432 315 432 315 371 297 c 1,61,62
 420 272 420 272 475 259 c 128,-1,63
 530 246 530 246 598 246 c 0,0,1
EndSplineSet
EndChar

StartChar: six
Encoding: 54 54 25
Width: 1495
Flags: W
LayerCount: 2
Fore
SplineSet
911 1264 m 0,0,1
 846 1264 846 1264 786.5 1237 c 128,-1,2
 727 1210 727 1210 682 1155 c 128,-1,3
 637 1100 637 1100 611.5 1016 c 128,-1,4
 586 932 586 932 586 819 c 1,5,6
 639 852 639 852 711.5 875.5 c 128,-1,7
 784 899 784 899 893 899 c 0,8,9
 1161 899 1161 899 1307.5 784.5 c 128,-1,10
 1454 670 1454 670 1454 459 c 0,11,12
 1454 344 1454 344 1406 251 c 128,-1,13
 1358 158 1358 158 1271 92.5 c 128,-1,14
 1184 27 1184 27 1060 -8 c 128,-1,15
 936 -43 936 -43 786 -43 c 0,16,17
 625 -43 625 -43 488.5 5 c 128,-1,18
 352 53 352 53 254 146.5 c 128,-1,19
 156 240 156 240 100.5 380 c 128,-1,20
 45 520 45 520 45 705 c 0,21,22
 45 889 45 889 103.5 1035.5 c 128,-1,23
 162 1182 162 1182 264.5 1283 c 128,-1,24
 367 1384 367 1384 506 1438.5 c 128,-1,25
 645 1493 645 1493 807 1493 c 0,26,27
 952 1493 952 1493 1063 1465.5 c 128,-1,28
 1174 1438 1174 1438 1249.5 1390.5 c 128,-1,29
 1325 1343 1325 1343 1363 1280 c 128,-1,30
 1401 1217 1401 1217 1401 1145 c 0,31,32
 1401 1081 1401 1081 1380.5 1038 c 128,-1,33
 1360 995 1360 995 1324 968.5 c 128,-1,34
 1288 942 1288 942 1243 931 c 128,-1,35
 1198 920 1198 920 1149 920 c 0,36,37
 1044 920 1044 920 987 962 c 128,-1,38
 930 1004 930 1004 930 1079 c 0,39,40
 930 1120 930 1120 942 1147 c 128,-1,41
 954 1174 954 1174 973.5 1191 c 128,-1,42
 993 1208 993 1208 1014.5 1217.5 c 128,-1,43
 1036 1227 1036 1227 1055 1231 c 1,44,45
 1032 1243 1032 1243 1002.5 1253.5 c 128,-1,46
 973 1264 973 1264 911 1264 c 0,0,1
801 229 m 256,47,48
 879 229 879 229 915.5 286.5 c 128,-1,49
 952 344 952 344 952 436 c 256,50,51
 952 528 952 528 915.5 585.5 c 128,-1,52
 879 643 879 643 801 643 c 256,53,54
 723 643 723 643 686 585.5 c 128,-1,55
 649 528 649 528 649 436 c 256,56,57
 649 344 649 344 686 286.5 c 128,-1,58
 723 229 723 229 801 229 c 256,47,48
EndSplineSet
EndChar

StartChar: seven
Encoding: 55 55 26
Width: 1282
Flags: W
LayerCount: 2
Fore
SplineSet
1282 1473 m 1,0,1
 1282 1337 1282 1337 1247 1230.5 c 128,-1,2
 1212 1124 1212 1124 1160 1026 c 128,-1,3
 1108 928 1108 928 1046.5 828.5 c 128,-1,4
 985 729 985 729 933 610.5 c 128,-1,5
 881 492 881 492 846 343.5 c 128,-1,6
 811 195 811 195 811 0 c 1,7,-1
 256 0 l 1,8,9
 256 162 256 162 281.5 281.5 c 128,-1,10
 307 401 307 401 352 494.5 c 128,-1,11
 397 588 397 588 459.5 661.5 c 128,-1,12
 522 735 522 735 595 803.5 c 128,-1,13
 668 872 668 872 748.5 944 c 128,-1,14
 829 1016 829 1016 911 1104 c 1,15,-1
 903 1112 l 1,16,17
 860 1073 860 1073 815 1050.5 c 128,-1,18
 770 1028 770 1028 721 1028 c 0,19,20
 688 1028 688 1028 648 1036 c 128,-1,21
 608 1044 608 1044 569 1055.5 c 128,-1,22
 530 1067 530 1067 499.5 1075 c 128,-1,23
 469 1083 469 1083 457 1083 c 0,24,25
 436 1083 436 1083 415.5 1078 c 128,-1,26
 395 1073 395 1073 377.5 1052.5 c 128,-1,27
 360 1032 360 1032 350 993 c 128,-1,28
 340 954 340 954 340 887 c 1,29,-1
 31 887 l 1,30,-1
 31 1473 l 1,31,-1
 340 1473 l 1,32,-1
 340 1380 l 1,33,34
 365 1423 365 1423 416 1458 c 128,-1,35
 467 1493 467 1493 565 1493 c 0,36,37
 623 1493 623 1493 676 1479.5 c 128,-1,38
 729 1466 729 1466 778 1451 c 128,-1,39
 827 1436 827 1436 872.5 1423.5 c 128,-1,40
 918 1411 918 1411 954 1411 c 0,41,42
 987 1411 987 1411 1019 1428.5 c 128,-1,43
 1051 1446 1051 1446 1061 1473 c 1,44,-1
 1282 1473 l 1,0,1
EndSplineSet
EndChar

StartChar: eight
Encoding: 56 56 27
Width: 1532
Flags: W
LayerCount: 2
Fore
SplineSet
766 1493 m 0,0,1
 887 1493 887 1493 1004.5 1474.5 c 128,-1,2
 1122 1456 1122 1456 1215.5 1410 c 128,-1,3
 1309 1364 1309 1364 1366 1287 c 128,-1,4
 1423 1210 1423 1210 1423 1094 c 0,5,6
 1423 954 1423 954 1344.5 866 c 128,-1,7
 1266 778 1266 778 1112 756 c 1,8,-1
 1112 745 l 1,9,10
 1280 731 1280 731 1383.5 643 c 128,-1,11
 1487 555 1487 555 1487 387 c 0,12,13
 1487 315 1487 315 1453 239.5 c 128,-1,14
 1419 164 1419 164 1336 101.5 c 128,-1,15
 1253 39 1253 39 1113 -1 c 128,-1,16
 973 -41 973 -41 758 -41 c 0,17,18
 549 -41 549 -41 410.5 -1 c 128,-1,19
 272 39 272 39 191.5 101.5 c 128,-1,20
 111 164 111 164 78 239.5 c 128,-1,21
 45 315 45 315 45 387 c 0,22,23
 45 555 45 555 148.5 643 c 128,-1,24
 252 731 252 731 420 745 c 1,25,-1
 420 756 l 1,26,27
 266 778 266 778 186 866 c 128,-1,28
 106 954 106 954 106 1094 c 0,29,30
 106 1210 106 1210 160.5 1287 c 128,-1,31
 215 1364 215 1364 306 1410 c 128,-1,32
 397 1456 397 1456 517 1474.5 c 128,-1,33
 637 1493 637 1493 766 1493 c 0,0,1
766 637 m 256,34,35
 688 637 688 637 651 586 c 128,-1,36
 614 535 614 535 614 451 c 256,37,38
 614 367 614 367 651 313.5 c 128,-1,39
 688 260 688 260 766 260 c 256,40,41
 844 260 844 260 881 313.5 c 128,-1,42
 918 367 918 367 918 451 c 256,43,44
 918 535 918 535 881 586 c 128,-1,45
 844 637 844 637 766 637 c 256,34,35
764 1202 m 0,46,47
 698 1202 698 1202 668.5 1156 c 128,-1,48
 639 1110 639 1110 639 1034 c 0,49,50
 639 961 639 961 668.5 912.5 c 128,-1,51
 698 864 698 864 764 864 c 0,52,53
 831 864 831 864 861 912.5 c 128,-1,54
 891 961 891 961 891 1034 c 0,55,56
 891 1110 891 1110 861 1156 c 128,-1,57
 831 1202 831 1202 764 1202 c 0,46,47
EndSplineSet
EndChar

StartChar: nine
Encoding: 57 57 28
Width: 1495
Flags: W
LayerCount: 2
Fore
SplineSet
909 631 m 1,0,1
 856 598 856 598 783.5 574.5 c 128,-1,2
 711 551 711 551 602 551 c 0,3,4
 334 551 334 551 187.5 665.5 c 128,-1,5
 41 780 41 780 41 991 c 0,6,7
 41 1106 41 1106 89 1199 c 128,-1,8
 137 1292 137 1292 224 1357.5 c 128,-1,9
 311 1423 311 1423 434 1458 c 128,-1,10
 557 1493 557 1493 709 1493 c 0,11,12
 870 1493 870 1493 1006.5 1445 c 128,-1,13
 1143 1397 1143 1397 1241 1303.5 c 128,-1,14
 1339 1210 1339 1210 1394.5 1070 c 128,-1,15
 1450 930 1450 930 1450 745 c 0,16,17
 1450 559 1450 559 1388.5 412.5 c 128,-1,18
 1327 266 1327 266 1217.5 164.5 c 128,-1,19
 1108 63 1108 63 959.5 10 c 128,-1,20
 811 -43 811 -43 639 -43 c 0,21,22
 496 -43 496 -43 393.5 -16.5 c 128,-1,23
 291 10 291 10 224.5 56 c 128,-1,24
 158 102 158 102 126 163.5 c 128,-1,25
 94 225 94 225 94 293 c 0,26,27
 94 356 94 356 114.5 401 c 128,-1,28
 135 446 135 446 171 475 c 128,-1,29
 207 504 207 504 252 517 c 128,-1,30
 297 530 297 530 346 530 c 0,31,32
 451 530 451 530 508 488 c 128,-1,33
 565 446 565 446 565 371 c 0,34,35
 565 330 565 330 553 303 c 128,-1,36
 541 276 541 276 521.5 259 c 128,-1,37
 502 242 502 242 480.5 232.5 c 128,-1,38
 459 223 459 223 440 219 c 1,39,40
 463 207 463 207 492.5 196.5 c 128,-1,41
 522 186 522 186 584 186 c 0,42,43
 649 186 649 186 708.5 213 c 128,-1,44
 768 240 768 240 812 295 c 128,-1,45
 856 350 856 350 882.5 434 c 128,-1,46
 909 518 909 518 909 631 c 1,0,1
694 1221 m 256,47,48
 616 1221 616 1221 579.5 1163.5 c 128,-1,49
 543 1106 543 1106 543 1014 c 256,50,51
 543 922 543 922 579.5 864.5 c 128,-1,52
 616 807 616 807 694 807 c 256,53,54
 772 807 772 807 809 864.5 c 128,-1,55
 846 922 846 922 846 1014 c 256,56,57
 846 1106 846 1106 809 1163.5 c 128,-1,58
 772 1221 772 1221 694 1221 c 256,47,48
EndSplineSet
EndChar

StartChar: colon
Encoding: 58 58 29
Width: 754
Flags: W
LayerCount: 2
Fore
SplineSet
123 211 m 0,0,1
 123 262 123 262 143.5 309 c 128,-1,2
 164 356 164 356 197.5 390 c 128,-1,3
 231 424 231 424 277.5 444.5 c 128,-1,4
 324 465 324 465 377 465 c 0,5,6
 428 465 428 465 475 444.5 c 128,-1,7
 522 424 522 424 556 390 c 128,-1,8
 590 356 590 356 610.5 309 c 128,-1,9
 631 262 631 262 631 211 c 0,10,11
 631 158 631 158 610.5 112 c 128,-1,12
 590 66 590 66 556 32 c 128,-1,13
 522 -2 522 -2 475 -22.5 c 128,-1,14
 428 -43 428 -43 377 -43 c 0,15,16
 324 -43 324 -43 277.5 -22.5 c 128,-1,17
 231 -2 231 -2 197.5 32 c 128,-1,18
 164 66 164 66 143.5 112 c 128,-1,19
 123 158 123 158 123 211 c 0,0,1
123 848 m 0,20,21
 123 899 123 899 143.5 946 c 128,-1,22
 164 993 164 993 197.5 1027 c 128,-1,23
 231 1061 231 1061 277.5 1081.5 c 128,-1,24
 324 1102 324 1102 377 1102 c 0,25,26
 428 1102 428 1102 475 1081.5 c 128,-1,27
 522 1061 522 1061 556 1027 c 128,-1,28
 590 993 590 993 610.5 946 c 128,-1,29
 631 899 631 899 631 848 c 0,30,31
 631 795 631 795 610.5 748.5 c 128,-1,32
 590 702 590 702 556 668.5 c 128,-1,33
 522 635 522 635 475 614.5 c 128,-1,34
 428 594 428 594 377 594 c 0,35,36
 324 594 324 594 277.5 614.5 c 128,-1,37
 231 635 231 635 197.5 668.5 c 128,-1,38
 164 702 164 702 143.5 748.5 c 128,-1,39
 123 795 123 795 123 848 c 0,20,21
EndSplineSet
EndChar

StartChar: semicolon
Encoding: 59 59 30
Width: 754
Flags: W
LayerCount: 2
Fore
SplineSet
123 848 m 0,0,1
 123 899 123 899 143.5 946 c 128,-1,2
 164 993 164 993 197.5 1027 c 128,-1,3
 231 1061 231 1061 277.5 1081.5 c 128,-1,4
 324 1102 324 1102 377 1102 c 0,5,6
 428 1102 428 1102 475 1081.5 c 128,-1,7
 522 1061 522 1061 556 1027 c 128,-1,8
 590 993 590 993 610.5 946 c 128,-1,9
 631 899 631 899 631 848 c 0,10,11
 631 795 631 795 610.5 748.5 c 128,-1,12
 590 702 590 702 556 668.5 c 128,-1,13
 522 635 522 635 475 614.5 c 128,-1,14
 428 594 428 594 377 594 c 0,15,16
 324 594 324 594 277.5 614.5 c 128,-1,17
 231 635 231 635 197.5 668.5 c 128,-1,18
 164 702 164 702 143.5 748.5 c 128,-1,19
 123 795 123 795 123 848 c 0,0,1
174 -113 m 1,20,21
 254 -109 254 -109 301 -85 c 128,-1,22
 348 -61 348 -61 377 -12 c 1,23,24
 266 -12 266 -12 194.5 46 c 128,-1,25
 123 104 123 104 123 223 c 0,26,27
 123 274 123 274 142.5 318 c 128,-1,28
 162 362 162 362 195.5 395 c 128,-1,29
 229 428 229 428 276.5 446.5 c 128,-1,30
 324 465 324 465 377 465 c 0,31,32
 434 465 434 465 481 442.5 c 128,-1,33
 528 420 528 420 562 383 c 128,-1,34
 596 346 596 346 615.5 297 c 128,-1,35
 635 248 635 248 635 195 c 0,36,37
 635 121 635 121 614.5 43 c 128,-1,38
 594 -35 594 -35 543 -102.5 c 128,-1,39
 492 -170 492 -170 401.5 -219 c 128,-1,40
 311 -268 311 -268 174 -285 c 1,41,-1
 174 -113 l 1,20,21
EndSplineSet
EndChar

StartChar: less
Encoding: 60 60 31
Width: 1434
Flags: W
LayerCount: 2
Fore
SplineSet
1083 1354 m 1,0,-1
 1247 1071 l 1,1,-1
 631 715 l 1,2,-1
 1247 358 l 1,3,-1
 1085 78 l 1,4,-1
 186 596 l 1,5,-1
 186 838 l 1,6,-1
 1083 1354 l 1,0,-1
EndSplineSet
EndChar

StartChar: equal
Encoding: 61 61 32
Width: 1434
Flags: W
LayerCount: 2
Fore
SplineSet
1260 1165 m 1,0,-1
 1260 840 l 1,1,-1
 174 840 l 1,2,-1
 174 1165 l 1,3,-1
 1260 1165 l 1,0,-1
1260 592 m 1,4,-1
 1260 266 l 1,5,-1
 174 266 l 1,6,-1
 174 592 l 1,7,-1
 1260 592 l 1,4,-1
EndSplineSet
EndChar

StartChar: greater
Encoding: 62 62 33
Width: 1434
Flags: W
LayerCount: 2
Fore
SplineSet
1247 838 m 1,0,-1
 1247 596 l 1,1,-1
 348 78 l 1,2,-1
 186 358 l 1,3,-1
 803 715 l 1,4,-1
 186 1071 l 1,5,-1
 350 1354 l 1,6,-1
 1247 838 l 1,0,-1
EndSplineSet
EndChar

StartChar: question
Encoding: 63 63 34
Width: 1307
Flags: W
LayerCount: 2
Fore
SplineSet
1225 1104 m 0,0,1
 1225 1012 1225 1012 1189 944.5 c 128,-1,2
 1153 877 1153 877 1097.5 827.5 c 128,-1,3
 1042 778 1042 778 980 741.5 c 128,-1,4
 918 705 918 705 862.5 671 c 128,-1,5
 807 637 807 637 771 602 c 128,-1,6
 735 567 735 567 735 522 c 1,7,-1
 453 522 l 1,8,9
 453 602 453 602 469 662.5 c 128,-1,10
 485 723 485 723 510 769 c 128,-1,11
 535 815 535 815 564.5 853 c 128,-1,12
 594 891 594 891 618.5 929 c 128,-1,13
 643 967 643 967 659.5 1007 c 128,-1,14
 676 1047 676 1047 676 1098 c 256,15,16
 676 1149 676 1149 653.5 1186 c 128,-1,17
 631 1223 631 1223 595 1241.5 c 128,-1,18
 559 1260 559 1260 513 1260 c 128,-1,19
 467 1260 467 1260 422 1237 c 1,20,21
 483 1219 483 1219 518 1178 c 128,-1,22
 553 1137 553 1137 553 1061 c 0,23,24
 553 1026 553 1026 537.5 993.5 c 128,-1,25
 522 961 522 961 492.5 934 c 128,-1,26
 463 907 463 907 418 892 c 128,-1,27
 373 877 373 877 315 877 c 0,28,29
 272 877 272 877 227 888 c 128,-1,30
 182 899 182 899 145.5 927.5 c 128,-1,31
 109 956 109 956 85 1004.5 c 128,-1,32
 61 1053 61 1053 61 1124 c 0,33,34
 61 1212 61 1212 105.5 1281 c 128,-1,35
 150 1350 150 1350 228.5 1397 c 128,-1,36
 307 1444 307 1444 416.5 1468.5 c 128,-1,37
 526 1493 526 1493 657 1493 c 0,38,39
 942 1493 942 1493 1083.5 1391.5 c 128,-1,40
 1225 1290 1225 1290 1225 1104 c 0,0,1
342 211 m 0,41,42
 342 262 342 262 362.5 309 c 128,-1,43
 383 356 383 356 417 390 c 128,-1,44
 451 424 451 424 497 444.5 c 128,-1,45
 543 465 543 465 596 465 c 0,46,47
 647 465 647 465 694 444.5 c 128,-1,48
 741 424 741 424 775 390 c 128,-1,49
 809 356 809 356 829.5 309 c 128,-1,50
 850 262 850 262 850 211 c 0,51,52
 850 158 850 158 829.5 112 c 128,-1,53
 809 66 809 66 775 32 c 128,-1,54
 741 -2 741 -2 694 -22.5 c 128,-1,55
 647 -43 647 -43 596 -43 c 0,56,57
 543 -43 543 -43 497 -22.5 c 128,-1,58
 451 -2 451 -2 417 32 c 128,-1,59
 383 66 383 66 362.5 112 c 128,-1,60
 342 158 342 158 342 211 c 0,41,42
EndSplineSet
EndChar

StartChar: at
Encoding: 64 64 35
Width: 1923
Flags: W
LayerCount: 2
Fore
SplineSet
1313 188 m 0,0,1
 1229 188 1229 188 1170.5 221 c 128,-1,2
 1112 254 1112 254 1083 313 c 1,3,4
 1032 252 1032 252 967.5 221 c 128,-1,5
 903 190 903 190 834 190 c 0,6,7
 676 190 676 190 588 286.5 c 128,-1,8
 500 383 500 383 500 549 c 0,9,10
 500 659 500 659 544 759.5 c 128,-1,11
 588 860 588 860 660.5 937 c 128,-1,12
 733 1014 733 1014 826.5 1059 c 128,-1,13
 920 1104 920 1104 1020 1104 c 0,14,15
 1157 1104 1157 1104 1221 1022 c 1,16,-1
 1237 1083 l 1,17,-1
 1530 1083 l 1,18,-1
 1354 453 l 1,19,20
 1350 434 1350 434 1346.5 418.5 c 128,-1,21
 1343 403 1343 403 1343 387 c 0,22,23
 1343 365 1343 365 1354.5 349.5 c 128,-1,24
 1366 334 1366 334 1395 334 c 0,25,26
 1450 334 1450 334 1499 378 c 128,-1,27
 1548 422 1548 422 1586 492.5 c 128,-1,28
 1624 563 1624 563 1646.5 651 c 128,-1,29
 1669 739 1669 739 1669 829 c 0,30,31
 1669 956 1669 956 1625 1056.5 c 128,-1,32
 1581 1157 1581 1157 1504 1225.5 c 128,-1,33
 1427 1294 1427 1294 1322 1331 c 128,-1,34
 1217 1368 1217 1368 1092 1368 c 0,35,36
 922 1368 922 1368 781.5 1307.5 c 128,-1,37
 641 1247 641 1247 538.5 1140.5 c 128,-1,38
 436 1034 436 1034 380 892 c 128,-1,39
 324 750 324 750 324 588 c 0,40,41
 324 436 324 436 372 320.5 c 128,-1,42
 420 205 420 205 510 125 c 128,-1,43
 600 45 600 45 728 4 c 128,-1,44
 856 -37 856 -37 1016 -37 c 0,45,46
 1087 -37 1087 -37 1158 -28.5 c 128,-1,47
 1229 -20 1229 -20 1302.5 2.5 c 128,-1,48
 1376 25 1376 25 1455 64.5 c 128,-1,49
 1534 104 1534 104 1620 168 c 1,50,-1
 1696 55 l 1,51,52
 1378 -184 1378 -184 1018 -184 c 0,53,54
 811 -184 811 -184 643 -129 c 128,-1,55
 475 -74 475 -74 354 29.5 c 128,-1,56
 233 133 233 133 167.5 280.5 c 128,-1,57
 102 428 102 428 102 612 c 0,58,59
 102 803 102 803 179 968 c 128,-1,60
 256 1133 256 1133 388 1254.5 c 128,-1,61
 520 1376 520 1376 696 1444.5 c 128,-1,62
 872 1513 872 1513 1069 1513 c 0,63,64
 1235 1513 1235 1513 1373 1464 c 128,-1,65
 1511 1415 1511 1415 1610.5 1325 c 128,-1,66
 1710 1235 1710 1235 1765.5 1110 c 128,-1,67
 1821 985 1821 985 1821 831 c 0,68,69
 1821 698 1821 698 1783 581.5 c 128,-1,70
 1745 465 1745 465 1677.5 377 c 128,-1,71
 1610 289 1610 289 1516.5 238.5 c 128,-1,72
 1423 188 1423 188 1313 188 c 0,0,1
1069 946 m 0,73,74
 1018 946 1018 946 973 888.5 c 128,-1,75
 928 831 928 831 894 751.5 c 128,-1,76
 860 672 860 672 840.5 586 c 128,-1,77
 821 500 821 500 821 442 c 0,78,79
 821 350 821 350 887 350 c 0,80,81
 932 350 932 350 975 411.5 c 128,-1,82
 1018 473 1018 473 1051.5 558 c 128,-1,83
 1085 643 1085 643 1104.5 733 c 128,-1,84
 1124 823 1124 823 1124 883 c 0,85,86
 1124 913 1124 913 1108 929.5 c 128,-1,87
 1092 946 1092 946 1069 946 c 0,73,74
EndSplineSet
EndChar

StartChar: A
Encoding: 65 65 36
Width: 1647
Flags: W
LayerCount: 2
Fore
SplineSet
838 514 m 1,0,-1
 522 514 l 1,1,-1
 508 471 l 1,2,3
 492 428 492 428 510 399.5 c 128,-1,4
 528 371 528 371 586 371 c 2,5,-1
 643 371 l 1,6,-1
 643 0 l 1,7,-1
 20 0 l 1,8,-1
 20 371 l 1,9,-1
 61 371 l 2,10,11
 133 371 133 371 157.5 399.5 c 128,-1,12
 182 428 182 428 205 483 c 2,13,-1
 410 989 l 1,14,15
 432 1047 432 1047 417.5 1074.5 c 128,-1,16
 403 1102 403 1102 330 1102 c 2,17,-1
 309 1102 l 1,18,-1
 309 1473 l 1,19,-1
 1337 1473 l 1,20,-1
 1337 1102 l 1,21,-1
 1317 1102 l 2,22,23
 1243 1102 1243 1102 1228.5 1073 c 128,-1,24
 1214 1044 1214 1044 1237 989 c 2,25,-1
 1442 483 l 2,26,27
 1454 455 1454 455 1463.5 434.5 c 128,-1,28
 1473 414 1473 414 1487 399.5 c 128,-1,29
 1501 385 1501 385 1524.5 378 c 128,-1,30
 1548 371 1548 371 1585 371 c 2,31,-1
 1626 371 l 1,32,-1
 1626 0 l 1,33,-1
 717 0 l 1,34,-1
 717 371 l 1,35,-1
 772 371 l 2,36,37
 829 371 829 371 848.5 399.5 c 128,-1,38
 868 428 868 428 852 471 c 1,39,-1
 838 514 l 1,0,-1
573 670 m 1,40,-1
 786 670 l 1,41,-1
 686 977 l 1,42,-1
 678 977 l 1,43,-1
 573 670 l 1,40,-1
EndSplineSet
EndChar

StartChar: B
Encoding: 66 66 37
Width: 1722
Flags: W
LayerCount: 2
Fore
SplineSet
1640 1106 m 0,0,1
 1640 786 1640 786 1307 756 c 1,2,-1
 1307 745 l 1,3,4
 1481 741 1481 741 1581 650 c 128,-1,5
 1681 559 1681 559 1681 387 c 0,6,7
 1681 315 1681 315 1664 245.5 c 128,-1,8
 1647 176 1647 176 1590.5 122 c 128,-1,9
 1534 68 1534 68 1427.5 34 c 128,-1,10
 1321 0 1321 0 1141 0 c 2,11,-1
 41 0 l 1,12,-1
 41 371 l 1,13,14
 129 371 129 371 167 394.5 c 128,-1,15
 205 418 205 418 205 483 c 2,16,-1
 205 989 l 2,17,18
 205 1055 205 1055 167 1078.5 c 128,-1,19
 129 1102 129 1102 41 1102 c 1,20,-1
 41 1473 l 1,21,-1
 1210 1473 l 2,22,23
 1348 1473 1348 1473 1433 1442 c 128,-1,24
 1518 1411 1518 1411 1564 1360 c 128,-1,25
 1610 1309 1610 1309 1625 1242.5 c 128,-1,26
 1640 1176 1640 1176 1640 1106 c 0,0,1
944 371 m 2,27,28
 1028 371 1028 371 1060 403.5 c 128,-1,29
 1092 436 1092 436 1092 512 c 256,30,31
 1092 588 1092 588 1060 622.5 c 128,-1,32
 1028 657 1028 657 944 657 c 2,33,-1
 795 657 l 1,34,-1
 795 371 l 1,35,-1
 944 371 l 2,27,28
795 834 m 1,36,-1
 946 834 l 2,37,38
 1008 834 1008 834 1035.5 873.5 c 128,-1,39
 1063 913 1063 913 1063 969 c 0,40,41
 1063 1022 1063 1022 1035.5 1062 c 128,-1,42
 1008 1102 1008 1102 946 1102 c 2,43,-1
 795 1102 l 1,44,-1
 795 834 l 1,36,-1
EndSplineSet
EndChar

StartChar: C
Encoding: 67 67 38
Width: 1616
Flags: W
LayerCount: 2
Fore
SplineSet
799 1513 m 0,0,1
 866 1513 866 1513 924.5 1502 c 128,-1,2
 983 1491 983 1491 1031 1473.5 c 128,-1,3
 1079 1456 1079 1456 1114 1436.5 c 128,-1,4
 1149 1417 1149 1417 1171 1401 c 1,5,-1
 1171 1473 l 1,6,-1
 1501 1473 l 1,7,-1
 1501 928 l 1,8,-1
 1151 928 l 1,9,10
 1151 995 1151 995 1134.5 1040 c 128,-1,11
 1118 1085 1118 1085 1090.5 1113 c 128,-1,12
 1063 1141 1063 1141 1026 1153 c 128,-1,13
 989 1165 989 1165 946 1165 c 0,14,15
 887 1165 887 1165 845 1142.5 c 128,-1,16
 803 1120 803 1120 776.5 1070 c 128,-1,17
 750 1020 750 1020 736.5 937 c 128,-1,18
 723 854 723 854 723 735 c 0,19,20
 723 614 723 614 737.5 532.5 c 128,-1,21
 752 451 752 451 781.5 400.5 c 128,-1,22
 811 350 811 350 857 327.5 c 128,-1,23
 903 305 903 305 967 305 c 0,24,25
 1010 305 1010 305 1050 321.5 c 128,-1,26
 1090 338 1090 338 1120.5 372 c 128,-1,27
 1151 406 1151 406 1168.5 457 c 128,-1,28
 1186 508 1186 508 1186 580 c 1,29,-1
 1534 580 l 1,30,31
 1534 453 1534 453 1494 340 c 128,-1,32
 1454 227 1454 227 1369 142 c 128,-1,33
 1284 57 1284 57 1153 7 c 128,-1,34
 1022 -43 1022 -43 842 -43 c 0,35,36
 680 -43 680 -43 535.5 1 c 128,-1,37
 391 45 391 45 283.5 139 c 128,-1,38
 176 233 176 233 113.5 380.5 c 128,-1,39
 51 528 51 528 51 735 c 256,40,41
 51 942 51 942 114.5 1089.5 c 128,-1,42
 178 1237 178 1237 282.5 1331 c 128,-1,43
 387 1425 387 1425 521 1469 c 128,-1,44
 655 1513 655 1513 799 1513 c 0,0,1
EndSplineSet
EndChar

StartChar: D
Encoding: 68 68 39
Width: 1901
Flags: W
LayerCount: 2
Fore
SplineSet
889 371 m 2,0,1
 944 371 944 371 996.5 383 c 128,-1,2
 1049 395 1049 395 1088.5 433 c 128,-1,3
 1128 471 1128 471 1153 542.5 c 128,-1,4
 1178 614 1178 614 1178 735 c 0,5,6
 1178 854 1178 854 1154 926.5 c 128,-1,7
 1130 999 1130 999 1091.5 1038 c 128,-1,8
 1053 1077 1053 1077 999.5 1089.5 c 128,-1,9
 946 1102 946 1102 889 1102 c 2,10,-1
 795 1102 l 1,11,-1
 795 371 l 1,12,-1
 889 371 l 2,0,1
41 0 m 1,13,-1
 41 371 l 1,14,15
 129 371 129 371 167 394.5 c 128,-1,16
 205 418 205 418 205 483 c 2,17,-1
 205 989 l 2,18,19
 205 1055 205 1055 167 1078.5 c 128,-1,20
 129 1102 129 1102 41 1102 c 1,21,-1
 41 1473 l 1,22,-1
 1102 1473 l 2,23,24
 1245 1473 1245 1473 1379 1435 c 128,-1,25
 1513 1397 1513 1397 1617.5 1311 c 128,-1,26
 1722 1225 1722 1225 1785.5 1083.5 c 128,-1,27
 1849 942 1849 942 1849 735 c 256,28,29
 1849 528 1849 528 1786.5 387 c 128,-1,30
 1724 246 1724 246 1616.5 160 c 128,-1,31
 1509 74 1509 74 1365 36 c 128,-1,32
 1221 -2 1221 -2 1059 -2 c 2,33,-1
 41 0 l 1,13,-1
EndSplineSet
EndChar

StartChar: E
Encoding: 69 69 40
Width: 1507
Flags: W
LayerCount: 2
Fore
SplineSet
975 371 m 2,0,1
 1016 371 1016 371 1043.5 378 c 128,-1,2
 1071 385 1071 385 1087.5 404.5 c 128,-1,3
 1104 424 1104 424 1110 458 c 128,-1,4
 1116 492 1116 492 1116 545 c 1,5,-1
 1466 545 l 1,6,-1
 1466 0 l 1,7,-1
 41 0 l 1,8,-1
 41 371 l 1,9,10
 129 371 129 371 167 394.5 c 128,-1,11
 205 418 205 418 205 483 c 2,12,-1
 205 989 l 2,13,14
 205 1055 205 1055 167 1078.5 c 128,-1,15
 129 1102 129 1102 41 1102 c 1,16,-1
 41 1473 l 1,17,-1
 1466 1473 l 1,18,-1
 1466 928 l 1,19,-1
 1116 928 l 1,20,21
 1116 981 1116 981 1110 1015 c 128,-1,22
 1104 1049 1104 1049 1087.5 1068 c 128,-1,23
 1071 1087 1071 1087 1043.5 1094.5 c 128,-1,24
 1016 1102 1016 1102 975 1102 c 2,25,-1
 795 1102 l 1,26,-1
 795 836 l 1,27,-1
 1114 836 l 1,28,-1
 1114 659 l 1,29,-1
 795 659 l 1,30,-1
 795 371 l 1,31,-1
 975 371 l 2,0,1
EndSplineSet
EndChar

StartChar: F
Encoding: 70 70 41
Width: 1507
Flags: W
LayerCount: 2
Fore
SplineSet
41 0 m 1,0,-1
 41 371 l 1,1,2
 129 371 129 371 167 394.5 c 128,-1,3
 205 418 205 418 205 483 c 2,4,-1
 205 989 l 2,5,6
 205 1055 205 1055 167 1078.5 c 128,-1,7
 129 1102 129 1102 41 1102 c 1,8,-1
 41 1473 l 1,9,-1
 1425 1473 l 1,10,-1
 1425 907 l 1,11,-1
 1075 907 l 1,12,13
 1075 969 1075 969 1069 1006.5 c 128,-1,14
 1063 1044 1063 1044 1046.5 1065.5 c 128,-1,15
 1030 1087 1030 1087 1002.5 1094.5 c 128,-1,16
 975 1102 975 1102 934 1102 c 2,17,-1
 795 1102 l 1,18,-1
 795 813 l 1,19,-1
 1114 813 l 1,20,-1
 1114 637 l 1,21,-1
 795 637 l 1,22,-1
 795 483 l 2,23,24
 795 430 795 430 821.5 400.5 c 128,-1,25
 848 371 848 371 918 371 c 2,26,-1
 1020 371 l 1,27,-1
 1020 0 l 1,28,-1
 41 0 l 1,0,-1
EndSplineSet
EndChar

StartChar: G
Encoding: 71 71 42
Width: 1794
Flags: W
LayerCount: 2
Fore
SplineSet
1282 0 m 1,0,-1
 1249 100 l 1,1,2
 1186 43 1186 43 1075.5 0 c 128,-1,3
 965 -43 965 -43 821 -43 c 0,4,5
 659 -43 659 -43 515 1 c 128,-1,6
 371 45 371 45 263.5 139 c 128,-1,7
 156 233 156 233 93.5 380.5 c 128,-1,8
 31 528 31 528 31 735 c 256,9,10
 31 942 31 942 97.5 1089.5 c 128,-1,11
 164 1237 164 1237 272.5 1331 c 128,-1,12
 381 1425 381 1425 518 1469 c 128,-1,13
 655 1513 655 1513 799 1513 c 0,14,15
 883 1513 883 1513 950.5 1500 c 128,-1,16
 1018 1487 1018 1487 1069 1467.5 c 128,-1,17
 1120 1448 1120 1448 1155 1426.5 c 128,-1,18
 1190 1405 1190 1405 1212 1391 c 1,19,-1
 1212 1473 l 1,20,-1
 1542 1473 l 1,21,-1
 1542 928 l 1,22,-1
 1192 928 l 1,23,24
 1188 1034 1188 1034 1128.5 1099.5 c 128,-1,25
 1069 1165 1069 1165 963 1165 c 0,26,27
 909 1165 909 1165 862 1145.5 c 128,-1,28
 815 1126 815 1126 779 1077 c 128,-1,29
 743 1028 743 1028 722.5 945 c 128,-1,30
 702 862 702 862 702 735 c 0,31,32
 702 614 702 614 715.5 532.5 c 128,-1,33
 729 451 729 451 757.5 400.5 c 128,-1,34
 786 350 786 350 830 327.5 c 128,-1,35
 874 305 874 305 936 305 c 0,36,37
 950 305 950 305 971.5 308 c 128,-1,38
 993 311 993 311 1012.5 318.5 c 128,-1,39
 1032 326 1032 326 1046.5 338 c 128,-1,40
 1061 350 1061 350 1061 371 c 2,41,-1
 1061 426 l 2,42,43
 1061 473 1061 473 1029 497.5 c 128,-1,44
 997 522 997 522 909 522 c 1,45,-1
 909 852 l 1,46,-1
 1753 852 l 1,47,-1
 1753 522 l 1,48,49
 1665 522 1665 522 1627 498.5 c 128,-1,50
 1589 475 1589 475 1589 410 c 2,51,-1
 1589 0 l 1,52,-1
 1282 0 l 1,0,-1
EndSplineSet
EndChar

StartChar: H
Encoding: 72 72 43
Width: 1933
Flags: W
LayerCount: 2
Fore
SplineSet
1139 657 m 1,0,-1
 795 657 l 1,1,-1
 795 471 l 2,2,3
 795 418 795 418 824.5 394.5 c 128,-1,4
 854 371 854 371 930 371 c 1,5,-1
 930 0 l 1,6,-1
 41 0 l 1,7,-1
 41 371 l 1,8,9
 129 371 129 371 167 394.5 c 128,-1,10
 205 418 205 418 205 483 c 2,11,-1
 205 989 l 2,12,13
 205 1055 205 1055 167 1078.5 c 128,-1,14
 129 1102 129 1102 41 1102 c 1,15,-1
 41 1473 l 1,16,-1
 930 1473 l 1,17,-1
 930 1102 l 1,18,19
 854 1102 854 1102 824.5 1078.5 c 128,-1,20
 795 1055 795 1055 795 1001 c 2,21,-1
 795 840 l 1,22,-1
 1139 840 l 1,23,-1
 1139 1001 l 2,24,25
 1139 1055 1139 1055 1109 1078.5 c 128,-1,26
 1079 1102 1079 1102 1004 1102 c 1,27,-1
 1004 1473 l 1,28,-1
 1892 1473 l 1,29,-1
 1892 1102 l 1,30,31
 1804 1102 1804 1102 1766.5 1078.5 c 128,-1,32
 1729 1055 1729 1055 1729 989 c 2,33,-1
 1729 483 l 2,34,35
 1729 418 1729 418 1766.5 394.5 c 128,-1,36
 1804 371 1804 371 1892 371 c 1,37,-1
 1892 0 l 1,38,-1
 1004 0 l 1,39,-1
 1004 371 l 1,40,41
 1079 371 1079 371 1109 394.5 c 128,-1,42
 1139 418 1139 418 1139 471 c 2,43,-1
 1139 657 l 1,0,-1
EndSplineSet
EndChar

StartChar: I
Encoding: 73 73 44
Width: 999
Flags: W
LayerCount: 2
Fore
SplineSet
41 0 m 1,0,-1
 41 371 l 1,1,2
 129 371 129 371 167 394.5 c 128,-1,3
 205 418 205 418 205 483 c 2,4,-1
 205 989 l 2,5,6
 205 1055 205 1055 167 1078.5 c 128,-1,7
 129 1102 129 1102 41 1102 c 1,8,-1
 41 1473 l 1,9,-1
 958 1473 l 1,10,-1
 958 1102 l 1,11,12
 870 1102 870 1102 832.5 1078.5 c 128,-1,13
 795 1055 795 1055 795 989 c 2,14,-1
 795 483 l 2,15,16
 795 418 795 418 832.5 394.5 c 128,-1,17
 870 371 870 371 958 371 c 1,18,-1
 958 0 l 1,19,-1
 41 0 l 1,0,-1
EndSplineSet
EndChar

StartChar: J
Encoding: 74 74 45
Width: 1509
Flags: W
LayerCount: 2
Fore
SplineSet
199 481 m 1,0,1
 201 440 201 440 214 401 c 128,-1,2
 227 362 227 362 255 332.5 c 128,-1,3
 283 303 283 303 329 285.5 c 128,-1,4
 375 268 375 268 444 268 c 0,5,6
 524 268 524 268 576.5 289.5 c 128,-1,7
 629 311 629 311 659.5 347 c 128,-1,8
 690 383 690 383 702.5 429 c 128,-1,9
 715 475 715 475 715 524 c 2,10,-1
 715 1001 l 2,11,12
 715 1055 715 1055 680 1078.5 c 128,-1,13
 645 1102 645 1102 539 1102 c 1,14,-1
 539 1473 l 1,15,-1
 1468 1473 l 1,16,-1
 1468 1102 l 1,17,18
 1380 1102 1380 1102 1342.5 1078.5 c 128,-1,19
 1305 1055 1305 1055 1305 989 c 2,20,-1
 1305 526 l 2,21,22
 1305 440 1305 440 1278 340 c 128,-1,23
 1251 240 1251 240 1179.5 156 c 128,-1,24
 1108 72 1108 72 983 15.5 c 128,-1,25
 858 -41 858 -41 662 -41 c 0,26,27
 477 -41 477 -41 359.5 10 c 128,-1,28
 242 61 242 61 176.5 136 c 128,-1,29
 111 211 111 211 86 294 c 128,-1,30
 61 377 61 377 61 438 c 0,31,32
 61 526 61 526 87 594 c 128,-1,33
 113 662 113 662 154 707 c 128,-1,34
 195 752 195 752 249 774.5 c 128,-1,35
 303 797 303 797 362 797 c 0,36,37
 432 797 432 797 481 776.5 c 128,-1,38
 530 756 530 756 562 722 c 128,-1,39
 594 688 594 688 608.5 645 c 128,-1,40
 623 602 623 602 623 557 c 0,41,42
 623 508 623 508 606.5 467 c 128,-1,43
 590 426 590 426 562.5 396.5 c 128,-1,44
 535 367 535 367 496 349.5 c 128,-1,45
 457 332 457 332 414 332 c 0,46,47
 362 332 362 332 326.5 345 c 128,-1,48
 291 358 291 358 266.5 379.5 c 128,-1,49
 242 401 242 401 225.5 428 c 128,-1,50
 209 455 209 455 199 481 c 1,0,1
EndSplineSet
EndChar

StartChar: K
Encoding: 75 75 46
Width: 1892
Flags: W
LayerCount: 2
Fore
SplineSet
795 858 m 1,0,-1
 993 981 l 1,1,2
 1030 1001 1030 1001 1041.5 1022.5 c 128,-1,3
 1053 1044 1053 1044 1047.5 1061.5 c 128,-1,4
 1042 1079 1042 1079 1021.5 1090.5 c 128,-1,5
 1001 1102 1001 1102 975 1102 c 1,6,-1
 975 1473 l 1,7,-1
 1782 1473 l 1,8,-1
 1782 1102 l 1,9,10
 1718 1102 1718 1102 1670 1088.5 c 128,-1,11
 1622 1075 1622 1075 1563 1040 c 2,12,-1
 1356 918 l 1,13,-1
 1692 483 l 1,14,15
 1710 457 1710 457 1727.5 436.5 c 128,-1,16
 1745 416 1745 416 1765.5 401.5 c 128,-1,17
 1786 387 1786 387 1813.5 379 c 128,-1,18
 1841 371 1841 371 1882 371 c 1,19,-1
 1882 0 l 1,20,-1
 975 0 l 1,21,-1
 975 371 l 1,22,23
 1018 371 1018 371 1037.5 383 c 128,-1,24
 1057 395 1057 395 1062 412.5 c 128,-1,25
 1067 430 1067 430 1061 446.5 c 128,-1,26
 1055 463 1055 463 1049 471 c 2,27,-1
 905 651 l 1,28,-1
 795 584 l 1,29,-1
 795 471 l 2,30,31
 795 444 795 444 797 426 c 128,-1,32
 799 408 799 408 810 395.5 c 128,-1,33
 821 383 821 383 842.5 377 c 128,-1,34
 864 371 864 371 901 371 c 1,35,-1
 901 0 l 1,36,-1
 41 0 l 1,37,-1
 41 371 l 1,38,39
 129 371 129 371 167 394.5 c 128,-1,40
 205 418 205 418 205 483 c 2,41,-1
 205 989 l 2,42,43
 205 1055 205 1055 167 1078.5 c 128,-1,44
 129 1102 129 1102 41 1102 c 1,45,-1
 41 1473 l 1,46,-1
 901 1473 l 1,47,-1
 901 1102 l 1,48,49
 864 1102 864 1102 842.5 1096 c 128,-1,50
 821 1090 821 1090 810 1077.5 c 128,-1,51
 799 1065 799 1065 797 1046.5 c 128,-1,52
 795 1028 795 1028 795 1001 c 2,53,-1
 795 858 l 1,0,-1
EndSplineSet
EndChar

StartChar: L
Encoding: 76 76 47
Width: 1528
Flags: W
LayerCount: 2
Fore
SplineSet
958 1102 m 1,0,1
 870 1102 870 1102 832.5 1078.5 c 128,-1,2
 795 1055 795 1055 795 989 c 2,3,-1
 795 371 l 1,4,-1
 995 371 l 2,5,6
 1036 371 1036 371 1064 379 c 128,-1,7
 1092 387 1092 387 1108 412.5 c 128,-1,8
 1124 438 1124 438 1130.5 484 c 128,-1,9
 1137 530 1137 530 1137 606 c 1,10,-1
 1487 606 l 1,11,-1
 1487 0 l 1,12,-1
 41 0 l 1,13,-1
 41 371 l 1,14,15
 129 371 129 371 167 394.5 c 128,-1,16
 205 418 205 418 205 483 c 2,17,-1
 205 989 l 2,18,19
 205 1055 205 1055 167 1078.5 c 128,-1,20
 129 1102 129 1102 41 1102 c 1,21,-1
 41 1473 l 1,22,-1
 958 1473 l 1,23,-1
 958 1102 l 1,0,1
EndSplineSet
EndChar

StartChar: M
Encoding: 77 77 48
Width: 2404
Flags: W
LayerCount: 2
Fore
SplineSet
1477 0 m 1,0,-1
 1477 371 l 1,1,2
 1565 371 1565 371 1592.5 394.5 c 128,-1,3
 1620 418 1620 418 1620 483 c 2,4,-1
 1620 1057 l 1,5,-1
 1278 0 l 1,6,-1
 893 0 l 1,7,-1
 545 1001 l 1,8,-1
 545 471 l 2,9,10
 545 438 545 438 551 418.5 c 128,-1,11
 557 399 557 399 572.5 388 c 128,-1,12
 588 377 588 377 616.5 374 c 128,-1,13
 645 371 645 371 688 371 c 1,14,-1
 688 0 l 1,15,-1
 41 0 l 1,16,-1
 41 371 l 1,17,18
 129 371 129 371 167 394.5 c 128,-1,19
 205 418 205 418 205 483 c 2,20,-1
 205 989 l 2,21,22
 205 1055 205 1055 167 1078.5 c 128,-1,23
 129 1102 129 1102 41 1102 c 1,24,-1
 41 1473 l 1,25,-1
 993 1473 l 1,26,-1
 1223 782 l 1,27,-1
 1423 1473 l 1,28,-1
 2363 1473 l 1,29,-1
 2363 1102 l 1,30,31
 2275 1102 2275 1102 2237.5 1078.5 c 128,-1,32
 2200 1055 2200 1055 2200 989 c 2,33,-1
 2200 483 l 2,34,35
 2200 418 2200 418 2237.5 394.5 c 128,-1,36
 2275 371 2275 371 2363 371 c 1,37,-1
 2363 0 l 1,38,-1
 1477 0 l 1,0,-1
EndSplineSet
EndChar

StartChar: N
Encoding: 78 78 49
Width: 1851
Flags: W
LayerCount: 2
Fore
SplineSet
1831 1473 m 1,0,-1
 1831 1102 l 1,1,2
 1743 1102 1743 1102 1715.5 1073 c 128,-1,3
 1688 1044 1688 1044 1688 989 c 2,4,-1
 1688 0 l 1,5,-1
 1087 0 l 1,6,-1
 565 817 l 1,7,-1
 565 471 l 2,8,9
 565 406 565 406 603 388.5 c 128,-1,10
 641 371 641 371 729 371 c 1,11,-1
 729 0 l 1,12,-1
 41 0 l 1,13,-1
 41 371 l 1,14,15
 129 371 129 371 167 394.5 c 128,-1,16
 205 418 205 418 205 483 c 2,17,-1
 205 989 l 2,18,19
 205 1055 205 1055 167 1078.5 c 128,-1,20
 129 1102 129 1102 41 1102 c 1,21,-1
 41 1473 l 1,22,-1
 827 1473 l 1,23,-1
 1327 690 l 1,24,-1
 1327 989 l 2,25,26
 1327 1055 1327 1055 1299.5 1078.5 c 128,-1,27
 1272 1102 1272 1102 1184 1102 c 1,28,-1
 1184 1473 l 1,29,-1
 1831 1473 l 1,0,-1
EndSplineSet
EndChar

StartChar: O
Encoding: 79 79 50
Width: 1843
Flags: W
LayerCount: 2
Fore
SplineSet
51 735 m 0,0,1
 51 928 51 928 114.5 1073.5 c 128,-1,2
 178 1219 178 1219 294 1317 c 128,-1,3
 410 1415 410 1415 569.5 1464 c 128,-1,4
 729 1513 729 1513 922 1513 c 0,5,6
 1114 1513 1114 1513 1274 1464 c 128,-1,7
 1434 1415 1434 1415 1549.5 1317 c 128,-1,8
 1665 1219 1665 1219 1728.5 1073.5 c 128,-1,9
 1792 928 1792 928 1792 735 c 0,10,11
 1792 543 1792 543 1728.5 397.5 c 128,-1,12
 1665 252 1665 252 1549.5 153.5 c 128,-1,13
 1434 55 1434 55 1274 6 c 128,-1,14
 1114 -43 1114 -43 922 -43 c 0,15,16
 729 -43 729 -43 569.5 6 c 128,-1,17
 410 55 410 55 294 153.5 c 128,-1,18
 178 252 178 252 114.5 397.5 c 128,-1,19
 51 543 51 543 51 735 c 0,0,1
723 735 m 0,20,21
 723 614 723 614 732 532.5 c 128,-1,22
 741 451 741 451 763.5 400.5 c 128,-1,23
 786 350 786 350 824 327.5 c 128,-1,24
 862 305 862 305 922 305 c 0,25,26
 979 305 979 305 1018 327.5 c 128,-1,27
 1057 350 1057 350 1079.5 400.5 c 128,-1,28
 1102 451 1102 451 1111 532.5 c 128,-1,29
 1120 614 1120 614 1120 735 c 0,30,31
 1120 854 1120 854 1111 937 c 128,-1,32
 1102 1020 1102 1020 1079.5 1070 c 128,-1,33
 1057 1120 1057 1120 1018 1142.5 c 128,-1,34
 979 1165 979 1165 922 1165 c 0,35,36
 862 1165 862 1165 824 1142.5 c 128,-1,37
 786 1120 786 1120 763.5 1070 c 128,-1,38
 741 1020 741 1020 732 937 c 128,-1,39
 723 854 723 854 723 735 c 0,20,21
EndSplineSet
EndChar

StartChar: P
Encoding: 80 80 51
Width: 1661
Flags: W
LayerCount: 2
Fore
SplineSet
795 543 m 1,0,-1
 795 483 l 2,1,2
 795 430 795 430 821.5 400.5 c 128,-1,3
 848 371 848 371 918 371 c 2,4,-1
 1020 371 l 1,5,-1
 1020 0 l 1,6,-1
 41 0 l 1,7,-1
 41 371 l 1,8,9
 129 371 129 371 167 394.5 c 128,-1,10
 205 418 205 418 205 483 c 2,11,-1
 205 989 l 2,12,13
 205 1055 205 1055 167 1078.5 c 128,-1,14
 129 1102 129 1102 41 1102 c 1,15,-1
 41 1473 l 1,16,-1
 1120 1473 l 2,17,18
 1268 1473 1268 1473 1368 1438 c 128,-1,19
 1468 1403 1468 1403 1528.5 1340.5 c 128,-1,20
 1589 1278 1589 1278 1614.5 1189 c 128,-1,21
 1640 1100 1640 1100 1640 993 c 0,22,23
 1640 885 1640 885 1614.5 802 c 128,-1,24
 1589 719 1589 719 1528.5 660.5 c 128,-1,25
 1468 602 1468 602 1368 572.5 c 128,-1,26
 1268 543 1268 543 1120 543 c 2,27,-1
 795 543 l 1,0,-1
795 780 m 1,28,-1
 903 780 l 2,29,30
 987 780 987 780 1019 824 c 128,-1,31
 1051 868 1051 868 1051 940 c 0,32,33
 1051 1008 1051 1008 1019 1055 c 128,-1,34
 987 1102 987 1102 903 1102 c 2,35,-1
 795 1102 l 1,36,-1
 795 780 l 1,28,-1
EndSplineSet
EndChar

StartChar: Q
Encoding: 81 81 52
Width: 1882
Flags: W
LayerCount: 2
Fore
SplineSet
51 735 m 0,0,1
 51 928 51 928 114.5 1073.5 c 128,-1,2
 178 1219 178 1219 294 1317 c 128,-1,3
 410 1415 410 1415 569.5 1464 c 128,-1,4
 729 1513 729 1513 922 1513 c 0,5,6
 1114 1513 1114 1513 1274 1464 c 128,-1,7
 1434 1415 1434 1415 1549.5 1317 c 128,-1,8
 1665 1219 1665 1219 1728.5 1073.5 c 128,-1,9
 1792 928 1792 928 1792 735 c 0,10,11
 1792 549 1792 549 1727.5 397.5 c 128,-1,12
 1663 246 1663 246 1528 135 c 1,13,14
 1544 115 1544 115 1573 99.5 c 128,-1,15
 1602 84 1602 84 1636 84 c 0,16,17
 1688 84 1688 84 1715.5 106.5 c 128,-1,18
 1743 129 1743 129 1756 162 c 128,-1,19
 1769 195 1769 195 1772.5 232.5 c 128,-1,20
 1776 270 1776 270 1778 299 c 1,21,-1
 1872 299 l 1,22,23
 1872 37 1872 37 1794 -90 c 128,-1,24
 1716 -217 1716 -217 1550 -217 c 0,25,26
 1436 -217 1436 -217 1361 -161.5 c 128,-1,27
 1286 -106 1286 -106 1233 -4 c 1,28,29
 1153 -23 1153 -23 1086.5 -33 c 128,-1,30
 1020 -43 1020 -43 922 -43 c 0,31,32
 729 -43 729 -43 569.5 6 c 128,-1,33
 410 55 410 55 294 153.5 c 128,-1,34
 178 252 178 252 114.5 397.5 c 128,-1,35
 51 543 51 543 51 735 c 0,0,1
723 735 m 0,36,37
 723 668 723 668 725 613.5 c 128,-1,38
 727 559 727 559 733 514 c 1,39,40
 764 543 764 543 812 566.5 c 128,-1,41
 860 590 860 590 928 590 c 0,42,43
 979 590 979 590 1025 577.5 c 128,-1,44
 1071 565 1071 565 1112 545 c 1,45,46
 1116 586 1116 586 1118 633 c 128,-1,47
 1120 680 1120 680 1120 735 c 0,48,49
 1120 854 1120 854 1111 937 c 128,-1,50
 1102 1020 1102 1020 1079.5 1070 c 128,-1,51
 1057 1120 1057 1120 1018 1142.5 c 128,-1,52
 979 1165 979 1165 922 1165 c 0,53,54
 862 1165 862 1165 824 1142.5 c 128,-1,55
 786 1120 786 1120 763.5 1070 c 128,-1,56
 741 1020 741 1020 732 937 c 128,-1,57
 723 854 723 854 723 735 c 0,36,37
922 305 m 0,58,59
 1024 305 1024 305 1067 375 c 1,60,61
 1036 422 1036 422 988 450.5 c 128,-1,62
 940 479 940 479 891 479 c 0,63,64
 831 479 831 479 807.5 451.5 c 128,-1,65
 784 424 784 424 784 397 c 0,66,67
 784 350 784 350 826 327.5 c 128,-1,68
 868 305 868 305 922 305 c 0,58,59
EndSplineSet
EndChar

StartChar: R
Encoding: 82 82 53
Width: 1792
Flags: W
LayerCount: 2
Fore
SplineSet
41 0 m 1,0,-1
 41 371 l 1,1,2
 129 371 129 371 167 394.5 c 128,-1,3
 205 418 205 418 205 483 c 2,4,-1
 205 989 l 2,5,6
 205 1055 205 1055 167 1078.5 c 128,-1,7
 129 1102 129 1102 41 1102 c 1,8,-1
 41 1473 l 1,9,-1
 1100 1473 l 2,10,11
 1247 1473 1247 1473 1347.5 1444 c 128,-1,12
 1448 1415 1448 1415 1508.5 1361 c 128,-1,13
 1569 1307 1569 1307 1594.5 1232 c 128,-1,14
 1620 1157 1620 1157 1620 1065 c 0,15,16
 1620 897 1620 897 1539 796.5 c 128,-1,17
 1458 696 1458 696 1280 688 c 1,18,-1
 1280 676 l 1,19,20
 1366 670 1366 670 1422.5 644 c 128,-1,21
 1479 618 1479 618 1511.5 576.5 c 128,-1,22
 1544 535 1544 535 1557.5 476.5 c 128,-1,23
 1571 418 1571 418 1571 344 c 2,24,-1
 1571 291 l 2,25,26
 1571 266 1571 266 1584 247.5 c 128,-1,27
 1597 229 1597 229 1624 229 c 0,28,29
 1653 229 1653 229 1665 247.5 c 128,-1,30
 1677 266 1677 266 1677 291 c 2,31,-1
 1677 545 l 1,32,-1
 1792 545 l 1,33,-1
 1792 291 l 2,34,35
 1792 219 1792 219 1770.5 158.5 c 128,-1,36
 1749 98 1749 98 1700 53 c 128,-1,37
 1651 8 1651 8 1571 -16.5 c 128,-1,38
 1491 -41 1491 -41 1374 -41 c 256,39,40
 1257 -41 1257 -41 1182.5 -15.5 c 128,-1,41
 1108 10 1108 10 1066 55 c 128,-1,42
 1024 100 1024 100 1007.5 159.5 c 128,-1,43
 991 219 991 219 991 285 c 2,44,-1
 991 362 l 2,45,46
 991 442 991 442 982 491.5 c 128,-1,47
 973 541 973 541 952.5 568.5 c 128,-1,48
 932 596 932 596 899 605 c 128,-1,49
 866 614 866 614 819 614 c 2,50,-1
 795 614 l 1,51,-1
 795 471 l 2,52,53
 795 418 795 418 824.5 394.5 c 128,-1,54
 854 371 854 371 930 371 c 1,55,-1
 930 0 l 1,56,-1
 41 0 l 1,0,-1
795 791 m 1,57,-1
 883 791 l 2,58,59
 967 791 967 791 998.5 831.5 c 128,-1,60
 1030 872 1030 872 1030 944 c 0,61,62
 1030 1028 1030 1028 998.5 1065 c 128,-1,63
 967 1102 967 1102 883 1102 c 2,64,-1
 795 1102 l 1,65,-1
 795 791 l 1,57,-1
EndSplineSet
EndChar

StartChar: S
Encoding: 83 83 54
Width: 1503
Flags: W
LayerCount: 2
Fore
SplineSet
1405 938 m 1,0,-1
 1075 938 l 1,1,2
 1067 989 1067 989 1039.5 1033 c 128,-1,3
 1012 1077 1012 1077 972 1109 c 128,-1,4
 932 1141 932 1141 883 1158.5 c 128,-1,5
 834 1176 834 1176 782 1176 c 0,6,7
 719 1176 719 1176 680 1152 c 128,-1,8
 641 1128 641 1128 641 1085 c 0,9,10
 641 1044 641 1044 676 1018.5 c 128,-1,11
 711 993 711 993 768 974.5 c 128,-1,12
 825 956 825 956 898 939 c 128,-1,13
 971 922 971 922 1046.5 897 c 128,-1,14
 1122 872 1122 872 1195 836.5 c 128,-1,15
 1268 801 1268 801 1325 745.5 c 128,-1,16
 1382 690 1382 690 1417 610 c 128,-1,17
 1452 530 1452 530 1452 418 c 0,18,19
 1452 299 1452 299 1401 215 c 128,-1,20
 1350 131 1350 131 1264 77 c 128,-1,21
 1178 23 1178 23 1066 -2 c 128,-1,22
 954 -27 954 -27 834 -27 c 0,23,24
 717 -27 717 -27 610.5 0 c 128,-1,25
 504 27 504 27 393 88 c 1,26,-1
 393 0 l 1,27,-1
 63 0 l 1,28,-1
 63 545 l 1,29,-1
 393 545 l 1,30,31
 422 428 422 428 509 360.5 c 128,-1,32
 596 293 596 293 705 293 c 0,33,34
 778 293 778 293 814 320.5 c 128,-1,35
 850 348 850 348 850 383 c 0,36,37
 850 438 850 438 790.5 468 c 128,-1,38
 731 498 731 498 643 521.5 c 128,-1,39
 555 545 555 545 450.5 574.5 c 128,-1,40
 346 604 346 604 258 659.5 c 128,-1,41
 170 715 170 715 110.5 806 c 128,-1,42
 51 897 51 897 51 1044 c 0,43,44
 51 1153 51 1153 98 1237 c 128,-1,45
 145 1321 145 1321 224 1378.5 c 128,-1,46
 303 1436 303 1436 406.5 1465.5 c 128,-1,47
 510 1495 510 1495 625 1495 c 0,48,49
 784 1495 784 1495 898 1458 c 128,-1,50
 1012 1421 1012 1421 1075 1380 c 1,51,-1
 1075 1473 l 1,52,-1
 1405 1473 l 1,53,-1
 1405 938 l 1,0,-1
EndSplineSet
EndChar

StartChar: T
Encoding: 84 84 55
Width: 1655
Flags: W
LayerCount: 2
Fore
SplineSet
1634 1473 m 1,0,-1
 1634 887 l 1,1,-1
 1305 887 l 1,2,3
 1305 954 1305 954 1301.5 1003.5 c 128,-1,4
 1298 1053 1298 1053 1286 1083.5 c 128,-1,5
 1274 1114 1274 1114 1249.5 1128.5 c 128,-1,6
 1225 1143 1225 1143 1184 1143 c 2,7,-1
 1122 1143 l 1,8,-1
 1122 483 l 2,9,10
 1122 418 1122 418 1160 394.5 c 128,-1,11
 1198 371 1198 371 1286 371 c 1,12,-1
 1286 0 l 1,13,-1
 369 0 l 1,14,-1
 369 371 l 1,15,16
 457 371 457 371 494.5 394.5 c 128,-1,17
 532 418 532 418 532 483 c 2,18,-1
 532 1143 l 1,19,-1
 471 1143 l 2,20,21
 430 1143 430 1143 405.5 1128.5 c 128,-1,22
 381 1114 381 1114 368.5 1083.5 c 128,-1,23
 356 1053 356 1053 353 1003.5 c 128,-1,24
 350 954 350 954 350 887 c 1,25,-1
 20 887 l 1,26,-1
 20 1473 l 1,27,-1
 1634 1473 l 1,0,-1
EndSplineSet
EndChar

StartChar: U
Encoding: 85 85 56
Width: 1710
Flags: W
LayerCount: 2
Fore
SplineSet
930 1473 m 1,0,-1
 930 1102 l 1,1,2
 854 1102 854 1102 824.5 1078.5 c 128,-1,3
 795 1055 795 1055 795 1001 c 2,4,-1
 795 539 l 2,5,6
 795 502 795 502 803 468 c 128,-1,7
 811 434 811 434 830.5 407.5 c 128,-1,8
 850 381 850 381 882.5 365.5 c 128,-1,9
 915 350 915 350 965 350 c 0,10,11
 1061 350 1061 350 1105 400.5 c 128,-1,12
 1149 451 1149 451 1149 537 c 2,13,-1
 1149 997 l 2,14,15
 1149 1059 1149 1059 1112 1080.5 c 128,-1,16
 1075 1102 1075 1102 1010 1102 c 1,17,-1
 1010 1473 l 1,18,-1
 1669 1473 l 1,19,-1
 1669 1102 l 1,20,21
 1602 1102 1602 1102 1566 1082.5 c 128,-1,22
 1530 1063 1530 1063 1530 1001 c 2,23,-1
 1530 524 l 2,24,25
 1530 432 1530 432 1506.5 332.5 c 128,-1,26
 1483 233 1483 233 1414.5 150.5 c 128,-1,27
 1346 68 1346 68 1219 13.5 c 128,-1,28
 1092 -41 1092 -41 883 -41 c 0,29,30
 731 -41 731 -41 621.5 -13.5 c 128,-1,31
 512 14 512 14 436 59 c 128,-1,32
 360 104 360 104 315 161.5 c 128,-1,33
 270 219 270 219 245.5 280.5 c 128,-1,34
 221 342 221 342 213 400.5 c 128,-1,35
 205 459 205 459 205 508 c 2,36,-1
 205 989 l 2,37,38
 205 1055 205 1055 167 1078.5 c 128,-1,39
 129 1102 129 1102 41 1102 c 1,40,-1
 41 1473 l 1,41,-1
 930 1473 l 1,0,-1
EndSplineSet
EndChar

StartChar: V
Encoding: 86 86 57
Width: 1544
Flags: W
LayerCount: 2
Fore
SplineSet
164 989 m 2,0,1
 152 1020 152 1020 141.5 1040.5 c 128,-1,2
 131 1061 131 1061 113.5 1075.5 c 128,-1,3
 96 1090 96 1090 69.5 1096 c 128,-1,4
 43 1102 43 1102 0 1102 c 1,5,-1
 0 1473 l 1,6,-1
 868 1473 l 1,7,-1
 868 1102 l 1,8,9
 719 1102 719 1102 754 1001 c 1,10,-1
 909 516 l 1,11,-1
 918 516 l 1,12,-1
 1077 1001 l 1,13,14
 1112 1102 1112 1102 963 1102 c 1,15,-1
 963 1473 l 1,16,-1
 1544 1473 l 1,17,-1
 1544 1102 l 1,18,19
 1501 1102 1501 1102 1474.5 1096 c 128,-1,20
 1448 1090 1448 1090 1430.5 1075.5 c 128,-1,21
 1413 1061 1413 1061 1403 1040.5 c 128,-1,22
 1393 1020 1393 1020 1380 989 c 2,23,-1
 993 0 l 1,24,-1
 549 0 l 1,25,-1
 164 989 l 2,0,1
EndSplineSet
EndChar

StartChar: W
Encoding: 87 87 58
Width: 2398
Flags: W
LayerCount: 2
Fore
SplineSet
1204 535 m 1,0,-1
 1014 0 l 1,1,-1
 569 0 l 1,2,-1
 184 989 l 2,3,4
 172 1020 172 1020 162 1040.5 c 128,-1,5
 152 1061 152 1061 134.5 1075.5 c 128,-1,6
 117 1090 117 1090 90 1096 c 128,-1,7
 63 1102 63 1102 20 1102 c 1,8,-1
 20 1473 l 1,9,-1
 856 1473 l 1,10,-1
 856 1102 l 1,11,12
 803 1102 803 1102 780.5 1076.5 c 128,-1,13
 758 1051 758 1051 774 1001 c 2,14,-1
 920 516 l 1,15,-1
 928 516 l 1,16,-1
 1059 930 l 1,17,-1
 1038 989 l 2,18,19
 1016 1049 1016 1049 996.5 1075.5 c 128,-1,20
 977 1102 977 1102 930 1102 c 1,21,-1
 930 1473 l 1,22,-1
 1722 1473 l 1,23,-1
 1722 1102 l 1,24,25
 1647 1102 1647 1102 1629.5 1076.5 c 128,-1,26
 1612 1051 1612 1051 1628 1001 c 1,27,-1
 1753 516 l 1,28,-1
 1761 516 l 1,29,-1
 1911 1001 l 2,30,31
 1942 1102 1942 1102 1796 1102 c 1,32,-1
 1796 1473 l 1,33,-1
 2378 1473 l 1,34,-1
 2378 1102 l 1,35,36
 2335 1102 2335 1102 2307 1096 c 128,-1,37
 2279 1090 2279 1090 2263 1076.5 c 128,-1,38
 2247 1063 2247 1063 2236.5 1041.5 c 128,-1,39
 2226 1020 2226 1020 2214 989 c 2,40,-1
 1847 0 l 1,41,-1
 1403 0 l 1,42,-1
 1204 535 l 1,0,-1
EndSplineSet
EndChar

StartChar: X
Encoding: 88 88 59
Width: 1569
Flags: W
LayerCount: 2
Fore
SplineSet
901 913 m 1,0,-1
 991 1001 l 2,1,2
 1010 1020 1010 1020 1022 1038.5 c 128,-1,3
 1034 1057 1034 1057 1031 1070 c 128,-1,4
 1028 1083 1028 1083 1006.5 1092.5 c 128,-1,5
 985 1102 985 1102 938 1102 c 1,6,-1
 938 1473 l 1,7,-1
 1520 1473 l 1,8,-1
 1520 1102 l 1,9,10
 1456 1102 1456 1102 1405 1076.5 c 128,-1,11
 1354 1051 1354 1051 1294 989 c 1,12,-1
 1061 754 l 1,13,-1
 1333 483 l 1,14,15
 1380 438 1380 438 1432.5 404.5 c 128,-1,16
 1485 371 1485 371 1538 371 c 1,17,-1
 1538 0 l 1,18,-1
 700 0 l 1,19,-1
 700 371 l 1,20,21
 743 371 743 371 764.5 380 c 128,-1,22
 786 389 786 389 789.5 402.5 c 128,-1,23
 793 416 793 416 782.5 434.5 c 128,-1,24
 772 453 772 453 754 471 c 2,25,-1
 657 565 l 1,26,-1
 559 471 l 2,27,28
 541 453 541 453 528.5 434.5 c 128,-1,29
 516 416 516 416 519 402.5 c 128,-1,30
 522 389 522 389 543.5 380 c 128,-1,31
 565 371 565 371 612 371 c 1,32,-1
 612 0 l 1,33,-1
 31 0 l 1,34,-1
 31 371 l 1,35,36
 94 371 94 371 145.5 396.5 c 128,-1,37
 197 422 197 422 256 483 c 2,38,-1
 496 727 l 1,39,-1
 233 989 l 1,40,41
 186 1034 186 1034 139 1068 c 128,-1,42
 92 1102 92 1102 39 1102 c 1,43,-1
 39 1473 l 1,44,-1
 856 1473 l 1,45,-1
 856 1102 l 1,46,47
 813 1102 813 1102 793.5 1092.5 c 128,-1,48
 774 1083 774 1083 772 1070 c 128,-1,49
 770 1057 770 1057 782.5 1038.5 c 128,-1,50
 795 1020 795 1020 813 1001 c 2,51,-1
 901 913 l 1,0,-1
EndSplineSet
EndChar

StartChar: Y
Encoding: 89 89 60
Width: 1575
Flags: W
LayerCount: 2
Fore
SplineSet
205 989 m 1,0,1
 182 1012 182 1012 166 1032.5 c 128,-1,2
 150 1053 150 1053 131.5 1068 c 128,-1,3
 113 1083 113 1083 87 1092.5 c 128,-1,4
 61 1102 61 1102 20 1102 c 1,5,-1
 20 1473 l 1,6,-1
 899 1473 l 1,7,-1
 899 1102 l 1,8,9
 811 1102 811 1102 782.5 1073 c 128,-1,10
 754 1044 754 1044 784 1001 c 2,11,-1
 922 809 l 1,12,-1
 930 809 l 1,13,-1
 1067 1001 l 1,14,15
 1102 1040 1102 1040 1074.5 1071 c 128,-1,16
 1047 1102 1047 1102 952 1102 c 1,17,-1
 952 1473 l 1,18,-1
 1554 1473 l 1,19,-1
 1554 1102 l 1,20,21
 1524 1102 1524 1102 1501.5 1096 c 128,-1,22
 1479 1090 1479 1090 1459.5 1076.5 c 128,-1,23
 1440 1063 1440 1063 1419.5 1041.5 c 128,-1,24
 1399 1020 1399 1020 1370 989 c 1,25,-1
 1083 637 l 1,26,-1
 1083 483 l 2,27,28
 1083 418 1083 418 1121 394.5 c 128,-1,29
 1159 371 1159 371 1247 371 c 1,30,-1
 1247 0 l 1,31,-1
 330 0 l 1,32,-1
 330 371 l 1,33,34
 418 371 418 371 456 394.5 c 128,-1,35
 494 418 494 418 494 483 c 2,36,-1
 494 637 l 1,37,-1
 205 989 l 1,0,1
EndSplineSet
EndChar

StartChar: Z
Encoding: 90 90 61
Width: 1491
Flags: W
LayerCount: 2
Fore
SplineSet
979 330 m 2,0,1
 1020 330 1020 330 1044.5 344 c 128,-1,2
 1069 358 1069 358 1081.5 389 c 128,-1,3
 1094 420 1094 420 1097 469 c 128,-1,4
 1100 518 1100 518 1100 586 c 1,5,-1
 1450 586 l 1,6,-1
 1450 0 l 1,7,-1
 41 0 l 1,8,-1
 41 330 l 1,9,-1
 737 1143 l 1,10,-1
 537 1143 l 2,11,12
 496 1143 496 1143 471 1128.5 c 128,-1,13
 446 1114 446 1114 434 1083.5 c 128,-1,14
 422 1053 422 1053 419 1003.5 c 128,-1,15
 416 954 416 954 416 887 c 1,16,-1
 66 887 l 1,17,-1
 66 1473 l 1,18,-1
 1450 1473 l 1,19,-1
 1450 1143 l 1,20,-1
 754 330 l 1,21,-1
 979 330 l 2,0,1
EndSplineSet
EndChar

StartChar: bracketleft
Encoding: 91 91 62
Width: 936
Flags: W
LayerCount: 2
Fore
SplineSet
123 -266 m 1,0,-1
 123 1473 l 1,1,-1
 834 1473 l 1,2,-1
 834 1190 l 1,3,-1
 651 1190 l 1,4,-1
 651 16 l 1,5,-1
 834 16 l 1,6,-1
 834 -266 l 1,7,-1
 123 -266 l 1,0,-1
EndSplineSet
EndChar

StartChar: backslash
Encoding: 92 92 63
Width: 922
Flags: W
LayerCount: 2
Fore
SplineSet
819 0 m 1,0,-1
 530 0 l 1,1,-1
 102 1473 l 1,2,-1
 391 1473 l 1,3,-1
 819 0 l 1,0,-1
EndSplineSet
EndChar

StartChar: bracketright
Encoding: 93 93 64
Width: 936
Flags: W
LayerCount: 2
Fore
SplineSet
102 -266 m 1,0,-1
 102 16 l 1,1,-1
 285 16 l 1,2,-1
 285 1190 l 1,3,-1
 102 1190 l 1,4,-1
 102 1473 l 1,5,-1
 813 1473 l 1,6,-1
 813 -266 l 1,7,-1
 102 -266 l 1,0,-1
EndSplineSet
EndChar

StartChar: asciicircum
Encoding: 94 94 65
Width: 1434
Flags: W
LayerCount: 2
Fore
SplineSet
1311 860 m 1,0,-1
 967 860 l 1,1,-1
 717 1151 l 1,2,-1
 465 860 l 1,3,-1
 123 860 l 1,4,-1
 496 1473 l 1,5,-1
 940 1473 l 1,6,-1
 1311 860 l 1,0,-1
EndSplineSet
EndChar

StartChar: underscore
Encoding: 95 95 66
Width: 1229
Flags: W
LayerCount: 2
Fore
SplineSet
1229 -102 m 1,0,-1
 1229 -428 l 1,1,-1
 0 -428 l 1,2,-1
 0 -102 l 1,3,-1
 1229 -102 l 1,0,-1
EndSplineSet
EndChar

StartChar: grave
Encoding: 96 96 67
Width: 1024
Flags: W
LayerCount: 2
Fore
SplineSet
438 1548 m 1,0,-1
 647 1239 l 1,1,-1
 401 1239 l 1,2,-1
 35 1548 l 1,3,-1
 438 1548 l 1,0,-1
EndSplineSet
EndChar

StartChar: a
Encoding: 97 97 68
Width: 1530
Flags: W
LayerCount: 2
Fore
SplineSet
575 963 m 0,0,1
 524 963 524 963 487.5 955.5 c 128,-1,2
 451 948 451 948 425 938 c 128,-1,3
 399 928 399 928 382 915.5 c 128,-1,4
 365 903 365 903 352 893 c 1,5,-1
 362 883 l 1,6,7
 381 893 381 893 403.5 903 c 128,-1,8
 426 913 426 913 461 913 c 0,9,10
 520 913 520 913 563 874.5 c 128,-1,11
 606 836 606 836 606 752 c 0,12,13
 606 672 606 672 540.5 623.5 c 128,-1,14
 475 575 475 575 365 575 c 0,15,16
 260 575 260 575 197.5 635.5 c 128,-1,17
 135 696 135 696 135 807 c 0,18,19
 135 868 135 868 169 928.5 c 128,-1,20
 203 989 203 989 274.5 1037 c 128,-1,21
 346 1085 346 1085 456.5 1116 c 128,-1,22
 567 1147 567 1147 723 1147 c 0,23,24
 909 1147 909 1147 1027 1112 c 128,-1,25
 1145 1077 1145 1077 1210.5 1022 c 128,-1,26
 1276 967 1276 967 1300.5 897 c 128,-1,27
 1325 827 1325 827 1325 756 c 2,28,-1
 1325 365 l 2,29,30
 1325 274 1325 274 1331 241.5 c 128,-1,31
 1337 209 1337 209 1376 209 c 0,32,33
 1407 209 1407 209 1419.5 238.5 c 128,-1,34
 1432 268 1432 268 1432 340 c 2,35,-1
 1432 465 l 1,36,-1
 1546 465 l 1,37,-1
 1546 338 l 2,38,39
 1546 248 1546 248 1531 178.5 c 128,-1,40
 1516 109 1516 109 1474 59.5 c 128,-1,41
 1432 10 1432 10 1360 -15.5 c 128,-1,42
 1288 -41 1288 -41 1176 -41 c 0,43,44
 1075 -41 1075 -41 1008.5 -19.5 c 128,-1,45
 942 2 942 2 903 34 c 128,-1,46
 864 66 864 66 847.5 100.5 c 128,-1,47
 831 135 831 135 831 162 c 1,48,-1
 815 162 l 1,49,50
 809 121 809 121 780.5 84 c 128,-1,51
 752 47 752 47 701.5 18.5 c 128,-1,52
 651 -10 651 -10 580.5 -27.5 c 128,-1,53
 510 -45 510 -45 420 -45 c 0,54,55
 334 -45 334 -45 263.5 -28.5 c 128,-1,56
 193 -12 193 -12 143.5 23.5 c 128,-1,57
 94 59 94 59 66.5 115.5 c 128,-1,58
 39 172 39 172 39 250 c 0,59,60
 39 346 39 346 93 401.5 c 128,-1,61
 147 457 147 457 229 489.5 c 128,-1,62
 311 522 311 522 407.5 542.5 c 128,-1,63
 504 563 504 563 586 592 c 128,-1,64
 668 621 668 621 722 667 c 128,-1,65
 776 713 776 713 776 797 c 0,66,67
 776 872 776 872 729 917.5 c 128,-1,68
 682 963 682 963 575 963 c 0,0,1
776 530 m 1,69,70
 754 498 754 498 721 478.5 c 128,-1,71
 688 459 688 459 657.5 440.5 c 128,-1,72
 627 422 627 422 604.5 396.5 c 128,-1,73
 582 371 582 371 582 328 c 0,74,75
 582 295 582 295 600 268.5 c 128,-1,76
 618 242 618 242 670 242 c 0,77,78
 717 242 717 242 746.5 278.5 c 128,-1,79
 776 315 776 315 776 381 c 2,80,-1
 776 530 l 1,69,70
EndSplineSet
EndChar

StartChar: b
Encoding: 98 98 69
Width: 1636
Flags: W
LayerCount: 2
Fore
SplineSet
723 326 m 1,0,1
 739 299 739 299 785 283.5 c 128,-1,2
 831 268 831 268 870 268 c 0,3,4
 915 268 915 268 943 290.5 c 128,-1,5
 971 313 971 313 987.5 351 c 128,-1,6
 1004 389 1004 389 1010 439 c 128,-1,7
 1016 489 1016 489 1016 543 c 0,8,9
 1016 596 1016 596 1010 644 c 128,-1,10
 1004 692 1004 692 987.5 728 c 128,-1,11
 971 764 971 764 942 784.5 c 128,-1,12
 913 805 913 805 868 805 c 256,13,14
 823 805 823 805 795.5 784.5 c 128,-1,15
 768 764 768 764 751.5 728 c 128,-1,16
 735 692 735 692 729 644 c 128,-1,17
 723 596 723 596 723 543 c 2,18,-1
 723 326 l 1,0,1
1098 1137 m 0,19,20
 1327 1137 1327 1137 1456 988.5 c 128,-1,21
 1585 840 1585 840 1585 553 c 256,22,23
 1585 266 1585 266 1450 116.5 c 128,-1,24
 1315 -33 1315 -33 1079 -33 c 0,25,26
 995 -33 995 -33 931.5 -17.5 c 128,-1,27
 868 -2 868 -2 818 22.5 c 128,-1,28
 768 47 768 47 727 79 c 128,-1,29
 686 111 686 111 647 143 c 1,30,-1
 633 143 l 1,31,-1
 598 0 l 1,32,-1
 174 0 l 1,33,-1
 174 989 l 2,34,35
 174 1047 174 1047 137 1074.5 c 128,-1,36
 100 1102 100 1102 53 1102 c 2,37,-1
 31 1102 l 1,38,-1
 31 1473 l 1,39,-1
 723 1473 l 1,40,-1
 723 1092 l 1,41,-1
 723 909 l 1,42,-1
 739 909 l 1,43,44
 754 952 754 952 780.5 993 c 128,-1,45
 807 1034 807 1034 850 1066 c 128,-1,46
 893 1098 893 1098 954.5 1117.5 c 128,-1,47
 1016 1137 1016 1137 1098 1137 c 0,19,20
EndSplineSet
EndChar

StartChar: c
Encoding: 99 99 70
Width: 1339
Flags: W
LayerCount: 2
Fore
SplineSet
788 877 m 0,0,1
 702 877 702 877 656 804 c 128,-1,2
 610 731 610 731 610 561 c 256,3,4
 610 391 610 391 657.5 319.5 c 128,-1,5
 705 248 705 248 803 248 c 0,6,7
 831 248 831 248 860 257 c 128,-1,8
 889 266 889 266 912.5 283.5 c 128,-1,9
 936 301 936 301 951.5 328.5 c 128,-1,10
 967 356 967 356 969 393 c 1,11,-1
 1292 393 l 1,12,13
 1260 170 1260 170 1112.5 63.5 c 128,-1,14
 965 -43 965 -43 692 -43 c 0,15,16
 555 -43 555 -43 436 -7 c 128,-1,17
 317 29 317 29 229 102.5 c 128,-1,18
 141 176 141 176 91 287.5 c 128,-1,19
 41 399 41 399 41 553 c 0,20,21
 41 700 41 700 91 811 c 128,-1,22
 141 922 141 922 231.5 996.5 c 128,-1,23
 322 1071 322 1071 445.5 1109 c 128,-1,24
 569 1147 569 1147 717 1147 c 0,25,26
 874 1147 874 1147 982 1108 c 128,-1,27
 1090 1069 1090 1069 1156.5 1010.5 c 128,-1,28
 1223 952 1223 952 1251.5 884.5 c 128,-1,29
 1280 817 1280 817 1280 758 c 0,30,31
 1280 711 1280 711 1266.5 666 c 128,-1,32
 1253 621 1253 621 1222.5 584 c 128,-1,33
 1192 547 1192 547 1145 524.5 c 128,-1,34
 1098 502 1098 502 1030 502 c 0,35,36
 965 502 965 502 924 520.5 c 128,-1,37
 883 539 883 539 860.5 566.5 c 128,-1,38
 838 594 838 594 828.5 624.5 c 128,-1,39
 819 655 819 655 819 682 c 0,40,41
 819 743 819 743 848 779 c 128,-1,42
 877 815 877 815 915 829 c 1,43,44
 893 846 893 846 870.5 861.5 c 128,-1,45
 848 877 848 877 788 877 c 0,0,1
EndSplineSet
EndChar

StartChar: d
Encoding: 100 100 71
Width: 1634
Flags: W
LayerCount: 2
Fore
SplineSet
1440 1473 m 1,0,-1
 1440 453 l 2,1,2
 1440 412 1440 412 1462.5 391.5 c 128,-1,3
 1485 371 1485 371 1526 371 c 2,4,-1
 1583 371 l 1,5,-1
 1583 0 l 1,6,-1
 911 0 l 1,7,-1
 911 182 l 1,8,-1
 895 182 l 1,9,10
 879 139 879 139 848 100 c 128,-1,11
 817 61 817 61 772 31.5 c 128,-1,12
 727 2 727 2 665.5 -15.5 c 128,-1,13
 604 -33 604 -33 526 -33 c 0,14,15
 281 -33 281 -33 155 115.5 c 128,-1,16
 29 264 29 264 29 551 c 256,17,18
 29 838 29 838 164 977 c 128,-1,19
 299 1116 299 1116 535 1116 c 0,20,21
 598 1116 598 1116 648 1106 c 128,-1,22
 698 1096 698 1096 739 1080.5 c 128,-1,23
 780 1065 780 1065 817 1045.5 c 128,-1,24
 854 1026 854 1026 891 1008 c 1,25,-1
 891 1044 l 2,26,27
 891 1098 891 1098 872.5 1120.5 c 128,-1,28
 854 1143 854 1143 801 1143 c 2,29,-1
 748 1143 l 1,30,-1
 748 1473 l 1,31,-1
 1440 1473 l 1,0,-1
598 541 m 0,32,33
 598 487 598 487 604 439 c 128,-1,34
 610 391 610 391 626.5 355 c 128,-1,35
 643 319 643 319 670.5 299 c 128,-1,36
 698 279 698 279 743 279 c 256,37,38
 788 279 788 279 817 298 c 128,-1,39
 846 317 846 317 862.5 351 c 128,-1,40
 879 385 879 385 885 432 c 128,-1,41
 891 479 891 479 891 532 c 2,42,-1
 891 758 l 1,43,44
 866 782 866 782 824 798.5 c 128,-1,45
 782 815 782 815 743 815 c 0,46,47
 698 815 698 815 670.5 792.5 c 128,-1,48
 643 770 643 770 626.5 732 c 128,-1,49
 610 694 610 694 604 644 c 128,-1,50
 598 594 598 594 598 541 c 0,32,33
EndSplineSet
EndChar

StartChar: e
Encoding: 101 101 72
Width: 1446
Flags: W
LayerCount: 2
Fore
SplineSet
612 489 m 1,0,1
 616 340 616 340 668.5 283.5 c 128,-1,2
 721 227 721 227 819 227 c 0,3,4
 852 227 852 227 883.5 236.5 c 128,-1,5
 915 246 915 246 942 267.5 c 128,-1,6
 969 289 969 289 988.5 324.5 c 128,-1,7
 1008 360 1008 360 1014 414 c 1,8,-1
 1378 414 l 1,9,10
 1358 285 1358 285 1304.5 198 c 128,-1,11
 1251 111 1251 111 1167 57.5 c 128,-1,12
 1083 4 1083 4 971.5 -19.5 c 128,-1,13
 860 -43 860 -43 723 -43 c 0,14,15
 582 -43 582 -43 458 -7 c 128,-1,16
 334 29 334 29 240.5 102.5 c 128,-1,17
 147 176 147 176 94 287.5 c 128,-1,18
 41 399 41 399 41 553 c 0,19,20
 41 700 41 700 91 811 c 128,-1,21
 141 922 141 922 231.5 996.5 c 128,-1,22
 322 1071 322 1071 445.5 1109 c 128,-1,23
 569 1147 569 1147 717 1147 c 0,24,25
 899 1147 899 1147 1030 1099 c 128,-1,26
 1161 1051 1161 1051 1244 965 c 128,-1,27
 1327 879 1327 879 1366 758 c 128,-1,28
 1405 637 1405 637 1403 489 c 1,29,-1
 612 489 l 1,0,1
760 877 m 0,30,31
 690 877 690 877 656.5 827.5 c 128,-1,32
 623 778 623 778 612 664 c 1,33,-1
 905 664 l 1,34,35
 899 762 899 762 863 819.5 c 128,-1,36
 827 877 827 877 760 877 c 0,30,31
EndSplineSet
EndChar

StartChar: f
Encoding: 102 102 73
Width: 1087
Flags: W
LayerCount: 2
Fore
SplineSet
203 1102 m 1,0,1
 186 1110 186 1110 166.5 1125.5 c 128,-1,2
 147 1141 147 1141 131 1164.5 c 128,-1,3
 115 1188 115 1188 103.5 1218.5 c 128,-1,4
 92 1249 92 1249 92 1288 c 0,5,6
 92 1358 92 1358 132 1409 c 128,-1,7
 172 1460 172 1460 243.5 1493 c 128,-1,8
 315 1526 315 1526 415.5 1541 c 128,-1,9
 516 1556 516 1556 639 1556 c 0,10,11
 782 1556 782 1556 879.5 1539 c 128,-1,12
 977 1522 977 1522 1037.5 1490 c 128,-1,13
 1098 1458 1098 1458 1123.5 1413 c 128,-1,14
 1149 1368 1149 1368 1149 1313 c 0,15,16
 1149 1280 1149 1280 1138.5 1249.5 c 128,-1,17
 1128 1219 1128 1219 1103.5 1194 c 128,-1,18
 1079 1169 1079 1169 1039 1154 c 128,-1,19
 999 1139 999 1139 942 1139 c 0,20,21
 838 1139 838 1139 788.5 1188 c 128,-1,22
 739 1237 739 1237 739 1309 c 0,23,24
 739 1350 739 1350 761.5 1377.5 c 128,-1,25
 784 1405 784 1405 811 1415 c 1,26,-1
 799 1423 l 1,27,28
 745 1423 745 1423 711.5 1409 c 128,-1,29
 678 1395 678 1395 659.5 1375.5 c 128,-1,30
 641 1356 641 1356 635 1331.5 c 128,-1,31
 629 1307 629 1307 629 1284 c 0,32,33
 629 1251 629 1251 642 1218.5 c 128,-1,34
 655 1186 655 1186 686 1160.5 c 128,-1,35
 717 1135 717 1135 768 1118.5 c 128,-1,36
 819 1102 819 1102 895 1102 c 2,37,-1
 1006 1102 l 1,38,-1
 1006 731 l 1,39,-1
 780 731 l 1,40,-1
 780 479 l 2,41,42
 780 412 780 412 813 391.5 c 128,-1,43
 846 371 846 371 897 371 c 2,44,-1
 965 371 l 1,45,-1
 965 0 l 1,46,-1
 82 0 l 1,47,-1
 82 371 l 1,48,-1
 121 371 l 2,49,50
 174 371 174 371 199.5 404.5 c 128,-1,51
 225 438 225 438 225 477 c 2,52,-1
 225 731 l 1,53,-1
 41 731 l 1,54,-1
 41 1102 l 1,55,-1
 203 1102 l 1,0,1
EndSplineSet
EndChar

StartChar: g
Encoding: 103 103 74
Width: 1591
Flags: W
LayerCount: 2
Fore
SplineSet
1509 -182 m 0,0,1
 1509 -352 1509 -352 1313.5 -442 c 128,-1,2
 1118 -532 1118 -532 748 -532 c 0,3,4
 614 -532 614 -532 487 -528 c 128,-1,5
 360 -524 360 -524 262 -501.5 c 128,-1,6
 164 -479 164 -479 104.5 -430 c 128,-1,7
 45 -381 45 -381 45 -291 c 0,8,9
 45 -219 45 -219 91 -173 c 128,-1,10
 137 -127 137 -127 190 -100 c 1,11,12
 125 -61 125 -61 101.5 -13 c 128,-1,13
 78 35 78 35 78 92 c 0,14,15
 78 160 78 160 127 222.5 c 128,-1,16
 176 285 176 285 268 344 c 1,17,18
 178 403 178 403 130 488 c 128,-1,19
 82 573 82 573 82 690 c 0,20,21
 82 803 82 803 129 888 c 128,-1,22
 176 973 176 973 264 1030 c 128,-1,23
 352 1087 352 1087 474 1117 c 128,-1,24
 596 1147 596 1147 748 1147 c 0,25,26
 911 1147 911 1147 1042.5 1112 c 128,-1,27
 1174 1077 1174 1077 1266 1006 c 1,28,29
 1284 1030 1284 1030 1315 1053 c 1,30,31
 1341 1071 1341 1071 1381 1086.5 c 128,-1,32
 1421 1102 1421 1102 1479 1102 c 2,33,-1
 1571 1102 l 1,34,-1
 1571 731 l 1,35,-1
 1505 731 l 2,36,37
 1462 731 1462 731 1439.5 707.5 c 128,-1,38
 1417 684 1417 684 1413 662 c 0,39,40
 1378 451 1378 451 1209 340 c 128,-1,41
 1040 229 1040 229 748 229 c 0,42,43
 584 229 584 229 451 264 c 1,44,45
 430 250 430 250 430 229 c 0,46,47
 430 190 430 190 476 174 c 128,-1,48
 522 158 522 158 598 152.5 c 128,-1,49
 674 147 674 147 771 148.5 c 128,-1,50
 868 150 868 150 969.5 145.5 c 128,-1,51
 1071 141 1071 141 1168.5 127 c 128,-1,52
 1266 113 1266 113 1341.5 77 c 128,-1,53
 1417 41 1417 41 1463 -21.5 c 128,-1,54
 1509 -84 1509 -84 1509 -182 c 0,0,1
608 690 m 0,55,56
 608 586 608 586 637 529.5 c 128,-1,57
 666 473 666 473 748 473 c 0,58,59
 831 473 831 473 860 529.5 c 128,-1,60
 889 586 889 586 889 690 c 0,61,62
 889 793 889 793 860 847 c 128,-1,63
 831 901 831 901 748 901 c 0,64,65
 666 901 666 901 637 847 c 128,-1,66
 608 793 608 793 608 690 c 0,55,56
793 -197 m 0,67,68
 686 -197 686 -197 599 -191.5 c 128,-1,69
 512 -186 512 -186 442 -176 c 1,70,71
 432 -193 432 -193 432 -211 c 0,72,73
 432 -283 432 -283 510 -305.5 c 128,-1,74
 588 -328 588 -328 715 -328 c 0,75,76
 885 -328 885 -328 963.5 -307.5 c 128,-1,77
 1042 -287 1042 -287 1042 -250 c 0,78,79
 1042 -231 1042 -231 1019.5 -221 c 128,-1,80
 997 -211 997 -211 960.5 -205 c 128,-1,81
 924 -199 924 -199 880 -198 c 128,-1,82
 836 -197 836 -197 793 -197 c 0,67,68
EndSplineSet
EndChar

StartChar: h
Encoding: 104 104 75
Width: 1716
Flags: W
LayerCount: 2
Fore
SplineSet
1128 1147 m 0,0,1
 1260 1147 1260 1147 1342.5 1108 c 128,-1,2
 1425 1069 1425 1069 1471.5 1009.5 c 128,-1,3
 1518 950 1518 950 1535 880.5 c 128,-1,4
 1552 811 1552 811 1552 750 c 2,5,-1
 1552 469 l 2,6,7
 1552 416 1552 416 1570.5 393.5 c 128,-1,8
 1589 371 1589 371 1642 371 c 2,9,-1
 1696 371 l 1,10,-1
 1696 0 l 1,11,-1
 1004 0 l 1,12,-1
 1004 639 l 2,13,14
 1004 678 1004 678 994.5 701.5 c 128,-1,15
 985 725 985 725 970.5 737.5 c 128,-1,16
 956 750 956 750 938 754 c 128,-1,17
 920 758 920 758 903 758 c 0,18,19
 838 758 838 758 806 720 c 128,-1,20
 774 682 774 682 774 612 c 2,21,-1
 774 469 l 2,22,23
 774 416 774 416 792.5 393.5 c 128,-1,24
 811 371 811 371 864 371 c 2,25,-1
 938 371 l 1,26,-1
 938 0 l 1,27,-1
 82 0 l 1,28,-1
 82 371 l 1,29,-1
 141 371 l 2,30,31
 182 371 182 371 203.5 397.5 c 128,-1,32
 225 424 225 424 225 461 c 2,33,-1
 223 989 l 2,34,35
 223 1047 223 1047 186.5 1074.5 c 128,-1,36
 150 1102 150 1102 102 1102 c 2,37,-1
 82 1102 l 1,38,-1
 82 1473 l 1,39,-1
 774 1473 l 1,40,-1
 774 1102 l 2,41,42
 774 1083 774 1083 762 1036 c 128,-1,43
 750 989 750 989 717 942 c 1,44,-1
 737 932 l 1,45,46
 791 1030 791 1030 882 1088.5 c 128,-1,47
 973 1147 973 1147 1128 1147 c 0,0,1
EndSplineSet
EndChar

StartChar: i
Encoding: 105 105 76
Width: 944
Flags: W
LayerCount: 2
Fore
SplineSet
780 1102 m 1,0,-1
 780 479 l 2,1,2
 780 412 780 412 813 391.5 c 128,-1,3
 846 371 846 371 897 371 c 2,4,-1
 924 371 l 1,5,-1
 924 0 l 1,6,-1
 82 0 l 1,7,-1
 82 371 l 1,8,-1
 121 371 l 2,9,10
 174 371 174 371 199.5 404.5 c 128,-1,11
 225 438 225 438 225 477 c 2,12,-1
 225 618 l 2,13,14
 225 676 225 676 188.5 703.5 c 128,-1,15
 152 731 152 731 104 731 c 2,16,-1
 82 731 l 1,17,-1
 82 1102 l 1,18,-1
 780 1102 l 1,0,-1
209 1348 m 0,19,20
 209 1434 209 1434 274.5 1495 c 128,-1,21
 340 1556 340 1556 461 1556 c 0,22,23
 584 1556 584 1556 650.5 1495 c 128,-1,24
 717 1434 717 1434 717 1348 c 0,25,26
 717 1260 717 1260 650.5 1199.5 c 128,-1,27
 584 1139 584 1139 461 1139 c 0,28,29
 340 1139 340 1139 274.5 1199.5 c 128,-1,30
 209 1260 209 1260 209 1348 c 0,19,20
EndSplineSet
EndChar

StartChar: j
Encoding: 106 106 77
Width: 862
Flags: W
LayerCount: 2
Fore
SplineSet
188 1348 m 0,0,1
 188 1434 188 1434 253.5 1495 c 128,-1,2
 319 1556 319 1556 440 1556 c 0,3,4
 563 1556 563 1556 629.5 1495 c 128,-1,5
 696 1434 696 1434 696 1348 c 0,6,7
 696 1260 696 1260 629.5 1199.5 c 128,-1,8
 563 1139 563 1139 440 1139 c 0,9,10
 319 1139 319 1139 253.5 1199.5 c 128,-1,11
 188 1260 188 1260 188 1348 c 0,0,1
205 618 m 2,12,13
 205 676 205 676 168 703.5 c 128,-1,14
 131 731 131 731 84 731 c 2,15,-1
 41 731 l 1,16,-1
 41 1102 l 1,17,-1
 760 1102 l 1,18,-1
 760 -29 l 2,19,20
 760 -170 760 -170 725 -268.5 c 128,-1,21
 690 -367 690 -367 620.5 -427 c 128,-1,22
 551 -487 551 -487 449.5 -514 c 128,-1,23
 348 -541 348 -541 213 -541 c 0,24,25
 90 -541 90 -541 5 -516.5 c 128,-1,26
 -80 -492 -80 -492 -133 -452 c 128,-1,27
 -186 -412 -186 -412 -209.5 -359.5 c 128,-1,28
 -233 -307 -233 -307 -233 -250 c 0,29,30
 -233 -164 -233 -164 -179 -102.5 c 128,-1,31
 -125 -41 -125 -41 -20 -41 c 0,32,33
 27 -41 27 -41 62.5 -57.5 c 128,-1,34
 98 -74 98 -74 121.5 -98.5 c 128,-1,35
 145 -123 145 -123 156.5 -153.5 c 128,-1,36
 168 -184 168 -184 168 -213 c 0,37,38
 168 -266 168 -266 151.5 -295 c 128,-1,39
 135 -324 135 -324 113 -346 c 1,40,-1
 127 -362 l 1,41,42
 176 -330 176 -330 190.5 -285 c 128,-1,43
 205 -240 205 -240 205 -186 c 2,44,-1
 205 618 l 2,12,13
EndSplineSet
EndChar

StartChar: k
Encoding: 107 107 78
Width: 1753
Flags: W
LayerCount: 2
Fore
SplineSet
780 1473 m 1,0,-1
 780 612 l 1,1,-1
 915 678 l 2,2,3
 950 694 950 694 960.5 705.5 c 128,-1,4
 971 717 971 717 971 727 c 0,5,6
 971 752 971 752 918 752 c 2,7,-1
 872 752 l 1,8,-1
 872 1102 l 1,9,-1
 1632 1102 l 1,10,-1
 1632 752 l 1,11,-1
 1571 752 l 2,12,13
 1516 752 1516 752 1458.5 745.5 c 128,-1,14
 1401 739 1401 739 1352 717 c 1,15,-1
 1307 694 l 1,16,-1
 1542 442 l 2,17,18
 1585 395 1585 395 1623 383 c 128,-1,19
 1661 371 1661 371 1733 371 c 1,20,-1
 1733 0 l 1,21,-1
 866 0 l 1,22,-1
 866 371 l 1,23,-1
 918 371 l 2,24,25
 954 371 954 371 966.5 381 c 128,-1,26
 979 391 979 391 979 408 c 0,27,28
 979 420 979 420 962.5 440.5 c 128,-1,29
 946 461 946 461 901 502 c 1,30,-1
 780 442 l 1,31,-1
 780 0 l 1,32,-1
 82 0 l 1,33,-1
 82 371 l 1,34,-1
 121 371 l 2,35,36
 174 371 174 371 199.5 404.5 c 128,-1,37
 225 438 225 438 225 477 c 2,38,-1
 225 989 l 2,39,40
 225 1047 225 1047 188.5 1074.5 c 128,-1,41
 152 1102 152 1102 104 1102 c 2,42,-1
 82 1102 l 1,43,-1
 82 1473 l 1,44,-1
 780 1473 l 1,0,-1
EndSplineSet
EndChar

StartChar: l
Encoding: 108 108 79
Width: 944
Flags: W
LayerCount: 2
Fore
SplineSet
780 1473 m 1,0,-1
 780 479 l 2,1,2
 780 412 780 412 813 391.5 c 128,-1,3
 846 371 846 371 897 371 c 2,4,-1
 924 371 l 1,5,-1
 924 0 l 1,6,-1
 82 0 l 1,7,-1
 82 371 l 1,8,-1
 121 371 l 2,9,10
 174 371 174 371 199.5 404.5 c 128,-1,11
 225 438 225 438 225 477 c 2,12,-1
 225 989 l 2,13,14
 225 1047 225 1047 188.5 1074.5 c 128,-1,15
 152 1102 152 1102 104 1102 c 2,16,-1
 82 1102 l 1,17,-1
 82 1473 l 1,18,-1
 780 1473 l 1,0,-1
EndSplineSet
EndChar

StartChar: m
Encoding: 109 109 80
Width: 2454
Flags: W
LayerCount: 2
Fore
SplineSet
1532 469 m 2,0,1
 1532 416 1532 416 1550.5 393.5 c 128,-1,2
 1569 371 1569 371 1622 371 c 2,3,-1
 1655 371 l 1,4,-1
 1655 0 l 1,5,-1
 983 0 l 1,6,-1
 983 639 l 2,7,8
 983 678 983 678 975 701.5 c 128,-1,9
 967 725 967 725 953.5 737.5 c 128,-1,10
 940 750 940 750 922.5 754 c 128,-1,11
 905 758 905 758 889 758 c 0,12,13
 823 758 823 758 798.5 720 c 128,-1,14
 774 682 774 682 774 612 c 2,15,-1
 774 469 l 2,16,17
 774 416 774 416 792.5 393.5 c 128,-1,18
 811 371 811 371 864 371 c 2,19,-1
 897 371 l 1,20,-1
 897 0 l 1,21,-1
 82 0 l 1,22,-1
 82 371 l 1,23,-1
 141 371 l 2,24,25
 182 371 182 371 203.5 397.5 c 128,-1,26
 225 424 225 424 225 461 c 2,27,-1
 225 651 l 2,28,29
 225 698 225 698 197.5 714.5 c 128,-1,30
 170 731 170 731 135 731 c 2,31,-1
 82 731 l 1,32,-1
 82 1102 l 1,33,-1
 676 1102 l 1,34,-1
 655 827 l 1,35,-1
 672 827 l 1,36,37
 694 981 694 981 796.5 1064 c 128,-1,38
 899 1147 899 1147 1094 1147 c 0,39,40
 1167 1147 1167 1147 1230.5 1127.5 c 128,-1,41
 1294 1108 1294 1108 1343.5 1068 c 128,-1,42
 1393 1028 1393 1028 1421.5 967.5 c 128,-1,43
 1450 907 1450 907 1454 827 c 1,44,-1
 1468 827 l 1,45,46
 1477 903 1477 903 1512.5 963.5 c 128,-1,47
 1548 1024 1548 1024 1602.5 1064 c 128,-1,48
 1657 1104 1657 1104 1722.5 1125.5 c 128,-1,49
 1788 1147 1788 1147 1860 1147 c 0,50,51
 1993 1147 1993 1147 2077 1108 c 128,-1,52
 2161 1069 2161 1069 2208 1009.5 c 128,-1,53
 2255 950 2255 950 2272.5 880.5 c 128,-1,54
 2290 811 2290 811 2290 750 c 2,55,-1
 2290 469 l 2,56,57
 2290 416 2290 416 2308.5 393.5 c 128,-1,58
 2327 371 2327 371 2380 371 c 2,59,-1
 2433 371 l 1,60,-1
 2433 0 l 1,61,-1
 1741 0 l 1,62,-1
 1741 639 l 2,63,64
 1741 678 1741 678 1732.5 701.5 c 128,-1,65
 1724 725 1724 725 1711 737.5 c 128,-1,66
 1698 750 1698 750 1680.5 754 c 128,-1,67
 1663 758 1663 758 1647 758 c 0,68,69
 1581 758 1581 758 1556.5 720 c 128,-1,70
 1532 682 1532 682 1532 612 c 2,71,-1
 1532 469 l 2,0,1
EndSplineSet
EndChar

StartChar: n
Encoding: 110 110 81
Width: 1716
Flags: W
LayerCount: 2
Fore
SplineSet
1004 639 m 2,0,1
 1004 678 1004 678 994.5 701.5 c 128,-1,2
 985 725 985 725 970.5 737.5 c 128,-1,3
 956 750 956 750 938 754 c 128,-1,4
 920 758 920 758 903 758 c 0,5,6
 838 758 838 758 806 720 c 128,-1,7
 774 682 774 682 774 612 c 2,8,-1
 774 469 l 2,9,10
 774 416 774 416 792.5 393.5 c 128,-1,11
 811 371 811 371 864 371 c 2,12,-1
 918 371 l 1,13,-1
 918 0 l 1,14,-1
 82 0 l 1,15,-1
 82 371 l 1,16,-1
 141 371 l 2,17,18
 182 371 182 371 203.5 397.5 c 128,-1,19
 225 424 225 424 225 461 c 2,20,-1
 225 651 l 2,21,22
 225 698 225 698 197.5 714.5 c 128,-1,23
 170 731 170 731 135 731 c 2,24,-1
 82 731 l 1,25,-1
 82 1102 l 1,26,-1
 676 1102 l 1,27,-1
 655 827 l 1,28,-1
 672 827 l 1,29,30
 694 981 694 981 807 1064 c 128,-1,31
 920 1147 920 1147 1114 1147 c 0,32,33
 1251 1147 1251 1147 1337 1108 c 128,-1,34
 1423 1069 1423 1069 1470.5 1009.5 c 128,-1,35
 1518 950 1518 950 1535 880.5 c 128,-1,36
 1552 811 1552 811 1552 750 c 2,37,-1
 1552 469 l 2,38,39
 1552 416 1552 416 1570.5 393.5 c 128,-1,40
 1589 371 1589 371 1642 371 c 2,41,-1
 1696 371 l 1,42,-1
 1696 0 l 1,43,-1
 1004 0 l 1,44,-1
 1004 639 l 2,0,1
EndSplineSet
EndChar

StartChar: o
Encoding: 111 111 82
Width: 1524
Flags: W
LayerCount: 2
Fore
SplineSet
41 553 m 0,0,1
 41 700 41 700 92 811 c 128,-1,2
 143 922 143 922 237.5 996.5 c 128,-1,3
 332 1071 332 1071 465 1109 c 128,-1,4
 598 1147 598 1147 762 1147 c 256,5,6
 926 1147 926 1147 1059 1109 c 128,-1,7
 1192 1071 1192 1071 1286 996.5 c 128,-1,8
 1380 922 1380 922 1431.5 811 c 128,-1,9
 1483 700 1483 700 1483 553 c 0,10,11
 1483 408 1483 408 1431.5 296 c 128,-1,12
 1380 184 1380 184 1286 108.5 c 128,-1,13
 1192 33 1192 33 1059 -5 c 128,-1,14
 926 -43 926 -43 762 -43 c 256,15,16
 598 -43 598 -43 465 -5 c 128,-1,17
 332 33 332 33 237.5 108.5 c 128,-1,18
 143 184 143 184 92 296 c 128,-1,19
 41 408 41 408 41 553 c 0,0,1
610 553 m 256,20,21
 610 469 610 469 617.5 410.5 c 128,-1,22
 625 352 625 352 642 316.5 c 128,-1,23
 659 281 659 281 688 264.5 c 128,-1,24
 717 248 717 248 762 248 c 256,25,26
 807 248 807 248 835.5 264.5 c 128,-1,27
 864 281 864 281 881.5 316.5 c 128,-1,28
 899 352 899 352 906 410.5 c 128,-1,29
 913 469 913 469 913 553 c 0,30,31
 913 721 913 721 881.5 788.5 c 128,-1,32
 850 856 850 856 762 856 c 0,33,34
 717 856 717 856 688 840.5 c 128,-1,35
 659 825 659 825 642 789.5 c 128,-1,36
 625 754 625 754 617.5 695.5 c 128,-1,37
 610 637 610 637 610 553 c 256,20,21
EndSplineSet
EndChar

StartChar: p
Encoding: 112 112 83
Width: 1647
Flags: W
LayerCount: 2
Fore
SplineSet
1100 -33 m 0,0,1
 1036 -33 1036 -33 986 -26.5 c 128,-1,2
 936 -20 936 -20 895 -8 c 128,-1,3
 854 4 854 4 817 20.5 c 128,-1,4
 780 37 780 37 743 55 c 1,5,-1
 743 -43 l 2,6,7
 743 -96 743 -96 761.5 -118.5 c 128,-1,8
 780 -141 780 -141 834 -141 c 2,9,-1
 893 -141 l 1,10,-1
 893 -512 l 1,11,-1
 51 -512 l 1,12,-1
 51 -141 l 1,13,-1
 111 -141 l 2,14,15
 152 -141 152 -141 173.5 -114.5 c 128,-1,16
 195 -88 195 -88 195 -51 c 2,17,-1
 195 651 l 2,18,19
 195 698 195 698 167 714.5 c 128,-1,20
 139 731 139 731 104 731 c 2,21,-1
 51 731 l 1,22,-1
 51 1102 l 1,23,-1
 700 1102 l 1,24,-1
 700 897 l 1,25,-1
 717 897 l 1,26,27
 754 1001 754 1001 848 1069 c 128,-1,28
 942 1137 942 1137 1106 1137 c 0,29,30
 1341 1137 1341 1137 1473.5 988.5 c 128,-1,31
 1606 840 1606 840 1606 553 c 256,32,33
 1606 266 1606 266 1470.5 116.5 c 128,-1,34
 1335 -33 1335 -33 1100 -33 c 0,0,1
1036 543 m 0,35,36
 1036 596 1036 596 1030 644 c 128,-1,37
 1024 692 1024 692 1007.5 728 c 128,-1,38
 991 764 991 764 963.5 784.5 c 128,-1,39
 936 805 936 805 891 805 c 256,40,41
 846 805 846 805 817 785.5 c 128,-1,42
 788 766 788 766 772 732 c 128,-1,43
 756 698 756 698 749.5 651 c 128,-1,44
 743 604 743 604 743 551 c 2,45,-1
 743 305 l 1,46,47
 760 279 760 279 806 263.5 c 128,-1,48
 852 248 852 248 891 248 c 0,49,50
 936 248 936 248 963.5 273.5 c 128,-1,51
 991 299 991 299 1007.5 341 c 128,-1,52
 1024 383 1024 383 1030 436 c 128,-1,53
 1036 489 1036 489 1036 543 c 0,35,36
EndSplineSet
EndChar

StartChar: q
Encoding: 113 113 84
Width: 1657
Flags: W
LayerCount: 2
Fore
SplineSet
547 -33 m 0,0,1
 311 -33 311 -33 176 116.5 c 128,-1,2
 41 266 41 266 41 553 c 256,3,4
 41 840 41 840 173 988.5 c 128,-1,5
 305 1137 305 1137 541 1137 c 0,6,7
 709 1137 709 1137 801 1068 c 128,-1,8
 893 999 893 999 930 897 c 1,9,-1
 946 897 l 1,10,-1
 946 1102 l 1,11,-1
 1595 1102 l 1,12,-1
 1595 731 l 1,13,-1
 1542 731 l 2,14,15
 1507 731 1507 731 1479.5 714.5 c 128,-1,16
 1452 698 1452 698 1452 651 c 2,17,-1
 1452 -51 l 2,18,19
 1452 -88 1452 -88 1473.5 -114.5 c 128,-1,20
 1495 -141 1495 -141 1536 -141 c 2,21,-1
 1595 -141 l 1,22,-1
 1595 -512 l 1,23,-1
 754 -512 l 1,24,-1
 754 -141 l 1,25,-1
 813 -141 l 2,26,27
 866 -141 866 -141 884.5 -118.5 c 128,-1,28
 903 -96 903 -96 903 -43 c 2,29,-1
 903 55 l 1,30,31
 866 37 866 37 829.5 20.5 c 128,-1,32
 793 4 793 4 752 -8 c 128,-1,33
 711 -20 711 -20 660.5 -26.5 c 128,-1,34
 610 -33 610 -33 547 -33 c 0,0,1
610 543 m 0,35,36
 610 489 610 489 616.5 436 c 128,-1,37
 623 383 623 383 639 341 c 128,-1,38
 655 299 655 299 683 273.5 c 128,-1,39
 711 248 711 248 756 248 c 0,40,41
 795 248 795 248 841 263.5 c 128,-1,42
 887 279 887 279 903 305 c 1,43,-1
 903 551 l 2,44,45
 903 604 903 604 897 651 c 128,-1,46
 891 698 891 698 874.5 732 c 128,-1,47
 858 766 858 766 829.5 785.5 c 128,-1,48
 801 805 801 805 756 805 c 256,49,50
 711 805 711 805 683 784.5 c 128,-1,51
 655 764 655 764 639 728 c 128,-1,52
 623 692 623 692 616.5 644 c 128,-1,53
 610 596 610 596 610 543 c 0,35,36
EndSplineSet
EndChar

StartChar: r
Encoding: 114 114 85
Width: 1311
Flags: W
LayerCount: 2
Fore
SplineSet
676 1102 m 1,0,-1
 659 827 l 1,1,-1
 676 827 l 1,2,3
 711 985 711 985 792.5 1066 c 128,-1,4
 874 1147 874 1147 1004 1147 c 0,5,6
 1081 1147 1081 1147 1136.5 1122.5 c 128,-1,7
 1192 1098 1192 1098 1226 1057 c 128,-1,8
 1260 1016 1260 1016 1275 962.5 c 128,-1,9
 1290 909 1290 909 1290 852 c 0,10,11
 1290 805 1290 805 1276 759 c 128,-1,12
 1262 713 1262 713 1231 676 c 128,-1,13
 1200 639 1200 639 1151 616.5 c 128,-1,14
 1102 594 1102 594 1030 594 c 0,15,16
 930 594 930 594 872.5 645 c 128,-1,17
 815 696 815 696 815 768 c 0,18,19
 815 803 815 803 823 827.5 c 128,-1,20
 831 852 831 852 839.5 867.5 c 128,-1,21
 848 883 848 883 851 890 c 128,-1,22
 854 897 854 897 844 897 c 0,23,24
 823 897 823 897 798.5 849 c 128,-1,25
 774 801 774 801 774 698 c 2,26,-1
 774 469 l 2,27,28
 774 416 774 416 792.5 393.5 c 128,-1,29
 811 371 811 371 864 371 c 2,30,-1
 924 371 l 1,31,-1
 924 0 l 1,32,-1
 82 0 l 1,33,-1
 82 371 l 1,34,-1
 141 371 l 2,35,36
 182 371 182 371 203.5 397.5 c 128,-1,37
 225 424 225 424 225 461 c 2,38,-1
 225 651 l 2,39,40
 225 698 225 698 197.5 714.5 c 128,-1,41
 170 731 170 731 135 731 c 2,42,-1
 82 731 l 1,43,-1
 82 1102 l 1,44,-1
 676 1102 l 1,0,-1
EndSplineSet
EndChar

StartChar: s
Encoding: 115 115 86
Width: 1305
Flags: W
LayerCount: 2
Fore
SplineSet
1217 737 m 1,0,-1
 942 737 l 1,1,2
 913 809 913 809 852 851 c 128,-1,3
 791 893 791 893 725 893 c 0,4,5
 680 893 680 893 653.5 876.5 c 128,-1,6
 627 860 627 860 627 827 c 0,7,8
 627 786 627 786 673 765.5 c 128,-1,9
 719 745 719 745 788.5 729 c 128,-1,10
 858 713 858 713 939 690.5 c 128,-1,11
 1020 668 1020 668 1089.5 626 c 128,-1,12
 1159 584 1159 584 1205 513 c 128,-1,13
 1251 442 1251 442 1251 326 c 0,14,15
 1251 236 1251 236 1211 169 c 128,-1,16
 1171 102 1171 102 1101.5 59 c 128,-1,17
 1032 16 1032 16 938 -5.5 c 128,-1,18
 844 -27 844 -27 735 -27 c 0,19,20
 629 -27 629 -27 534.5 -6.5 c 128,-1,21
 440 14 440 14 354 63 c 1,22,-1
 344 -6 l 1,23,-1
 80 -6 l 1,24,-1
 80 395 l 1,25,-1
 354 395 l 1,26,27
 393 315 393 315 452.5 271 c 128,-1,28
 512 227 512 227 584 227 c 0,29,30
 639 227 639 227 662.5 247.5 c 128,-1,31
 686 268 686 268 686 293 c 0,32,33
 686 334 686 334 640 356.5 c 128,-1,34
 594 379 594 379 526.5 396.5 c 128,-1,35
 459 414 459 414 378 435.5 c 128,-1,36
 297 457 297 457 229.5 498 c 128,-1,37
 162 539 162 539 116 608.5 c 128,-1,38
 70 678 70 678 70 791 c 0,39,40
 70 872 70 872 106.5 939 c 128,-1,41
 143 1006 143 1006 211 1052 c 128,-1,42
 279 1098 279 1098 371 1122.5 c 128,-1,43
 463 1147 463 1147 573 1147 c 0,44,45
 696 1147 696 1147 794.5 1119.5 c 128,-1,46
 893 1092 893 1092 942 1059 c 1,47,-1
 952 1130 l 1,48,-1
 1217 1130 l 1,49,-1
 1217 737 l 1,0,-1
EndSplineSet
EndChar

StartChar: t
Encoding: 116 116 87
Width: 1071
Flags: W
LayerCount: 2
Fore
SplineSet
741 1473 m 1,0,-1
 741 1102 l 1,1,-1
 1040 1102 l 1,2,-1
 1040 731 l 1,3,-1
 741 731 l 1,4,-1
 741 424 l 2,5,6
 741 358 741 358 759.5 316 c 128,-1,7
 778 274 778 274 836 274 c 0,8,9
 868 274 868 274 887.5 286.5 c 128,-1,10
 907 299 907 299 918.5 319.5 c 128,-1,11
 930 340 930 340 933 366.5 c 128,-1,12
 936 393 936 393 936 424 c 2,13,-1
 936 573 l 1,14,-1
 1051 573 l 1,15,-1
 1051 412 l 2,16,17
 1051 315 1051 315 1030.5 231 c 128,-1,18
 1010 147 1010 147 960.5 86 c 128,-1,19
 911 25 911 25 826 -11 c 128,-1,20
 741 -47 741 -47 612 -47 c 0,21,22
 469 -47 469 -47 384 -12 c 128,-1,23
 299 23 299 23 255 84 c 128,-1,24
 211 145 211 145 197.5 229 c 128,-1,25
 184 313 184 313 184 412 c 2,26,-1
 184 731 l 1,27,-1
 27 731 l 1,28,-1
 27 1061 l 1,29,30
 102 1061 102 1061 166.5 1093.5 c 128,-1,31
 231 1126 231 1126 277.5 1183.5 c 128,-1,32
 324 1241 324 1241 349.5 1315 c 128,-1,33
 375 1389 375 1389 375 1473 c 1,34,-1
 741 1473 l 1,0,-1
EndSplineSet
EndChar

StartChar: u
Encoding: 117 117 88
Width: 1675
Flags: W
LayerCount: 2
Fore
SplineSet
1491 451 m 2,0,1
 1491 403 1491 403 1518.5 387 c 128,-1,2
 1546 371 1546 371 1581 371 c 2,3,-1
 1634 371 l 1,4,-1
 1634 0 l 1,5,-1
 1040 0 l 1,6,-1
 1040 274 l 1,7,-1
 1024 274 l 1,8,9
 1001 121 1001 121 899 42 c 128,-1,10
 797 -37 797 -37 602 -37 c 0,11,12
 465 -37 465 -37 379 2 c 128,-1,13
 293 41 293 41 246 100.5 c 128,-1,14
 199 160 199 160 181.5 229.5 c 128,-1,15
 164 299 164 299 164 360 c 2,16,-1
 164 633 l 2,17,18
 164 686 164 686 145.5 708.5 c 128,-1,19
 127 731 127 731 74 731 c 2,20,-1
 14 731 l 1,21,-1
 14 1102 l 1,22,-1
 713 1102 l 1,23,-1
 713 471 l 2,24,25
 713 432 713 432 722 408.5 c 128,-1,26
 731 385 731 385 745.5 372.5 c 128,-1,27
 760 360 760 360 778.5 356 c 128,-1,28
 797 352 797 352 813 352 c 0,29,30
 879 352 879 352 910.5 390 c 128,-1,31
 942 428 942 428 942 498 c 2,32,-1
 942 633 l 2,33,34
 942 686 942 686 923.5 708.5 c 128,-1,35
 905 731 905 731 852 731 c 2,36,-1
 793 731 l 1,37,-1
 793 1102 l 1,38,-1
 1491 1102 l 1,39,-1
 1491 451 l 2,0,1
EndSplineSet
EndChar

StartChar: v
Encoding: 118 118 89
Width: 1425
Flags: W
LayerCount: 2
Fore
SplineSet
152 645 m 1,0,1
 131 690 131 690 103.5 710.5 c 128,-1,2
 76 731 76 731 0 731 c 1,3,-1
 0 1102 l 1,4,-1
 803 1102 l 1,5,-1
 803 731 l 1,6,7
 739 731 739 731 720.5 712.5 c 128,-1,8
 702 694 702 694 717 655 c 1,9,-1
 825 348 l 1,10,-1
 840 348 l 1,11,-1
 954 655 l 1,12,13
 969 692 969 692 950.5 711.5 c 128,-1,14
 932 731 932 731 868 731 c 1,15,-1
 868 1102 l 1,16,-1
 1425 1102 l 1,17,-1
 1425 731 l 1,18,19
 1352 731 1352 731 1322 711.5 c 128,-1,20
 1292 692 1292 692 1272 645 c 2,21,-1
 1004 0 l 1,22,-1
 420 0 l 1,23,-1
 152 645 l 1,0,1
EndSplineSet
EndChar

StartChar: w
Encoding: 119 119 90
Width: 2101
Flags: W
LayerCount: 2
Fore
SplineSet
1042 317 m 1,0,-1
 922 0 l 1,1,-1
 399 0 l 1,2,-1
 152 645 l 2,3,4
 133 692 133 692 106.5 711.5 c 128,-1,5
 80 731 80 731 20 731 c 1,6,-1
 20 1102 l 1,7,-1
 762 1102 l 1,8,-1
 762 731 l 1,9,10
 715 731 715 731 700.5 713.5 c 128,-1,11
 686 696 686 696 696 655 c 1,12,-1
 784 348 l 1,13,-1
 799 348 l 1,14,-1
 893 655 l 1,15,16
 918 731 918 731 827 731 c 1,17,-1
 827 1102 l 1,18,-1
 1507 1102 l 1,19,-1
 1507 731 l 1,20,21
 1460 731 1460 731 1446 713.5 c 128,-1,22
 1432 696 1432 696 1442 655 c 1,23,-1
 1530 348 l 1,24,-1
 1544 348 l 1,25,-1
 1638 655 l 1,26,27
 1663 731 1663 731 1573 731 c 1,28,-1
 1573 1102 l 1,29,-1
 2081 1102 l 1,30,-1
 2081 731 l 1,31,32
 2038 731 2038 731 2006 711.5 c 128,-1,33
 1974 692 1974 692 1956 645 c 2,34,-1
 1708 0 l 1,35,-1
 1165 0 l 1,36,-1
 1042 317 l 1,0,-1
EndSplineSet
EndChar

StartChar: x
Encoding: 120 120 91
Width: 1497
Flags: W
LayerCount: 2
Fore
SplineSet
887 645 m 1,0,-1
 926 672 l 2,1,2
 940 682 940 682 961.5 698.5 c 128,-1,3
 983 715 983 715 983 731 c 0,4,5
 983 752 983 752 950 752 c 1,6,-1
 950 1102 l 1,7,-1
 1442 1102 l 1,8,-1
 1442 752 l 1,9,10
 1415 752 1415 752 1381.5 739.5 c 128,-1,11
 1348 727 1348 727 1314 709.5 c 128,-1,12
 1280 692 1280 692 1246 671.5 c 128,-1,13
 1212 651 1212 651 1186 633 c 2,14,-1
 1047 541 l 1,15,-1
 1196 444 l 1,16,17
 1217 432 1217 432 1240.5 415.5 c 128,-1,18
 1264 399 1264 399 1293.5 385 c 128,-1,19
 1323 371 1323 371 1362 360.5 c 128,-1,20
 1401 350 1401 350 1452 350 c 1,21,-1
 1452 0 l 1,22,-1
 602 0 l 1,23,-1
 602 350 l 1,24,25
 629 350 629 350 647.5 361.5 c 128,-1,26
 666 373 666 373 666 391 c 0,27,28
 666 406 666 406 652.5 421 c 128,-1,29
 639 436 639 436 623 446 c 2,30,-1
 600 461 l 1,31,-1
 580 446 l 1,32,33
 559 434 559 434 532.5 411.5 c 128,-1,34
 506 389 506 389 506 373 c 0,35,36
 506 350 506 350 537 350 c 1,37,-1
 537 0 l 1,38,-1
 55 0 l 1,39,-1
 55 350 l 1,40,41
 78 350 78 350 108.5 363.5 c 128,-1,42
 139 377 139 377 172 395.5 c 128,-1,43
 205 414 205 414 237.5 435.5 c 128,-1,44
 270 457 270 457 297 475 c 2,45,-1
 438 567 l 1,46,-1
 303 657 l 1,47,48
 262 686 262 686 199.5 719 c 128,-1,49
 137 752 137 752 66 752 c 1,50,-1
 66 1102 l 1,51,-1
 885 1102 l 1,52,-1
 885 752 l 1,53,54
 862 752 862 752 845.5 741.5 c 128,-1,55
 829 731 829 731 829 715 c 0,56,57
 829 698 829 698 840.5 685 c 128,-1,58
 852 672 852 672 872 655 c 1,59,-1
 887 645 l 1,0,-1
EndSplineSet
EndChar

StartChar: y
Encoding: 121 121 92
Width: 1466
Flags: W
LayerCount: 2
Fore
SplineSet
952 -82 m 2,0,1
 918 -156 918 -156 882 -240 c 128,-1,2
 846 -324 846 -324 787.5 -395.5 c 128,-1,3
 729 -467 729 -467 637 -514 c 128,-1,4
 545 -561 545 -561 397 -561 c 0,5,6
 293 -561 293 -561 215 -534.5 c 128,-1,7
 137 -508 137 -508 86 -463 c 128,-1,8
 35 -418 35 -418 10.5 -359.5 c 128,-1,9
 -14 -301 -14 -301 -14 -240 c 0,10,11
 -14 -119 -14 -119 60.5 -49.5 c 128,-1,12
 135 20 135 20 246 20 c 0,13,14
 311 20 311 20 355 1 c 128,-1,15
 399 -18 399 -18 427 -48 c 128,-1,16
 455 -78 455 -78 466 -114 c 128,-1,17
 477 -150 477 -150 477 -182 c 0,18,19
 477 -254 477 -254 441.5 -292 c 128,-1,20
 406 -330 406 -330 356 -340 c 1,21,22
 360 -344 360 -344 369 -346 c 1,23,24
 381 -352 381 -352 418 -352 c 0,25,26
 453 -352 453 -352 480.5 -334.5 c 128,-1,27
 508 -317 508 -317 530.5 -291.5 c 128,-1,28
 553 -266 553 -266 569.5 -236.5 c 128,-1,29
 586 -207 586 -207 596 -182 c 1,30,-1
 598 -176 l 1,31,-1
 172 645 l 1,32,33
 162 668 162 668 150.5 684 c 128,-1,34
 139 700 139 700 122.5 710.5 c 128,-1,35
 106 721 106 721 81.5 726 c 128,-1,36
 57 731 57 731 20 731 c 1,37,-1
 20 1102 l 1,38,-1
 823 1102 l 1,39,-1
 823 731 l 1,40,41
 760 731 760 731 740.5 712.5 c 128,-1,42
 721 694 721 694 737 655 c 1,43,-1
 858 397 l 1,44,-1
 975 655 l 2,45,46
 991 690 991 690 971.5 710.5 c 128,-1,47
 952 731 952 731 889 731 c 1,48,-1
 889 1102 l 1,49,-1
 1446 1102 l 1,50,-1
 1446 731 l 1,51,52
 1372 731 1372 731 1342.5 710.5 c 128,-1,53
 1313 690 1313 690 1292 645 c 2,54,-1
 952 -82 l 2,0,1
EndSplineSet
EndChar

StartChar: z
Encoding: 122 122 93
Width: 1317
Flags: W
LayerCount: 2
Fore
SplineSet
881 287 m 2,0,1
 940 287 940 287 959.5 309.5 c 128,-1,2
 979 332 979 332 979 381 c 2,3,-1
 979 438 l 1,4,-1
 1266 438 l 1,5,-1
 1266 0 l 1,6,-1
 51 0 l 1,7,-1
 51 287 l 1,8,-1
 584 815 l 1,9,-1
 446 815 l 2,10,11
 387 815 387 815 367.5 794.5 c 128,-1,12
 348 774 348 774 348 717 c 2,13,-1
 348 666 l 1,14,-1
 61 666 l 1,15,-1
 61 1102 l 1,16,-1
 1260 1102 l 1,17,-1
 1260 815 l 1,18,-1
 731 287 l 1,19,-1
 881 287 l 2,0,1
EndSplineSet
EndChar

StartChar: braceleft
Encoding: 123 123 94
Width: 1001
Flags: W
LayerCount: 2
Fore
SplineSet
940 1227 m 1,0,1
 874 1227 874 1227 833.5 1214.5 c 128,-1,2
 793 1202 793 1202 770.5 1174.5 c 128,-1,3
 748 1147 748 1147 739.5 1101 c 128,-1,4
 731 1055 731 1055 731 983 c 2,5,-1
 731 926 l 2,6,7
 731 860 731 860 723 811 c 128,-1,8
 715 762 715 762 689.5 725 c 128,-1,9
 664 688 664 688 613.5 660.5 c 128,-1,10
 563 633 563 633 481 614 c 1,11,-1
 481 598 l 1,12,13
 563 580 563 580 613.5 552 c 128,-1,14
 664 524 664 524 689.5 487.5 c 128,-1,15
 715 451 715 451 723 400.5 c 128,-1,16
 731 350 731 350 731 287 c 2,17,-1
 731 229 l 2,18,19
 731 158 731 158 739.5 110.5 c 128,-1,20
 748 63 748 63 770.5 35.5 c 128,-1,21
 793 8 793 8 833.5 -3 c 128,-1,22
 874 -14 874 -14 940 -14 c 1,23,-1
 940 -301 l 1,24,25
 731 -301 731 -301 594 -274.5 c 128,-1,26
 457 -248 457 -248 375 -196.5 c 128,-1,27
 293 -145 293 -145 260 -69.5 c 128,-1,28
 227 6 227 6 227 106 c 2,29,-1
 227 203 l 2,30,31
 227 283 227 283 221 337 c 128,-1,32
 215 391 215 391 195.5 425 c 128,-1,33
 176 459 176 459 139 473 c 128,-1,34
 102 487 102 487 41 487 c 1,35,-1
 41 727 l 1,36,37
 98 727 98 727 135 741.5 c 128,-1,38
 172 756 172 756 192.5 789.5 c 128,-1,39
 213 823 213 823 220 876.5 c 128,-1,40
 227 930 227 930 227 1010 c 2,41,-1
 227 1106 l 2,42,43
 227 1206 227 1206 260 1282 c 128,-1,44
 293 1358 293 1358 375 1409 c 128,-1,45
 457 1460 457 1460 594 1486.5 c 128,-1,46
 731 1513 731 1513 940 1513 c 1,47,-1
 940 1227 l 1,0,1
EndSplineSet
EndChar

StartChar: bar
Encoding: 124 124 95
Width: 717
Flags: W
LayerCount: 2
Fore
SplineSet
512 1565 m 1,0,-1
 512 -483 l 1,1,-1
 205 -483 l 1,2,-1
 205 1565 l 1,3,-1
 512 1565 l 1,0,-1
EndSplineSet
EndChar

StartChar: braceright
Encoding: 125 125 96
Width: 1001
Flags: W
LayerCount: 2
Fore
SplineSet
61 1513 m 1,0,1
 270 1513 270 1513 407.5 1486.5 c 128,-1,2
 545 1460 545 1460 627 1409 c 128,-1,3
 709 1358 709 1358 741.5 1282 c 128,-1,4
 774 1206 774 1206 774 1106 c 2,5,-1
 774 1010 l 2,6,7
 774 930 774 930 781 876.5 c 128,-1,8
 788 823 788 823 808.5 789.5 c 128,-1,9
 829 756 829 756 865 741.5 c 128,-1,10
 901 727 901 727 961 727 c 1,11,-1
 961 487 l 1,12,13
 899 487 899 487 862 473 c 128,-1,14
 825 459 825 459 805.5 425 c 128,-1,15
 786 391 786 391 780 337 c 128,-1,16
 774 283 774 283 774 203 c 2,17,-1
 774 106 l 2,18,19
 774 6 774 6 741.5 -69.5 c 128,-1,20
 709 -145 709 -145 627 -196.5 c 128,-1,21
 545 -248 545 -248 407.5 -274.5 c 128,-1,22
 270 -301 270 -301 61 -301 c 1,23,-1
 61 -14 l 1,24,25
 127 -14 127 -14 168 -3 c 128,-1,26
 209 8 209 8 231.5 35.5 c 128,-1,27
 254 63 254 63 262 110.5 c 128,-1,28
 270 158 270 158 270 229 c 2,29,-1
 270 287 l 2,30,31
 270 350 270 350 278.5 400.5 c 128,-1,32
 287 451 287 451 312.5 487.5 c 128,-1,33
 338 524 338 524 387 552 c 128,-1,34
 436 580 436 580 520 598 c 1,35,-1
 520 614 l 1,36,37
 436 633 436 633 387 660.5 c 128,-1,38
 338 688 338 688 312.5 725 c 128,-1,39
 287 762 287 762 278.5 811 c 128,-1,40
 270 860 270 860 270 926 c 2,41,-1
 270 983 l 2,42,43
 270 1055 270 1055 262 1101 c 128,-1,44
 254 1147 254 1147 231.5 1174.5 c 128,-1,45
 209 1202 209 1202 168 1214.5 c 128,-1,46
 127 1227 127 1227 61 1227 c 1,47,-1
 61 1513 l 1,0,1
EndSplineSet
EndChar

StartChar: asciitilde
Encoding: 126 126 97
Width: 1434
Flags: W
LayerCount: 2
Fore
SplineSet
543 598 m 0,0,1
 504 598 504 598 469 572.5 c 128,-1,2
 434 547 434 547 424 496 c 1,3,-1
 154 496 l 1,4,5
 164 575 164 575 188.5 653 c 128,-1,6
 213 731 213 731 256 793.5 c 128,-1,7
 299 856 299 856 361.5 894 c 128,-1,8
 424 932 424 932 510 932 c 0,9,10
 575 932 575 932 626.5 915.5 c 128,-1,11
 678 899 678 899 722 880.5 c 128,-1,12
 766 862 766 862 806 845.5 c 128,-1,13
 846 829 846 829 889 829 c 0,14,15
 928 829 928 829 963.5 855 c 128,-1,16
 999 881 999 881 1010 932 c 1,17,-1
 1280 932 l 1,18,19
 1270 852 1270 852 1245.5 774 c 128,-1,20
 1221 696 1221 696 1178 633.5 c 128,-1,21
 1135 571 1135 571 1071.5 533.5 c 128,-1,22
 1008 496 1008 496 922 496 c 0,23,24
 856 496 856 496 805 512 c 128,-1,25
 754 528 754 528 710 546.5 c 128,-1,26
 666 565 666 565 626 581.5 c 128,-1,27
 586 598 586 598 543 598 c 0,0,1
EndSplineSet
EndChar

StartChar: exclamdown
Encoding: 161 161 99
Width: 754
Flags: W
LayerCount: 2
Fore
SplineSet
123 211 m 0,0,1
 123 231 123 231 125 252.5 c 128,-1,2
 127 274 127 274 131 293 c 2,3,-1
 248 938 l 1,4,-1
 510 938 l 1,5,-1
 623 293 l 1,6,7
 627 276 627 276 629 252.5 c 128,-1,8
 631 229 631 229 631 211 c 0,9,10
 631 158 631 158 610.5 112 c 128,-1,11
 590 66 590 66 556 32 c 128,-1,12
 522 -2 522 -2 475 -22.5 c 128,-1,13
 428 -43 428 -43 377 -43 c 0,14,15
 324 -43 324 -43 277.5 -22.5 c 128,-1,16
 231 -2 231 -2 197.5 32 c 128,-1,17
 164 66 164 66 143.5 112 c 128,-1,18
 123 158 123 158 123 211 c 0,0,1
123 1260 m 0,19,20
 123 1311 123 1311 143.5 1358 c 128,-1,21
 164 1405 164 1405 197.5 1439 c 128,-1,22
 231 1473 231 1473 277.5 1493 c 128,-1,23
 324 1513 324 1513 377 1513 c 0,24,25
 428 1513 428 1513 475 1493 c 128,-1,26
 522 1473 522 1473 556 1439 c 128,-1,27
 590 1405 590 1405 610.5 1358 c 128,-1,28
 631 1311 631 1311 631 1260 c 0,29,30
 631 1206 631 1206 610.5 1160 c 128,-1,31
 590 1114 590 1114 556 1080.5 c 128,-1,32
 522 1047 522 1047 475 1026.5 c 128,-1,33
 428 1006 428 1006 377 1006 c 0,34,35
 324 1006 324 1006 277.5 1026.5 c 128,-1,36
 231 1047 231 1047 197.5 1080.5 c 128,-1,37
 164 1114 164 1114 143.5 1160 c 128,-1,38
 123 1206 123 1206 123 1260 c 0,19,20
EndSplineSet
EndChar

StartChar: cent
Encoding: 162 162 100
Width: 1339
Flags: W
LayerCount: 2
Fore
SplineSet
514 215 m 1,0,1
 412 229 412 229 325 268 c 128,-1,2
 238 307 238 307 175.5 372.5 c 128,-1,3
 113 438 113 438 77 530.5 c 128,-1,4
 41 623 41 623 41 743 c 0,5,6
 41 858 41 858 76 948 c 128,-1,7
 111 1038 111 1038 173.5 1104.5 c 128,-1,8
 236 1171 236 1171 323 1211 c 128,-1,9
 410 1251 410 1251 514 1268 c 1,10,-1
 514 1452 l 1,11,-1
 717 1452 l 1,12,-1
 717 1276 l 1,13,14
 838 1266 838 1266 922 1229 c 128,-1,15
 1006 1192 1006 1192 1057 1142 c 128,-1,16
 1108 1092 1108 1092 1130.5 1034.5 c 128,-1,17
 1153 977 1153 977 1153 928 c 0,18,19
 1153 887 1153 887 1140.5 846 c 128,-1,20
 1128 805 1128 805 1101.5 772 c 128,-1,21
 1075 739 1075 739 1033 718.5 c 128,-1,22
 991 698 991 698 930 698 c 0,23,24
 870 698 870 698 833.5 714.5 c 128,-1,25
 797 731 797 731 776.5 755.5 c 128,-1,26
 756 780 756 780 747.5 808 c 128,-1,27
 739 836 739 836 739 860 c 0,28,29
 739 915 739 915 766 948 c 128,-1,30
 793 981 793 981 827 993 c 1,31,32
 807 1008 807 1008 786.5 1021 c 128,-1,33
 766 1034 766 1034 713 1034 c 0,34,35
 635 1034 635 1034 594 969.5 c 128,-1,36
 553 905 553 905 553 752 c 0,37,38
 553 598 553 598 596 534.5 c 128,-1,39
 639 471 639 471 725 471 c 0,40,41
 778 471 778 471 824 503 c 128,-1,42
 870 535 870 535 874 600 c 1,43,-1
 1165 600 l 1,44,45
 1139 418 1139 418 1028.5 323.5 c 128,-1,46
 918 229 918 229 717 213 c 1,47,-1
 717 0 l 1,48,-1
 514 0 l 1,49,-1
 514 215 l 1,0,1
EndSplineSet
EndChar

StartChar: sterling
Encoding: 163 163 101
Width: 1475
Flags: W
LayerCount: 2
Fore
SplineSet
195 756 m 1,0,1
 158 803 158 803 130 866.5 c 128,-1,2
 102 930 102 930 102 1024 c 0,3,4
 102 1133 102 1133 148.5 1220 c 128,-1,5
 195 1307 195 1307 271.5 1367 c 128,-1,6
 348 1427 348 1427 450.5 1460 c 128,-1,7
 553 1493 553 1493 668 1493 c 0,8,9
 748 1493 748 1493 804 1483 c 128,-1,10
 860 1473 860 1473 903 1457.5 c 128,-1,11
 946 1442 946 1442 980 1421.5 c 128,-1,12
 1014 1401 1014 1401 1044 1380 c 1,13,-1
 1044 1473 l 1,14,-1
 1354 1473 l 1,15,-1
 1354 958 l 1,16,-1
 1044 958 l 1,17,18
 1040 1004 1040 1004 1025 1043.5 c 128,-1,19
 1010 1083 1010 1083 984 1114 c 128,-1,20
 958 1145 958 1145 919.5 1162.5 c 128,-1,21
 881 1180 881 1180 831 1180 c 0,22,23
 739 1180 739 1180 698 1130.5 c 128,-1,24
 657 1081 657 1081 657 1020 c 0,25,26
 657 991 657 991 668.5 962.5 c 128,-1,27
 680 934 680 934 695.5 901 c 128,-1,28
 711 868 711 868 726 832.5 c 128,-1,29
 741 797 741 797 750 756 c 1,30,-1
 1022 756 l 1,31,-1
 1022 553 l 1,32,-1
 717 553 l 1,33,34
 688 500 688 500 627.5 437.5 c 128,-1,35
 567 375 567 375 459 311 c 1,36,-1
 471 295 l 1,37,38
 522 330 522 330 563 351.5 c 128,-1,39
 604 373 604 373 637 384 c 128,-1,40
 670 395 670 395 697.5 399 c 128,-1,41
 725 403 725 403 752 403 c 0,42,43
 801 403 801 403 840 395 c 128,-1,44
 879 387 879 387 911.5 376 c 128,-1,45
 944 365 944 365 974 356.5 c 128,-1,46
 1004 348 1004 348 1034 348 c 0,47,48
 1110 348 1110 348 1153 401.5 c 128,-1,49
 1196 455 1196 455 1196 545 c 1,50,-1
 1393 545 l 1,51,52
 1393 354 1393 354 1360 241.5 c 128,-1,53
 1327 129 1327 129 1267.5 70.5 c 128,-1,54
 1208 12 1208 12 1125 -4 c 128,-1,55
 1042 -20 1042 -20 944 -20 c 0,56,57
 870 -20 870 -20 811 -8 c 128,-1,58
 752 4 752 4 694.5 17.5 c 128,-1,59
 637 31 637 31 572.5 43 c 128,-1,60
 508 55 508 55 422 55 c 0,61,62
 369 55 369 55 317.5 43 c 128,-1,63
 266 31 266 31 223 16 c 1,64,65
 172 0 172 0 127 -20 c 1,66,-1
 29 207 l 1,67,68
 80 223 80 223 133 253 c 128,-1,69
 186 283 186 283 230 325 c 128,-1,70
 274 367 274 367 302 418 c 128,-1,71
 330 469 330 469 328 528 c 0,72,73
 328 535 328 535 327 541 c 128,-1,74
 326 547 326 547 326 553 c 1,75,-1
 41 553 l 1,76,-1
 41 756 l 1,77,-1
 195 756 l 1,0,1
EndSplineSet
EndChar

StartChar: currency
Encoding: 164 164 102
Width: 1163
Flags: W
LayerCount: 2
Fore
SplineSet
98 406 m 1,0,-1
 252 559 l 1,1,2
 205 643 205 643 205 745 c 0,3,4
 205 795 205 795 218 842 c 128,-1,5
 231 889 231 889 254 930 c 1,6,-1
 98 1085 l 1,7,-1
 242 1229 l 1,8,-1
 395 1073 l 1,9,10
 436 1096 436 1096 483 1109 c 128,-1,11
 530 1122 530 1122 582 1122 c 0,12,13
 631 1122 631 1122 678 1109 c 128,-1,14
 725 1096 725 1096 766 1073 c 1,15,-1
 922 1229 l 1,16,-1
 1065 1085 l 1,17,-1
 909 930 l 1,18,19
 932 889 932 889 945 842 c 128,-1,20
 958 795 958 795 958 745 c 0,21,22
 958 694 958 694 945 647 c 128,-1,23
 932 600 932 600 909 559 c 1,24,-1
 1065 406 l 1,25,-1
 922 262 l 1,26,-1
 766 418 l 1,27,28
 725 395 725 395 678 382 c 128,-1,29
 631 369 631 369 582 369 c 0,30,31
 479 369 479 369 395 416 c 1,32,-1
 242 262 l 1,33,-1
 98 406 l 1,0,-1
434 745 m 0,34,35
 434 684 434 684 477 641 c 128,-1,36
 520 598 520 598 582 598 c 0,37,38
 641 598 641 598 685 641 c 128,-1,39
 729 684 729 684 729 745 c 0,40,41
 729 805 729 805 685 849 c 128,-1,42
 641 893 641 893 582 893 c 0,43,44
 520 893 520 893 477 849 c 128,-1,45
 434 805 434 805 434 745 c 0,34,35
EndSplineSet
EndChar

StartChar: yen
Encoding: 165 165 103
Width: 1475
Flags: W
LayerCount: 2
Fore
SplineSet
213 979 m 1,0,-1
 207 989 l 1,1,2
 186 1012 186 1012 172 1032.5 c 128,-1,3
 158 1053 158 1053 141.5 1068 c 128,-1,4
 125 1083 125 1083 101.5 1092.5 c 128,-1,5
 78 1102 78 1102 41 1102 c 1,6,-1
 41 1473 l 1,7,-1
 836 1473 l 1,8,-1
 836 1102 l 1,9,10
 758 1102 758 1102 731.5 1073 c 128,-1,11
 705 1044 705 1044 733 1001 c 2,12,-1
 858 809 l 1,13,-1
 866 809 l 1,14,-1
 993 1001 l 1,15,16
 1026 1040 1026 1040 1000.5 1071 c 128,-1,17
 975 1102 975 1102 889 1102 c 1,18,-1
 889 1473 l 1,19,-1
 1434 1473 l 1,20,-1
 1434 1102 l 1,21,22
 1405 1102 1405 1102 1385.5 1096 c 128,-1,23
 1366 1090 1366 1090 1348.5 1076.5 c 128,-1,24
 1331 1063 1331 1063 1312.5 1041.5 c 128,-1,25
 1294 1020 1294 1020 1268 989 c 2,26,-1
 1260 979 l 1,27,-1
 1395 979 l 1,28,-1
 1395 776 l 1,29,-1
 1108 776 l 1,30,-1
 1047 692 l 1,31,-1
 1395 692 l 1,32,-1
 1395 489 l 1,33,-1
 1006 489 l 1,34,-1
 1006 483 l 2,35,36
 1006 418 1006 418 1042.5 394.5 c 128,-1,37
 1079 371 1079 371 1157 371 c 1,38,-1
 1157 0 l 1,39,-1
 317 0 l 1,40,-1
 317 371 l 1,41,42
 395 371 395 371 432 394.5 c 128,-1,43
 469 418 469 418 469 483 c 2,44,-1
 469 489 l 1,45,-1
 80 489 l 1,46,-1
 80 692 l 1,47,-1
 428 692 l 1,48,-1
 365 776 l 1,49,-1
 80 776 l 1,50,-1
 80 979 l 1,51,-1
 213 979 l 1,0,-1
EndSplineSet
EndChar

StartChar: brokenbar
Encoding: 166 166 104
Width: 717
Flags: W
LayerCount: 2
Fore
SplineSet
512 408 m 1,0,-1
 512 -350 l 1,1,-1
 205 -350 l 1,2,-1
 205 408 l 1,3,-1
 512 408 l 1,0,-1
512 1432 m 1,4,-1
 512 674 l 1,5,-1
 205 674 l 1,6,-1
 205 1432 l 1,7,-1
 512 1432 l 1,4,-1
EndSplineSet
EndChar

StartChar: section
Encoding: 167 167 105
Width: 1118
Flags: W
LayerCount: 2
Fore
SplineSet
510 111 m 0,0,1
 596 111 596 111 640 142.5 c 128,-1,2
 684 174 684 174 684 215 c 0,3,4
 684 258 684 258 643 293 c 128,-1,5
 602 328 602 328 539.5 360.5 c 128,-1,6
 477 393 477 393 405.5 427 c 128,-1,7
 334 461 334 461 271.5 502 c 128,-1,8
 209 543 209 543 168 594 c 128,-1,9
 127 645 127 645 127 713 c 0,10,11
 127 801 127 801 178 860.5 c 128,-1,12
 229 920 229 920 324 958 c 1,13,14
 244 1012 244 1012 187.5 1074.5 c 128,-1,15
 131 1137 131 1137 131 1223 c 0,16,17
 131 1298 131 1298 162 1353.5 c 128,-1,18
 193 1409 193 1409 249 1444 c 128,-1,19
 305 1479 305 1479 383 1496 c 128,-1,20
 461 1513 461 1513 553 1513 c 0,21,22
 760 1513 760 1513 868.5 1437.5 c 128,-1,23
 977 1362 977 1362 977 1245 c 0,24,25
 977 1200 977 1200 961.5 1168.5 c 128,-1,26
 946 1137 946 1137 921.5 1117.5 c 128,-1,27
 897 1098 897 1098 867.5 1089.5 c 128,-1,28
 838 1081 838 1081 809 1081 c 0,29,30
 731 1081 731 1081 686 1117 c 128,-1,31
 641 1153 641 1153 641 1196 c 0,32,33
 641 1243 641 1243 670.5 1262.5 c 128,-1,34
 700 1282 700 1282 741 1294 c 1,35,36
 709 1317 709 1317 676 1329 c 128,-1,37
 643 1341 643 1341 598 1341 c 0,38,39
 512 1341 512 1341 477 1309.5 c 128,-1,40
 442 1278 442 1278 442 1237 c 0,41,42
 442 1194 442 1194 482 1159 c 128,-1,43
 522 1124 522 1124 582.5 1091.5 c 128,-1,44
 643 1059 643 1059 712.5 1025 c 128,-1,45
 782 991 782 991 842.5 950 c 128,-1,46
 903 909 903 909 943 858 c 128,-1,47
 983 807 983 807 983 739 c 0,48,49
 983 651 983 651 932 591.5 c 128,-1,50
 881 532 881 532 788 494 c 1,51,52
 874 442 874 442 934.5 378.5 c 128,-1,53
 995 315 995 315 995 229 c 0,54,55
 995 152 995 152 961.5 97.5 c 128,-1,56
 928 43 928 43 869.5 7 c 128,-1,57
 811 -29 811 -29 730 -45 c 128,-1,58
 649 -61 649 -61 557 -61 c 0,59,60
 453 -61 453 -61 369 -42 c 128,-1,61
 285 -23 285 -23 225.5 13 c 128,-1,62
 166 49 166 49 134 98 c 128,-1,63
 102 147 102 147 102 207 c 0,64,65
 102 252 102 252 117.5 282.5 c 128,-1,66
 133 313 133 313 157.5 332.5 c 128,-1,67
 182 352 182 352 212 361.5 c 128,-1,68
 242 371 242 371 270 371 c 0,69,70
 348 371 348 371 393 335 c 128,-1,71
 438 299 438 299 438 256 c 0,72,73
 438 209 438 209 408.5 189.5 c 128,-1,74
 379 170 379 170 338 158 c 1,75,76
 371 133 371 133 419 122 c 128,-1,77
 467 111 467 111 510 111 c 0,0,1
707 678 m 0,78,79
 707 705 707 705 688.5 728.5 c 128,-1,80
 670 752 670 752 638 775.5 c 128,-1,81
 606 799 606 799 565 822.5 c 128,-1,82
 524 846 524 846 479 870 c 1,83,84
 449 856 449 856 428.5 830.5 c 128,-1,85
 408 805 408 805 408 770 c 0,86,87
 408 741 408 741 426 716.5 c 128,-1,88
 444 692 444 692 475 669.5 c 128,-1,89
 506 647 506 647 547 624.5 c 128,-1,90
 588 602 588 602 633 578 c 1,91,92
 664 590 664 590 685.5 613.5 c 128,-1,93
 707 637 707 637 707 678 c 0,78,79
EndSplineSet
EndChar

StartChar: dieresis
Encoding: 168 168 106
Width: 1024
Flags: W
LayerCount: 2
Fore
SplineSet
172 1403 m 0,0,1
 172 1430 172 1430 183.5 1456.5 c 128,-1,2
 195 1483 195 1483 215.5 1502.5 c 128,-1,3
 236 1522 236 1522 262.5 1534 c 128,-1,4
 289 1546 289 1546 317 1546 c 0,5,6
 377 1546 377 1546 418 1504 c 128,-1,7
 459 1462 459 1462 459 1403 c 0,8,9
 459 1339 459 1339 419 1299.5 c 128,-1,10
 379 1260 379 1260 317 1260 c 0,11,12
 258 1260 258 1260 215 1301.5 c 128,-1,13
 172 1343 172 1343 172 1403 c 0,0,1
563 1403 m 0,14,15
 563 1458 563 1458 605 1502 c 128,-1,16
 647 1546 647 1546 707 1546 c 0,17,18
 766 1546 766 1546 808 1504 c 128,-1,19
 850 1462 850 1462 850 1403 c 0,20,21
 850 1339 850 1339 809 1299.5 c 128,-1,22
 768 1260 768 1260 707 1260 c 0,23,24
 647 1260 647 1260 605 1301.5 c 128,-1,25
 563 1343 563 1343 563 1403 c 0,14,15
EndSplineSet
EndChar

StartChar: copyright
Encoding: 169 169 107
Width: 1860
Flags: W
LayerCount: 2
Fore
SplineSet
154 737 m 0,0,1
 154 897 154 897 215 1038.5 c 128,-1,2
 276 1180 276 1180 381.5 1285.5 c 128,-1,3
 487 1391 487 1391 628.5 1452 c 128,-1,4
 770 1513 770 1513 930 1513 c 256,5,6
 1090 1513 1090 1513 1231 1452 c 128,-1,7
 1372 1391 1372 1391 1477.5 1285.5 c 128,-1,8
 1583 1180 1583 1180 1644.5 1038.5 c 128,-1,9
 1706 897 1706 897 1706 737 c 0,10,11
 1706 578 1706 578 1644.5 436.5 c 128,-1,12
 1583 295 1583 295 1477.5 189.5 c 128,-1,13
 1372 84 1372 84 1231 22.5 c 128,-1,14
 1090 -39 1090 -39 930 -39 c 256,15,16
 770 -39 770 -39 628.5 22.5 c 128,-1,17
 487 84 487 84 381.5 189.5 c 128,-1,18
 276 295 276 295 215 436.5 c 128,-1,19
 154 578 154 578 154 737 c 0,0,1
326 737 m 256,20,21
 326 612 326 612 373 501.5 c 128,-1,22
 420 391 420 391 502 309 c 128,-1,23
 584 227 584 227 694.5 180 c 128,-1,24
 805 133 805 133 930 133 c 256,25,26
 1055 133 1055 133 1165.5 180 c 128,-1,27
 1276 227 1276 227 1358 309 c 128,-1,28
 1440 391 1440 391 1487 501.5 c 128,-1,29
 1534 612 1534 612 1534 737 c 256,30,31
 1534 862 1534 862 1487 972.5 c 128,-1,32
 1440 1083 1440 1083 1358 1165 c 128,-1,33
 1276 1247 1276 1247 1165.5 1294 c 128,-1,34
 1055 1341 1055 1341 930 1341 c 256,35,36
 805 1341 805 1341 694.5 1294 c 128,-1,37
 584 1247 584 1247 502 1165 c 128,-1,38
 420 1083 420 1083 373 972.5 c 128,-1,39
 326 862 326 862 326 737 c 256,20,21
924 1157 m 0,40,41
 997 1157 997 1157 1050.5 1135.5 c 128,-1,42
 1104 1114 1104 1114 1126 1096 c 1,43,-1
 1126 1145 l 1,44,-1
 1307 1145 l 1,45,-1
 1307 838 l 1,46,-1
 1116 838 l 1,47,48
 1116 911 1116 911 1078 939 c 128,-1,49
 1040 967 1040 967 993 967 c 0,50,51
 930 967 930 967 896 915.5 c 128,-1,52
 862 864 862 864 862 733 c 256,53,54
 862 602 862 602 898 550 c 128,-1,55
 934 498 934 498 1006 498 c 0,56,57
 1053 498 1053 498 1094 533.5 c 128,-1,58
 1135 569 1135 569 1135 647 c 1,59,-1
 1325 647 l 1,60,61
 1325 578 1325 578 1302.5 516.5 c 128,-1,62
 1280 455 1280 455 1234 408.5 c 128,-1,63
 1188 362 1188 362 1116 335.5 c 128,-1,64
 1044 309 1044 309 946 309 c 0,65,66
 858 309 858 309 779 332.5 c 128,-1,67
 700 356 700 356 642 407.5 c 128,-1,68
 584 459 584 459 550 538.5 c 128,-1,69
 516 618 516 618 516 733 c 0,70,71
 516 846 516 846 550 927 c 128,-1,72
 584 1008 584 1008 641 1059 c 128,-1,73
 698 1110 698 1110 772 1133.5 c 128,-1,74
 846 1157 846 1157 924 1157 c 0,40,41
EndSplineSet
EndChar

StartChar: ordfeminine
Encoding: 170 170 108
Width: 1208
Flags: W
LayerCount: 2
Fore
SplineSet
457 1350 m 0,0,1
 422 1350 422 1350 403.5 1345.5 c 128,-1,2
 385 1341 385 1341 377 1337 c 128,-1,3
 369 1333 369 1333 367 1327 c 128,-1,4
 365 1321 365 1321 365 1319 c 0,5,6
 365 1309 365 1309 378 1304.5 c 128,-1,7
 391 1300 391 1300 406.5 1292 c 128,-1,8
 422 1284 422 1284 435.5 1269.5 c 128,-1,9
 449 1255 449 1255 449 1229 c 0,10,11
 449 1176 449 1176 400.5 1143 c 128,-1,12
 352 1110 352 1110 274 1110 c 0,13,14
 199 1110 199 1110 155 1151 c 128,-1,15
 111 1192 111 1192 111 1266 c 0,16,17
 111 1307 111 1307 138.5 1348 c 128,-1,18
 166 1389 166 1389 221 1420.5 c 128,-1,19
 276 1452 276 1452 359 1472.5 c 128,-1,20
 442 1493 442 1493 553 1493 c 0,21,22
 688 1493 688 1493 772 1470.5 c 128,-1,23
 856 1448 856 1448 904 1411 c 128,-1,24
 952 1374 952 1374 969.5 1327 c 128,-1,25
 987 1280 987 1280 987 1231 c 2,26,-1
 987 1010 l 2,27,28
 987 950 987 950 991 927.5 c 128,-1,29
 995 905 995 905 1024 905 c 0,30,31
 1047 905 1047 905 1055 925.5 c 128,-1,32
 1063 946 1063 946 1063 993 c 2,33,-1
 1063 1036 l 1,34,-1
 1147 1036 l 1,35,-1
 1147 952 l 2,36,37
 1147 893 1147 893 1135.5 846 c 128,-1,38
 1124 799 1124 799 1094.5 766 c 128,-1,39
 1065 733 1065 733 1013 715.5 c 128,-1,40
 961 698 961 698 879 698 c 0,41,42
 807 698 807 698 759 712.5 c 128,-1,43
 711 727 711 727 683 747.5 c 128,-1,44
 655 768 655 768 643 791.5 c 128,-1,45
 631 815 631 815 631 834 c 1,46,-1
 621 834 l 1,47,48
 610 778 610 778 538.5 736 c 128,-1,49
 467 694 467 694 336 694 c 0,50,51
 211 694 211 694 136 740 c 128,-1,52
 61 786 61 786 61 893 c 0,53,54
 61 956 61 956 100 993 c 128,-1,55
 139 1030 139 1030 198.5 1052.5 c 128,-1,56
 258 1075 258 1075 326.5 1088.5 c 128,-1,57
 395 1102 395 1102 454.5 1121.5 c 128,-1,58
 514 1141 514 1141 553 1171.5 c 128,-1,59
 592 1202 592 1202 592 1260 c 0,60,61
 592 1309 592 1309 553 1329.5 c 128,-1,62
 514 1350 514 1350 457 1350 c 0,0,1
592 1061 m 1,63,64
 573 1038 573 1038 548.5 1029 c 128,-1,65
 524 1020 524 1020 502.5 1010.5 c 128,-1,66
 481 1001 481 1001 466 987 c 128,-1,67
 451 973 451 973 451 944 c 0,68,69
 451 922 451 922 465 904.5 c 128,-1,70
 479 887 479 887 514 887 c 256,71,72
 549 887 549 887 570.5 911.5 c 128,-1,73
 592 936 592 936 592 981 c 2,74,-1
 592 1061 l 1,63,64
117 623 m 1,75,-1
 1071 623 l 1,76,-1
 1071 371 l 1,77,-1
 117 371 l 1,78,-1
 117 623 l 1,75,-1
EndSplineSet
EndChar

StartChar: guillemotleft
Encoding: 171 171 109
Width: 1028
Flags: W
LayerCount: 2
Fore
SplineSet
283 219 m 1,0,1
 221 303 221 303 182 361.5 c 128,-1,2
 143 420 143 420 120.5 459 c 128,-1,3
 98 498 98 498 90 521.5 c 128,-1,4
 82 545 82 545 82 561 c 0,5,6
 82 575 82 575 90 599 c 128,-1,7
 98 623 98 623 120.5 662.5 c 128,-1,8
 143 702 143 702 182 760.5 c 128,-1,9
 221 819 221 819 283 903 c 1,10,-1
 545 903 l 1,11,12
 508 813 508 813 484.5 751.5 c 128,-1,13
 461 690 461 690 448.5 652 c 128,-1,14
 436 614 436 614 432 592.5 c 128,-1,15
 428 571 428 571 428 561 c 0,16,17
 428 543 428 543 433 519.5 c 128,-1,18
 438 496 438 496 452.5 457 c 128,-1,19
 467 418 467 418 492.5 361.5 c 128,-1,20
 518 305 518 305 557 219 c 1,21,-1
 283 219 l 1,0,1
692 219 m 1,22,23
 631 303 631 303 592 361.5 c 128,-1,24
 553 420 553 420 530.5 459 c 128,-1,25
 508 498 508 498 500 521.5 c 128,-1,26
 492 545 492 545 492 561 c 0,27,28
 492 575 492 575 500 599 c 128,-1,29
 508 623 508 623 530.5 662.5 c 128,-1,30
 553 702 553 702 592 760.5 c 128,-1,31
 631 819 631 819 692 903 c 1,32,-1
 954 903 l 1,33,34
 918 813 918 813 894 751.5 c 128,-1,35
 870 690 870 690 858 652 c 128,-1,36
 846 614 846 614 842 592.5 c 128,-1,37
 838 571 838 571 838 561 c 0,38,39
 838 543 838 543 843 519.5 c 128,-1,40
 848 496 848 496 862.5 457 c 128,-1,41
 877 418 877 418 902.5 361.5 c 128,-1,42
 928 305 928 305 967 219 c 1,43,-1
 692 219 l 1,22,23
EndSplineSet
EndChar

StartChar: logicalnot
Encoding: 172 172 110
Width: 1434
Flags: W
LayerCount: 2
Fore
SplineSet
934 737 m 1,0,-1
 154 737 l 1,1,-1
 154 1063 l 1,2,-1
 1260 1063 l 1,3,-1
 1260 387 l 1,4,-1
 934 387 l 1,5,-1
 934 737 l 1,0,-1
EndSplineSet
EndChar

StartChar: uni00AD
Encoding: 173 173 111
Width: 860
Flags: W
LayerCount: 2
Fore
SplineSet
82 819 m 1,0,-1
 778 819 l 1,1,-1
 778 424 l 1,2,-1
 82 424 l 1,3,-1
 82 819 l 1,0,-1
EndSplineSet
EndChar

StartChar: registered
Encoding: 174 174 112
Width: 1368
Flags: W
LayerCount: 2
Fore
SplineSet
102 932 m 256,0,1
 102 1053 102 1053 148.5 1158.5 c 128,-1,2
 195 1264 195 1264 273.5 1342.5 c 128,-1,3
 352 1421 352 1421 457.5 1467 c 128,-1,4
 563 1513 563 1513 684 1513 c 256,5,6
 805 1513 805 1513 910.5 1467 c 128,-1,7
 1016 1421 1016 1421 1095 1342.5 c 128,-1,8
 1174 1264 1174 1264 1220 1158.5 c 128,-1,9
 1266 1053 1266 1053 1266 932 c 256,10,11
 1266 811 1266 811 1220 705.5 c 128,-1,12
 1174 600 1174 600 1095 521 c 128,-1,13
 1016 442 1016 442 910.5 396 c 128,-1,14
 805 350 805 350 684 350 c 256,15,16
 563 350 563 350 457.5 396 c 128,-1,17
 352 442 352 442 273.5 521 c 128,-1,18
 195 600 195 600 148.5 705.5 c 128,-1,19
 102 811 102 811 102 932 c 256,0,1
231 932 m 256,20,21
 231 838 231 838 267 756 c 128,-1,22
 303 674 303 674 364.5 612.5 c 128,-1,23
 426 551 426 551 508 515 c 128,-1,24
 590 479 590 479 684 479 c 256,25,26
 778 479 778 479 860 515 c 128,-1,27
 942 551 942 551 1003.5 612.5 c 128,-1,28
 1065 674 1065 674 1101 756 c 128,-1,29
 1137 838 1137 838 1137 932 c 256,30,31
 1137 1026 1137 1026 1101 1108 c 128,-1,32
 1065 1190 1065 1190 1003.5 1251.5 c 128,-1,33
 942 1313 942 1313 860 1348.5 c 128,-1,34
 778 1384 778 1384 684 1384 c 256,35,36
 590 1384 590 1384 508 1348.5 c 128,-1,37
 426 1313 426 1313 364.5 1251.5 c 128,-1,38
 303 1190 303 1190 267 1108 c 128,-1,39
 231 1026 231 1026 231 932 c 256,20,21
379 635 m 1,40,-1
 379 778 l 1,41,42
 414 778 414 778 427 787.5 c 128,-1,43
 440 797 440 797 440 825 c 2,44,-1
 440 1055 l 2,45,46
 440 1081 440 1081 427 1091.5 c 128,-1,47
 414 1102 414 1102 379 1102 c 1,48,-1
 379 1245 l 1,49,-1
 772 1245 l 2,50,51
 883 1245 883 1245 924 1199 c 128,-1,52
 965 1153 965 1153 965 1075 c 0,53,54
 965 1006 965 1006 935 965 c 128,-1,55
 905 924 905 924 840 920 c 1,56,-1
 840 915 l 1,57,58
 905 909 905 909 925.5 873.5 c 128,-1,59
 946 838 946 838 946 778 c 2,60,-1
 946 756 l 2,61,62
 946 729 946 729 967 729 c 0,63,64
 987 729 987 729 987 756 c 2,65,-1
 987 860 l 1,66,-1
 1049 860 l 1,67,-1
 1049 756 l 2,68,69
 1049 696 1049 696 1014 657 c 128,-1,70
 979 618 979 618 895 618 c 0,71,72
 844 618 844 618 815 628.5 c 128,-1,73
 786 639 786 639 772 657.5 c 128,-1,74
 758 676 758 676 755 700.5 c 128,-1,75
 752 725 752 725 752 754 c 2,76,-1
 752 784 l 2,77,78
 752 817 752 817 745.5 834.5 c 128,-1,79
 739 852 739 852 728 859 c 128,-1,80
 717 866 717 866 701.5 867 c 128,-1,81
 686 868 686 868 668 868 c 2,82,-1
 639 868 l 1,83,-1
 639 819 l 2,84,85
 639 797 639 797 649 787.5 c 128,-1,86
 659 778 659 778 688 778 c 1,87,-1
 688 635 l 1,88,-1
 379 635 l 1,40,-1
639 963 m 1,89,-1
 713 963 l 2,90,91
 743 963 743 963 754.5 980 c 128,-1,92
 766 997 766 997 766 1026 c 0,93,94
 766 1061 766 1061 754.5 1081.5 c 128,-1,95
 743 1102 743 1102 713 1102 c 2,96,-1
 639 1102 l 1,97,-1
 639 963 l 1,89,-1
EndSplineSet
EndChar

StartChar: macron
Encoding: 175 175 113
Width: 1024
Flags: W
LayerCount: 2
Fore
SplineSet
205 1507 m 1,0,-1
 819 1507 l 1,1,-1
 819 1278 l 1,2,-1
 205 1278 l 1,3,-1
 205 1507 l 1,0,-1
EndSplineSet
EndChar

StartChar: degree
Encoding: 176 176 114
Width: 674
Flags: W
LayerCount: 2
Fore
SplineSet
338 1493 m 0,0,1
 401 1493 401 1493 456.5 1468.5 c 128,-1,2
 512 1444 512 1444 553 1403 c 128,-1,3
 594 1362 594 1362 617.5 1306.5 c 128,-1,4
 641 1251 641 1251 641 1188 c 0,5,6
 641 1126 641 1126 617.5 1071 c 128,-1,7
 594 1016 594 1016 552 974 c 128,-1,8
 510 932 510 932 454.5 908.5 c 128,-1,9
 399 885 399 885 336 885 c 0,10,11
 272 885 272 885 218 908.5 c 128,-1,12
 164 932 164 932 123 973 c 128,-1,13
 82 1014 82 1014 58.5 1069 c 128,-1,14
 35 1124 35 1124 35 1188 c 0,15,16
 35 1251 35 1251 58.5 1306.5 c 128,-1,17
 82 1362 82 1362 123 1404 c 128,-1,18
 164 1446 164 1446 219 1469.5 c 128,-1,19
 274 1493 274 1493 338 1493 c 0,0,1
338 1305 m 0,20,21
 291 1305 291 1305 257 1271 c 128,-1,22
 223 1237 223 1237 223 1188 c 0,23,24
 223 1141 223 1141 257 1107 c 128,-1,25
 291 1073 291 1073 338 1073 c 0,26,27
 387 1073 387 1073 421 1108 c 128,-1,28
 455 1143 455 1143 455 1188 c 0,29,30
 455 1237 455 1237 421 1271 c 128,-1,31
 387 1305 387 1305 338 1305 c 0,20,21
EndSplineSet
EndChar

StartChar: plusminus
Encoding: 177 177 115
Width: 1434
Flags: W
LayerCount: 2
Fore
SplineSet
553 758 m 1,0,-1
 174 758 l 1,1,-1
 174 1083 l 1,2,-1
 553 1083 l 1,3,-1
 553 1401 l 1,4,-1
 879 1401 l 1,5,-1
 879 1083 l 1,6,-1
 1260 1083 l 1,7,-1
 1260 758 l 1,8,-1
 879 758 l 1,9,-1
 879 438 l 1,10,-1
 553 438 l 1,11,-1
 553 758 l 1,0,-1
1260 326 m 1,12,-1
 1260 0 l 1,13,-1
 174 0 l 1,14,-1
 174 326 l 1,15,-1
 1260 326 l 1,12,-1
EndSplineSet
EndChar

StartChar: twosuperior
Encoding: 178 178 116
Width: 1094
Flags: W
LayerCount: 2
Fore
SplineSet
297 682 m 1,0,1
 311 698 311 698 332.5 717.5 c 128,-1,2
 354 737 354 737 384 754.5 c 128,-1,3
 414 772 414 772 449.5 783.5 c 128,-1,4
 485 795 485 795 532 795 c 0,5,6
 580 795 580 795 612.5 790.5 c 128,-1,7
 645 786 645 786 670.5 780 c 128,-1,8
 696 774 696 774 720.5 770 c 128,-1,9
 745 766 745 766 774 766 c 0,10,11
 827 766 827 766 859 782.5 c 128,-1,12
 891 799 891 799 891 858 c 1,13,-1
 1053 858 l 1,14,15
 1053 731 1053 731 1024 655.5 c 128,-1,16
 995 580 995 580 946 541 c 128,-1,17
 897 502 897 502 832.5 490.5 c 128,-1,18
 768 479 768 479 696 479 c 0,19,20
 641 479 641 479 590 489.5 c 128,-1,21
 539 500 539 500 494 512 c 128,-1,22
 449 524 449 524 407 534.5 c 128,-1,23
 365 545 365 545 328 545 c 0,24,25
 295 545 295 545 275.5 536.5 c 128,-1,26
 256 528 256 528 244 518 c 1,27,28
 229 508 229 508 223 494 c 1,29,-1
 47 494 l 1,30,31
 47 627 47 627 89 715 c 128,-1,32
 131 803 131 803 194.5 861.5 c 128,-1,33
 258 920 258 920 330.5 957.5 c 128,-1,34
 403 995 403 995 466.5 1027 c 128,-1,35
 530 1059 530 1059 572 1093.5 c 128,-1,36
 614 1128 614 1128 614 1182 c 0,37,38
 614 1235 614 1235 566 1260.5 c 128,-1,39
 518 1286 518 1286 446 1286 c 0,40,41
 399 1286 399 1286 364.5 1279 c 128,-1,42
 330 1272 330 1272 295 1255 c 1,43,44
 340 1243 340 1243 371.5 1222.5 c 128,-1,45
 403 1202 403 1202 403 1149 c 0,46,47
 403 1102 403 1102 356 1064 c 128,-1,48
 309 1026 309 1026 223 1026 c 0,49,50
 193 1026 193 1026 160 1035 c 128,-1,51
 127 1044 127 1044 101.5 1065.5 c 128,-1,52
 76 1087 76 1087 58.5 1120 c 128,-1,53
 41 1153 41 1153 41 1202 c 0,54,55
 41 1266 41 1266 78 1319 c 128,-1,56
 115 1372 115 1372 180.5 1411 c 128,-1,57
 246 1450 246 1450 339 1471.5 c 128,-1,58
 432 1493 432 1493 543 1493 c 0,59,60
 662 1493 662 1493 755 1469.5 c 128,-1,61
 848 1446 848 1446 912.5 1406 c 128,-1,62
 977 1366 977 1366 1012 1310.5 c 128,-1,63
 1047 1255 1047 1255 1047 1194 c 0,64,65
 1047 1094 1047 1094 1000.5 1037.5 c 128,-1,66
 954 981 954 981 882.5 949.5 c 128,-1,67
 811 918 811 918 723 900.5 c 128,-1,68
 635 883 635 883 550 859.5 c 128,-1,69
 465 836 465 836 394.5 798 c 128,-1,70
 324 760 324 760 285 686 c 1,71,-1
 297 682 l 1,0,1
EndSplineSet
EndChar

StartChar: threesuperior
Encoding: 179 179 117
Width: 1147
Flags: W
LayerCount: 2
Fore
SplineSet
485 1286 m 0,0,1
 412 1286 412 1286 380 1271.5 c 128,-1,2
 348 1257 348 1257 332 1243 c 1,3,4
 362 1245 362 1245 398 1227.5 c 128,-1,5
 434 1210 434 1210 434 1153 c 0,6,7
 434 1100 434 1100 387 1068 c 128,-1,8
 340 1036 340 1036 262 1036 c 0,9,10
 186 1036 186 1036 128 1080 c 128,-1,11
 70 1124 70 1124 70 1214 c 0,12,13
 70 1341 70 1341 201 1417 c 128,-1,14
 332 1493 332 1493 557 1493 c 0,15,16
 651 1493 651 1493 743.5 1479.5 c 128,-1,17
 836 1466 836 1466 909.5 1435.5 c 128,-1,18
 983 1405 983 1405 1029 1354 c 128,-1,19
 1075 1303 1075 1303 1075 1227 c 0,20,21
 1075 1036 1075 1036 836 999 c 1,22,-1
 836 993 l 1,23,24
 956 979 956 979 1031 919.5 c 128,-1,25
 1106 860 1106 860 1106 748 c 0,26,27
 1106 700 1106 700 1075 650 c 128,-1,28
 1044 600 1044 600 977.5 559 c 128,-1,29
 911 518 911 518 805.5 492.5 c 128,-1,30
 700 467 700 467 553 467 c 0,31,32
 414 467 414 467 316.5 493.5 c 128,-1,33
 219 520 219 520 157.5 564 c 128,-1,34
 96 608 96 608 68.5 663.5 c 128,-1,35
 41 719 41 719 41 774 c 0,36,37
 41 866 41 866 96.5 914.5 c 128,-1,38
 152 963 152 963 229 963 c 0,39,40
 279 963 279 963 312.5 950.5 c 128,-1,41
 346 938 346 938 368.5 919.5 c 128,-1,42
 391 901 391 901 401.5 878.5 c 128,-1,43
 412 856 412 856 412 836 c 0,44,45
 412 778 412 778 377 753.5 c 128,-1,46
 342 729 342 729 295 721 c 1,47,48
 334 698 334 698 377 688 c 128,-1,49
 420 678 420 678 479 678 c 0,50,51
 580 678 580 678 627 710.5 c 128,-1,52
 674 743 674 743 674 803 c 0,53,54
 674 836 674 836 659.5 859.5 c 128,-1,55
 645 883 645 883 622.5 897 c 128,-1,56
 600 911 600 911 571.5 917.5 c 128,-1,57
 543 924 543 924 512 924 c 2,58,-1
 461 924 l 1,59,-1
 461 1069 l 1,60,-1
 512 1069 l 2,61,62
 584 1069 584 1069 618.5 1102 c 128,-1,63
 653 1135 653 1135 653 1174 c 0,64,65
 653 1235 653 1235 602 1260.5 c 128,-1,66
 551 1286 551 1286 485 1286 c 0,0,1
EndSplineSet
EndChar

StartChar: acute
Encoding: 180 180 118
Width: 1024
Flags: W
LayerCount: 2
Fore
SplineSet
907 1548 m 1,0,-1
 541 1239 l 1,1,-1
 295 1239 l 1,2,-1
 504 1548 l 1,3,-1
 907 1548 l 1,0,-1
EndSplineSet
EndChar

StartChar: micro
Encoding: 181 181 119
Width: 1567
Flags: W
LayerCount: 2
Fore
SplineSet
844 -53 m 0,0,1
 752 -53 752 -53 699.5 20.5 c 128,-1,2
 647 94 647 94 623 209 c 1,3,-1
 602 205 l 1,4,5
 612 162 612 162 621 123 c 1,6,7
 627 88 627 88 633 53 c 128,-1,8
 639 18 639 18 639 -6 c 2,9,-1
 639 -70 l 2,10,11
 639 -119 639 -119 657.5 -140.5 c 128,-1,12
 676 -162 676 -162 725 -162 c 2,13,-1
 780 -162 l 1,14,-1
 780 -471 l 1,15,-1
 68 -471 l 1,16,-1
 68 -162 l 1,17,-1
 123 -162 l 2,18,19
 162 -162 162 -162 182.5 -137.5 c 128,-1,20
 203 -113 203 -113 203 -78 c 2,21,-1
 203 565 l 2,22,23
 203 614 203 614 184.5 635.5 c 128,-1,24
 166 657 166 657 117 657 c 2,25,-1
 61 657 l 1,26,-1
 61 967 l 1,27,-1
 678 967 l 1,28,-1
 678 414 l 2,29,30
 678 377 678 377 687 355.5 c 128,-1,31
 696 334 696 334 709.5 321.5 c 128,-1,32
 723 309 723 309 739.5 305 c 128,-1,33
 756 301 756 301 772 301 c 0,34,35
 834 301 834 301 863.5 337 c 128,-1,36
 893 373 893 373 893 438 c 2,37,-1
 893 565 l 2,38,39
 893 614 893 614 875.5 635.5 c 128,-1,40
 858 657 858 657 809 657 c 2,41,-1
 793 657 l 1,42,-1
 793 967 l 1,43,-1
 1370 967 l 1,44,-1
 1370 393 l 2,45,46
 1370 371 1370 371 1377 350.5 c 128,-1,47
 1384 330 1384 330 1399.5 317.5 c 128,-1,48
 1415 305 1415 305 1440.5 303 c 128,-1,49
 1466 301 1466 301 1505 319 c 1,50,-1
 1505 -29 l 1,51,52
 1485 -37 1485 -37 1456 -43 c 0,53,54
 1432 -47 1432 -47 1394 -51 c 128,-1,55
 1356 -55 1356 -55 1303 -55 c 0,56,57
 1249 -55 1249 -55 1205 -44 c 128,-1,58
 1161 -33 1161 -33 1129.5 -2 c 128,-1,59
 1098 29 1098 29 1080.5 84 c 128,-1,60
 1063 139 1063 139 1063 229 c 1,61,-1
 1047 229 l 1,62,63
 1026 86 1026 86 973 16.5 c 128,-1,64
 920 -53 920 -53 844 -53 c 0,0,1
EndSplineSet
EndChar

StartChar: paragraph
Encoding: 182 182 120
Width: 1229
Flags: W
LayerCount: 2
Fore
SplineSet
1167 1260 m 1,0,-1
 1055 1260 l 1,1,-1
 1055 0 l 1,2,-1
 821 0 l 1,3,-1
 821 1260 l 1,4,-1
 682 1260 l 1,5,-1
 682 0 l 1,6,-1
 449 0 l 1,7,-1
 449 655 l 1,8,9
 356 657 356 657 283.5 694 c 128,-1,10
 211 731 211 731 162 788.5 c 128,-1,11
 113 846 113 846 87 917.5 c 128,-1,12
 61 989 61 989 61 1063 c 0,13,14
 61 1139 61 1139 86 1212.5 c 128,-1,15
 111 1286 111 1286 159 1344.5 c 128,-1,16
 207 1403 207 1403 280.5 1438 c 128,-1,17
 354 1473 354 1473 453 1473 c 2,18,-1
 1167 1473 l 1,19,-1
 1167 1260 l 1,0,-1
EndSplineSet
EndChar

StartChar: periodcentered
Encoding: 183 183 121
Width: 672
Flags: W
LayerCount: 2
Fore
SplineSet
82 725 m 0,0,1
 82 776 82 776 102.5 823 c 128,-1,2
 123 870 123 870 156.5 904 c 128,-1,3
 190 938 190 938 236.5 958.5 c 128,-1,4
 283 979 283 979 336 979 c 0,5,6
 387 979 387 979 434 958.5 c 128,-1,7
 481 938 481 938 515 904 c 128,-1,8
 549 870 549 870 569.5 823 c 128,-1,9
 590 776 590 776 590 725 c 0,10,11
 590 672 590 672 569.5 626 c 128,-1,12
 549 580 549 580 515 546 c 128,-1,13
 481 512 481 512 434 491.5 c 128,-1,14
 387 471 387 471 336 471 c 0,15,16
 283 471 283 471 236.5 491.5 c 128,-1,17
 190 512 190 512 156.5 546 c 128,-1,18
 123 580 123 580 102.5 626 c 128,-1,19
 82 672 82 672 82 725 c 0,0,1
EndSplineSet
EndChar

StartChar: cedilla
Encoding: 184 184 122
Width: 1024
Flags: W
LayerCount: 2
Fore
SplineSet
244 -248 m 1,0,1
 309 -287 309 -287 376.5 -310.5 c 128,-1,2
 444 -334 444 -334 487 -334 c 0,3,4
 514 -334 514 -334 536.5 -321.5 c 128,-1,5
 559 -309 559 -309 559 -279 c 0,6,7
 559 -256 559 -256 541.5 -236.5 c 128,-1,8
 524 -217 524 -217 487 -217 c 0,9,10
 475 -217 475 -217 449.5 -219 c 128,-1,11
 424 -221 424 -221 406 -225 c 1,12,-1
 406 20 l 1,13,-1
 535 20 l 1,14,-1
 535 -94 l 1,15,16
 563 -90 563 -90 571.5 -89 c 128,-1,17
 580 -88 580 -88 592 -88 c 0,18,19
 702 -88 702 -88 754.5 -146.5 c 128,-1,20
 807 -205 807 -205 807 -281 c 0,21,22
 807 -365 807 -365 741.5 -427 c 128,-1,23
 676 -489 676 -489 551 -489 c 0,24,25
 434 -489 434 -489 347 -461.5 c 128,-1,26
 260 -434 260 -434 174 -393 c 1,27,-1
 244 -248 l 1,0,1
EndSplineSet
EndChar

StartChar: onesuperior
Encoding: 185 185 123
Width: 758
Flags: W
LayerCount: 2
Fore
SplineSet
31 1348 m 1,0,1
 61 1348 61 1348 97 1353 c 128,-1,2
 133 1358 133 1358 161.5 1372 c 128,-1,3
 190 1386 190 1386 209.5 1411 c 128,-1,4
 229 1436 229 1436 229 1473 c 1,5,-1
 584 1473 l 1,6,-1
 584 827 l 2,7,8
 584 780 584 780 607.5 767 c 128,-1,9
 631 754 631 754 668 754 c 2,10,-1
 717 754 l 1,11,-1
 717 485 l 1,12,-1
 45 485 l 1,13,-1
 45 754 l 1,14,-1
 102 754 l 2,15,16
 141 754 141 754 159.5 776.5 c 128,-1,17
 178 799 178 799 178 825 c 2,18,-1
 178 1108 l 1,19,-1
 31 1108 l 1,20,-1
 31 1348 l 1,0,1
EndSplineSet
EndChar

StartChar: ordmasculine
Encoding: 186 186 124
Width: 1161
Flags: W
LayerCount: 2
Fore
SplineSet
61 1096 m 0,0,1
 61 1194 61 1194 98 1268.5 c 128,-1,2
 135 1343 135 1343 202.5 1392.5 c 128,-1,3
 270 1442 270 1442 366.5 1467.5 c 128,-1,4
 463 1493 463 1493 582 1493 c 0,5,6
 698 1493 698 1493 794.5 1467.5 c 128,-1,7
 891 1442 891 1442 958.5 1392.5 c 128,-1,8
 1026 1343 1026 1343 1063 1268.5 c 128,-1,9
 1100 1194 1100 1194 1100 1096 c 0,10,11
 1100 997 1100 997 1063 923.5 c 128,-1,12
 1026 850 1026 850 958.5 799 c 128,-1,13
 891 748 891 748 794.5 722 c 128,-1,14
 698 696 698 696 582 696 c 0,15,16
 463 696 463 696 366.5 722 c 128,-1,17
 270 748 270 748 202.5 799 c 128,-1,18
 135 850 135 850 98 923.5 c 128,-1,19
 61 997 61 997 61 1096 c 0,0,1
473 1096 m 0,20,21
 473 981 473 981 494.5 936 c 128,-1,22
 516 891 516 891 582 891 c 0,23,24
 647 891 647 891 668.5 936 c 128,-1,25
 690 981 690 981 690 1096 c 0,26,27
 690 1210 690 1210 668.5 1254 c 128,-1,28
 647 1298 647 1298 582 1298 c 0,29,30
 516 1298 516 1298 494.5 1254 c 128,-1,31
 473 1210 473 1210 473 1096 c 0,20,21
125 623 m 1,32,-1
 1038 623 l 1,33,-1
 1038 371 l 1,34,-1
 125 371 l 1,35,-1
 125 623 l 1,32,-1
EndSplineSet
EndChar

StartChar: guillemotright
Encoding: 187 187 125
Width: 1028
Flags: W
LayerCount: 2
Fore
SplineSet
471 219 m 1,0,1
 510 305 510 305 535.5 361.5 c 128,-1,2
 561 418 561 418 575.5 457 c 128,-1,3
 590 496 590 496 595 519.5 c 128,-1,4
 600 543 600 543 600 561 c 0,5,6
 600 571 600 571 596 592.5 c 128,-1,7
 592 614 592 614 579.5 652 c 128,-1,8
 567 690 567 690 543.5 751.5 c 128,-1,9
 520 813 520 813 483 903 c 1,10,-1
 745 903 l 1,11,12
 807 819 807 819 846 760.5 c 128,-1,13
 885 702 885 702 907.5 662.5 c 128,-1,14
 930 623 930 623 938 599 c 128,-1,15
 946 575 946 575 946 561 c 0,16,17
 946 545 946 545 938 521.5 c 128,-1,18
 930 498 930 498 907.5 459 c 128,-1,19
 885 420 885 420 846 361.5 c 128,-1,20
 807 303 807 303 745 219 c 1,21,-1
 471 219 l 1,0,1
61 219 m 1,22,23
 100 305 100 305 126 361.5 c 128,-1,24
 152 418 152 418 166 457 c 128,-1,25
 180 496 180 496 185 519.5 c 128,-1,26
 190 543 190 543 190 561 c 0,27,28
 190 571 190 571 186 592.5 c 128,-1,29
 182 614 182 614 170 652 c 128,-1,30
 158 690 158 690 134.5 751.5 c 128,-1,31
 111 813 111 813 74 903 c 1,32,-1
 336 903 l 1,33,34
 397 819 397 819 436 760.5 c 128,-1,35
 475 702 475 702 497.5 662.5 c 128,-1,36
 520 623 520 623 528.5 599 c 128,-1,37
 537 575 537 575 537 561 c 0,38,39
 537 545 537 545 528.5 521.5 c 128,-1,40
 520 498 520 498 497.5 459 c 128,-1,41
 475 420 475 420 436 361.5 c 128,-1,42
 397 303 397 303 336 219 c 1,43,-1
 61 219 l 1,22,23
EndSplineSet
EndChar

StartChar: onequarter
Encoding: 188 188 126
Width: 1882
Flags: W
LayerCount: 2
Fore
SplineSet
1321 1473 m 1,0,-1
 1610 1473 l 1,1,-1
 526 0 l 1,2,-1
 238 0 l 1,3,-1
 1321 1473 l 1,0,-1
985 426 m 1,4,-1
 1323 786 l 1,5,-1
 1649 786 l 1,6,-1
 1649 379 l 1,7,-1
 1780 379 l 1,8,-1
 1780 254 l 1,9,-1
 1649 254 l 1,10,-1
 1649 229 l 2,11,12
 1649 193 1649 193 1662 186.5 c 128,-1,13
 1675 180 1675 180 1706 180 c 2,14,-1
 1753 180 l 1,15,-1
 1753 0 l 1,16,-1
 1221 0 l 1,17,-1
 1221 180 l 1,18,-1
 1276 180 l 2,19,20
 1307 180 1307 180 1315 193.5 c 128,-1,21
 1323 207 1323 207 1323 227 c 2,22,-1
 1323 254 l 1,23,-1
 985 254 l 1,24,-1
 985 426 l 1,4,-1
1122 379 m 1,25,-1
 1323 379 l 1,26,-1
 1323 596 l 1,27,-1
 1122 379 l 1,25,-1
102 1372 m 1,28,29
 127 1372 127 1372 155.5 1376 c 128,-1,30
 184 1380 184 1380 207.5 1391.5 c 128,-1,31
 231 1403 231 1403 246.5 1422.5 c 128,-1,32
 262 1442 262 1442 262 1473 c 1,33,-1
 526 1473 l 1,34,-1
 526 954 l 2,35,36
 526 918 526 918 544.5 906.5 c 128,-1,37
 563 895 563 895 594 895 c 2,38,-1
 633 895 l 1,39,-1
 633 680 l 1,40,-1
 115 680 l 1,41,-1
 115 895 l 1,42,-1
 160 895 l 2,43,44
 190 895 190 895 205.5 913.5 c 128,-1,45
 221 932 221 932 221 952 c 2,46,-1
 221 1180 l 1,47,-1
 102 1180 l 1,48,-1
 102 1372 l 1,28,29
EndSplineSet
EndChar

StartChar: onehalf
Encoding: 189 189 127
Width: 1989
Flags: W
LayerCount: 2
Fore
SplineSet
1321 1473 m 1,0,-1
 1610 1473 l 1,1,-1
 526 0 l 1,2,-1
 238 0 l 1,3,-1
 1321 1473 l 1,0,-1
102 1372 m 1,4,5
 127 1372 127 1372 155.5 1376 c 128,-1,6
 184 1380 184 1380 207.5 1391.5 c 128,-1,7
 231 1403 231 1403 246.5 1422.5 c 128,-1,8
 262 1442 262 1442 262 1473 c 1,9,-1
 526 1473 l 1,10,-1
 526 954 l 2,11,12
 526 918 526 918 544.5 906.5 c 128,-1,13
 563 895 563 895 594 895 c 2,14,-1
 633 895 l 1,15,-1
 633 680 l 1,16,-1
 115 680 l 1,17,-1
 115 895 l 1,18,-1
 160 895 l 2,19,20
 190 895 190 895 205.5 913.5 c 128,-1,21
 221 932 221 932 221 952 c 2,22,-1
 221 1180 l 1,23,-1
 102 1180 l 1,24,-1
 102 1372 l 1,4,5
1284 170 m 1,25,26
 1309 197 1309 197 1354 228.5 c 128,-1,27
 1399 260 1399 260 1473 260 c 0,28,29
 1509 260 1509 260 1536 256 c 128,-1,30
 1563 252 1563 252 1584.5 248 c 128,-1,31
 1606 244 1606 244 1623 240 c 128,-1,32
 1640 236 1640 236 1659 236 c 0,33,34
 1692 236 1692 236 1714.5 249 c 128,-1,35
 1737 262 1737 262 1737 309 c 1,36,-1
 1886 309 l 1,37,38
 1886 207 1886 207 1863.5 144.5 c 128,-1,39
 1841 82 1841 82 1802 47 c 128,-1,40
 1763 12 1763 12 1712 0 c 128,-1,41
 1661 -12 1661 -12 1604 -12 c 0,42,43
 1559 -12 1559 -12 1519 -4 c 128,-1,44
 1479 4 1479 4 1442 13.5 c 128,-1,45
 1405 23 1405 23 1372 31 c 128,-1,46
 1339 39 1339 39 1309 39 c 0,47,48
 1284 39 1284 39 1268.5 33 c 128,-1,49
 1253 27 1253 27 1243 18 c 0,50,51
 1233 10 1233 10 1227 0 c 1,52,-1
 1085 0 l 1,53,54
 1085 106 1085 106 1118 176 c 128,-1,55
 1151 246 1151 246 1199 293 c 128,-1,56
 1247 340 1247 340 1304.5 368.5 c 128,-1,57
 1362 397 1362 397 1410 423 c 128,-1,58
 1458 449 1458 449 1491 476.5 c 128,-1,59
 1524 504 1524 504 1524 547 c 256,60,61
 1524 590 1524 590 1489 610.5 c 128,-1,62
 1454 631 1454 631 1405 631 c 0,63,64
 1366 631 1366 631 1339.5 624.5 c 128,-1,65
 1313 618 1313 618 1284 606 c 1,66,67
 1319 596 1319 596 1344.5 578.5 c 128,-1,68
 1370 561 1370 561 1370 520 c 0,69,70
 1370 483 1370 483 1332 453.5 c 128,-1,71
 1294 424 1294 424 1227 424 c 0,72,73
 1202 424 1202 424 1176.5 431 c 128,-1,74
 1151 438 1151 438 1129.5 454.5 c 128,-1,75
 1108 471 1108 471 1094.5 497.5 c 128,-1,76
 1081 524 1081 524 1081 563 c 0,77,78
 1081 614 1081 614 1111 656 c 128,-1,79
 1141 698 1141 698 1193 729 c 128,-1,80
 1245 760 1245 760 1319 777.5 c 128,-1,81
 1393 795 1393 795 1481 795 c 0,82,83
 1575 795 1575 795 1649.5 776.5 c 128,-1,84
 1724 758 1724 758 1775.5 725 c 128,-1,85
 1827 692 1827 692 1854.5 649 c 128,-1,86
 1882 606 1882 606 1882 557 c 0,87,88
 1882 477 1882 477 1845 434 c 128,-1,89
 1808 391 1808 391 1751 367.5 c 128,-1,90
 1694 344 1694 344 1624 333 c 128,-1,91
 1554 322 1554 322 1486.5 305.5 c 128,-1,92
 1419 289 1419 289 1363 259 c 128,-1,93
 1307 229 1307 229 1276 172 c 1,94,-1
 1284 170 l 1,25,26
EndSplineSet
EndChar

StartChar: threequarters
Encoding: 190 190 128
Width: 2005
Flags: W
LayerCount: 2
Fore
SplineSet
1444 1473 m 1,0,-1
 1733 1473 l 1,1,-1
 649 0 l 1,2,-1
 360 0 l 1,3,-1
 1444 1473 l 1,0,-1
1108 426 m 1,4,-1
 1446 786 l 1,5,-1
 1772 786 l 1,6,-1
 1772 379 l 1,7,-1
 1903 379 l 1,8,-1
 1903 254 l 1,9,-1
 1772 254 l 1,10,-1
 1772 229 l 2,11,12
 1772 193 1772 193 1785 186.5 c 128,-1,13
 1798 180 1798 180 1829 180 c 2,14,-1
 1876 180 l 1,15,-1
 1876 0 l 1,16,-1
 1343 0 l 1,17,-1
 1343 180 l 1,18,-1
 1399 180 l 2,19,20
 1430 180 1430 180 1438 193.5 c 128,-1,21
 1446 207 1446 207 1446 227 c 2,22,-1
 1446 254 l 1,23,-1
 1108 254 l 1,24,-1
 1108 426 l 1,4,-1
1245 379 m 1,25,-1
 1446 379 l 1,26,-1
 1446 596 l 1,27,-1
 1245 379 l 1,25,-1
395 1329 m 0,28,29
 340 1329 340 1329 316.5 1317 c 128,-1,30
 293 1305 293 1305 281 1294 c 1,31,32
 303 1296 303 1296 329.5 1283 c 128,-1,33
 356 1270 356 1270 356 1223 c 0,34,35
 356 1180 356 1180 321.5 1154 c 128,-1,36
 287 1128 287 1128 227 1128 c 0,37,38
 170 1128 170 1128 126 1164 c 128,-1,39
 82 1200 82 1200 82 1272 c 0,40,41
 82 1372 82 1372 180.5 1432.5 c 128,-1,42
 279 1493 279 1493 451 1493 c 0,43,44
 520 1493 520 1493 589.5 1483 c 128,-1,45
 659 1473 659 1473 714.5 1448 c 128,-1,46
 770 1423 770 1423 805 1382 c 128,-1,47
 840 1341 840 1341 840 1280 c 0,48,49
 840 1130 840 1130 659 1100 c 1,50,-1
 659 1096 l 1,51,52
 750 1085 750 1085 806 1037 c 128,-1,53
 862 989 862 989 862 899 c 0,54,55
 862 862 862 862 838.5 822 c 128,-1,56
 815 782 815 782 765 749.5 c 128,-1,57
 715 717 715 717 636 696.5 c 128,-1,58
 557 676 557 676 446 676 c 0,59,60
 342 676 342 676 268.5 697.5 c 128,-1,61
 195 719 195 719 148.5 753.5 c 128,-1,62
 102 788 102 788 81.5 832.5 c 128,-1,63
 61 877 61 877 61 922 c 0,64,65
 61 993 61 993 102 1032 c 128,-1,66
 143 1071 143 1071 203 1071 c 0,67,68
 274 1071 274 1071 307 1037.5 c 128,-1,69
 340 1004 340 1004 340 969 c 0,70,71
 340 924 340 924 313.5 904.5 c 128,-1,72
 287 885 287 885 252 879 c 1,73,74
 281 862 281 862 313.5 853 c 128,-1,75
 346 844 346 844 391 844 c 0,76,77
 537 844 537 844 537 944 c 0,78,79
 537 997 537 997 499 1018.5 c 128,-1,80
 461 1040 461 1040 416 1040 c 2,81,-1
 377 1040 l 1,82,-1
 377 1155 l 1,83,-1
 416 1155 l 2,84,85
 469 1155 469 1155 495.5 1181.5 c 128,-1,86
 522 1208 522 1208 522 1239 c 0,87,88
 522 1288 522 1288 483 1308.5 c 128,-1,89
 444 1329 444 1329 395 1329 c 0,28,29
EndSplineSet
EndChar

StartChar: questiondown
Encoding: 191 191 129
Width: 1307
Flags: W
LayerCount: 2
Fore
SplineSet
82 367 m 0,0,1
 82 461 82 461 118 527.5 c 128,-1,2
 154 594 154 594 209 643 c 128,-1,3
 264 692 264 692 326.5 729 c 128,-1,4
 389 766 389 766 444.5 800 c 128,-1,5
 500 834 500 834 535.5 868.5 c 128,-1,6
 571 903 571 903 571 948 c 1,7,-1
 854 948 l 1,8,9
 854 827 854 827 819 751.5 c 128,-1,10
 784 676 784 676 742 617.5 c 128,-1,11
 700 559 700 559 665.5 504 c 128,-1,12
 631 449 631 449 631 373 c 0,13,14
 631 322 631 322 653.5 285 c 128,-1,15
 676 248 676 248 712 229.5 c 128,-1,16
 748 211 748 211 793 211 c 128,-1,17
 838 211 838 211 885 233 c 1,18,19
 823 252 823 252 788.5 293 c 128,-1,20
 754 334 754 334 754 410 c 0,21,22
 754 444 754 444 769 477 c 128,-1,23
 784 510 784 510 814 536.5 c 128,-1,24
 844 563 844 563 888 578.5 c 128,-1,25
 932 594 932 594 991 594 c 0,26,27
 1034 594 1034 594 1079 582.5 c 128,-1,28
 1124 571 1124 571 1161 542.5 c 128,-1,29
 1198 514 1198 514 1221.5 466 c 128,-1,30
 1245 418 1245 418 1245 346 c 0,31,32
 1245 258 1245 258 1201 189.5 c 128,-1,33
 1157 121 1157 121 1078 74 c 128,-1,34
 999 27 999 27 889.5 2 c 128,-1,35
 780 -23 780 -23 649 -23 c 0,36,37
 365 -23 365 -23 223.5 78.5 c 128,-1,38
 82 180 82 180 82 367 c 0,0,1
965 1260 m 0,39,40
 965 1206 965 1206 944.5 1160 c 128,-1,41
 924 1114 924 1114 890 1080.5 c 128,-1,42
 856 1047 856 1047 809 1026.5 c 128,-1,43
 762 1006 762 1006 711 1006 c 0,44,45
 657 1006 657 1006 611 1026.5 c 128,-1,46
 565 1047 565 1047 531.5 1080.5 c 128,-1,47
 498 1114 498 1114 477.5 1160 c 128,-1,48
 457 1206 457 1206 457 1260 c 0,49,50
 457 1311 457 1311 477.5 1358 c 128,-1,51
 498 1405 498 1405 531.5 1439 c 128,-1,52
 565 1473 565 1473 611 1493 c 128,-1,53
 657 1513 657 1513 711 1513 c 0,54,55
 762 1513 762 1513 809 1493 c 128,-1,56
 856 1473 856 1473 890 1439 c 128,-1,57
 924 1405 924 1405 944.5 1358 c 128,-1,58
 965 1311 965 1311 965 1260 c 0,39,40
EndSplineSet
EndChar

StartChar: AE
Encoding: 198 198 136
Width: 2138
Flags: W
LayerCount: 2
Fore
SplineSet
1606 371 m 2,0,1
 1647 371 1647 371 1674.5 378 c 128,-1,2
 1702 385 1702 385 1718.5 404.5 c 128,-1,3
 1735 424 1735 424 1741 458 c 128,-1,4
 1747 492 1747 492 1747 545 c 1,5,-1
 2097 545 l 1,6,-1
 2097 0 l 1,7,-1
 692 0 l 1,8,-1
 692 371 l 1,9,10
 780 371 780 371 818 394.5 c 128,-1,11
 856 418 856 418 856 483 c 2,12,-1
 856 545 l 1,13,-1
 537 545 l 1,14,-1
 500 471 l 2,15,16
 479 430 479 430 499.5 400.5 c 128,-1,17
 520 371 520 371 578 371 c 2,18,-1
 635 371 l 1,19,-1
 635 0 l 1,20,-1
 20 0 l 1,21,-1
 20 371 l 1,22,-1
 41 371 l 2,23,24
 78 371 78 371 102.5 378 c 128,-1,25
 127 385 127 385 145.5 399.5 c 128,-1,26
 164 414 164 414 177 435.5 c 128,-1,27
 190 457 190 457 205 483 c 1,28,-1
 463 989 l 2,29,30
 492 1044 492 1044 474.5 1073 c 128,-1,31
 457 1102 457 1102 383 1102 c 2,32,-1
 362 1102 l 1,33,-1
 362 1473 l 1,34,-1
 2097 1473 l 1,35,-1
 2097 928 l 1,36,-1
 1747 928 l 1,37,38
 1747 981 1747 981 1741 1015 c 128,-1,39
 1735 1049 1735 1049 1718.5 1068 c 128,-1,40
 1702 1087 1702 1087 1674.5 1094.5 c 128,-1,41
 1647 1102 1647 1102 1606 1102 c 2,42,-1
 1425 1102 l 1,43,-1
 1425 836 l 1,44,-1
 1745 836 l 1,45,-1
 1745 659 l 1,46,-1
 1425 659 l 1,47,-1
 1425 371 l 1,48,-1
 1606 371 l 2,0,1
616 700 m 1,49,-1
 856 700 l 1,50,-1
 856 1102 l 1,51,-1
 821 1102 l 1,52,-1
 616 700 l 1,49,-1
EndSplineSet
EndChar

StartChar: Eth
Encoding: 208 208 146
Width: 1901
Flags: W
LayerCount: 2
Fore
SplineSet
41 836 m 1,0,-1
 205 836 l 1,1,-1
 205 989 l 2,2,3
 205 1055 205 1055 167 1078.5 c 128,-1,4
 129 1102 129 1102 41 1102 c 1,5,-1
 41 1473 l 1,6,-1
 1102 1473 l 2,7,8
 1245 1473 1245 1473 1379 1435 c 128,-1,9
 1513 1397 1513 1397 1617.5 1311 c 128,-1,10
 1722 1225 1722 1225 1785.5 1083.5 c 128,-1,11
 1849 942 1849 942 1849 735 c 256,12,13
 1849 528 1849 528 1786.5 387 c 128,-1,14
 1724 246 1724 246 1616.5 160 c 128,-1,15
 1509 74 1509 74 1365 36 c 128,-1,16
 1221 -2 1221 -2 1059 -2 c 2,17,-1
 41 0 l 1,18,-1
 41 371 l 1,19,20
 129 371 129 371 167 394.5 c 128,-1,21
 205 418 205 418 205 483 c 2,22,-1
 205 659 l 1,23,-1
 41 659 l 1,24,-1
 41 836 l 1,0,-1
889 371 m 2,25,26
 944 371 944 371 996.5 383 c 128,-1,27
 1049 395 1049 395 1088.5 433 c 128,-1,28
 1128 471 1128 471 1153 542.5 c 128,-1,29
 1178 614 1178 614 1178 735 c 0,30,31
 1178 854 1178 854 1154 926.5 c 128,-1,32
 1130 999 1130 999 1091.5 1038 c 128,-1,33
 1053 1077 1053 1077 999.5 1089.5 c 128,-1,34
 946 1102 946 1102 889 1102 c 2,35,-1
 795 1102 l 1,36,-1
 795 836 l 1,37,-1
 1014 836 l 1,38,-1
 1014 659 l 1,39,-1
 795 659 l 1,40,-1
 795 371 l 1,41,-1
 889 371 l 2,25,26
EndSplineSet
EndChar

StartChar: multiply
Encoding: 215 215 153
Width: 1434
Flags: W
LayerCount: 2
Fore
SplineSet
715 485 m 1,0,-1
 403 174 l 1,1,-1
 174 403 l 1,2,-1
 485 715 l 1,3,-1
 174 1026 l 1,4,-1
 403 1255 l 1,5,-1
 715 944 l 1,6,-1
 1028 1257 l 1,7,-1
 1257 1028 l 1,8,-1
 944 715 l 1,9,-1
 1257 401 l 1,10,-1
 1028 172 l 1,11,-1
 715 485 l 1,0,-1
EndSplineSet
EndChar

StartChar: Oslash
Encoding: 216 216 154
Width: 1843
Flags: W
LayerCount: 2
Fore
SplineSet
340 117 m 1,0,1
 203 215 203 215 127 369.5 c 128,-1,2
 51 524 51 524 51 735 c 0,3,4
 51 928 51 928 114.5 1073.5 c 128,-1,5
 178 1219 178 1219 294 1317 c 128,-1,6
 410 1415 410 1415 569.5 1464 c 128,-1,7
 729 1513 729 1513 922 1513 c 0,8,9
 1020 1513 1020 1513 1110 1500 c 128,-1,10
 1200 1487 1200 1487 1280 1462 c 1,11,-1
 1374 1595 l 1,12,-1
 1663 1595 l 1,13,-1
 1495 1356 l 1,14,15
 1636 1257 1636 1257 1714 1102.5 c 128,-1,16
 1792 948 1792 948 1792 735 c 0,17,18
 1792 543 1792 543 1728.5 397.5 c 128,-1,19
 1665 252 1665 252 1549.5 153.5 c 128,-1,20
 1434 55 1434 55 1274 6 c 128,-1,21
 1114 -43 1114 -43 922 -43 c 0,22,23
 721 -43 721 -43 555 10 c 1,24,-1
 461 -125 l 1,25,-1
 172 -125 l 1,26,-1
 340 117 l 1,0,1
1120 735 m 0,27,28
 1120 758 1120 758 1120 777.5 c 128,-1,29
 1120 797 1120 797 1118 817 c 1,30,-1
 795 352 l 1,31,32
 836 305 836 305 922 305 c 0,33,34
 979 305 979 305 1018 327.5 c 128,-1,35
 1057 350 1057 350 1079.5 400.5 c 128,-1,36
 1102 451 1102 451 1111 532.5 c 128,-1,37
 1120 614 1120 614 1120 735 c 0,27,28
723 664 m 1,38,-1
 1044 1122 l 1,39,40
 997 1165 997 1165 922 1165 c 0,41,42
 862 1165 862 1165 824 1142.5 c 128,-1,43
 786 1120 786 1120 763.5 1070 c 128,-1,44
 741 1020 741 1020 732 937 c 128,-1,45
 723 854 723 854 723 735 c 2,46,-1
 723 664 l 1,38,-1
EndSplineSet
EndChar

StartChar: Thorn
Encoding: 222 222 160
Width: 1681
Flags: W
LayerCount: 2
Fore
SplineSet
795 1262 m 1,0,-1
 1120 1262 l 2,1,2
 1268 1262 1268 1262 1368 1238 c 128,-1,3
 1468 1214 1468 1214 1528.5 1166 c 128,-1,4
 1589 1118 1589 1118 1614.5 1045.5 c 128,-1,5
 1640 973 1640 973 1640 872 c 0,6,7
 1640 772 1640 772 1614.5 699.5 c 128,-1,8
 1589 627 1589 627 1528.5 578.5 c 128,-1,9
 1468 530 1468 530 1368 506.5 c 128,-1,10
 1268 483 1268 483 1120 483 c 2,11,-1
 795 483 l 1,12,13
 795 430 795 430 821.5 400.5 c 128,-1,14
 848 371 848 371 918 371 c 2,15,-1
 1020 371 l 1,16,-1
 1020 0 l 1,17,-1
 41 0 l 1,18,-1
 41 371 l 1,19,20
 129 371 129 371 167 394.5 c 128,-1,21
 205 418 205 418 205 483 c 2,22,-1
 205 989 l 2,23,24
 205 1055 205 1055 167 1078.5 c 128,-1,25
 129 1102 129 1102 41 1102 c 1,26,-1
 41 1473 l 1,27,-1
 795 1473 l 1,28,-1
 795 1262 l 1,0,-1
1051 872 m 0,29,30
 1051 944 1051 944 1019 984 c 128,-1,31
 987 1024 987 1024 903 1024 c 2,32,-1
 795 1024 l 1,33,-1
 795 721 l 1,34,-1
 903 721 l 2,35,36
 987 721 987 721 1019 761 c 128,-1,37
 1051 801 1051 801 1051 872 c 0,29,30
EndSplineSet
EndChar

StartChar: germandbls
Encoding: 223 223 161
Width: 1661
Flags: W
LayerCount: 2
Fore
SplineSet
893 1204 m 0,0,1
 815 1204 815 1204 787.5 1161 c 128,-1,2
 760 1118 760 1118 760 1055 c 2,3,-1
 760 0 l 1,4,-1
 61 0 l 1,5,-1
 61 371 l 1,6,7
 133 371 133 371 169 394.5 c 128,-1,8
 205 418 205 418 205 483 c 2,9,-1
 205 946 l 2,10,11
 205 1004 205 1004 211 1068.5 c 128,-1,12
 217 1133 217 1133 240.5 1196.5 c 128,-1,13
 264 1260 264 1260 310 1317 c 128,-1,14
 356 1374 356 1374 434 1418 c 128,-1,15
 512 1462 512 1462 627.5 1487.5 c 128,-1,16
 743 1513 743 1513 907 1513 c 0,17,18
 1036 1513 1036 1513 1155 1491.5 c 128,-1,19
 1274 1470 1274 1470 1363 1421 c 128,-1,20
 1452 1372 1452 1372 1505.5 1293 c 128,-1,21
 1559 1214 1559 1214 1559 1102 c 0,22,23
 1559 963 1559 963 1479 870.5 c 128,-1,24
 1399 778 1399 778 1245 756 c 1,25,-1
 1245 745 l 1,26,27
 1415 729 1415 729 1517.5 636 c 128,-1,28
 1620 543 1620 543 1620 375 c 0,29,30
 1620 307 1620 307 1592.5 239.5 c 128,-1,31
 1565 172 1565 172 1496 119 c 128,-1,32
 1427 66 1427 66 1308.5 33 c 128,-1,33
 1190 0 1190 0 1006 0 c 2,34,-1
 815 0 l 1,35,-1
 815 276 l 1,36,-1
 836 276 l 2,37,38
 961 276 961 276 1006 326.5 c 128,-1,39
 1051 377 1051 377 1051 465 c 0,40,41
 1051 514 1051 514 1033.5 549 c 128,-1,42
 1016 584 1016 584 985 604.5 c 128,-1,43
 954 625 954 625 913 634 c 128,-1,44
 872 643 872 643 825 643 c 2,45,-1
 815 643 l 1,46,-1
 815 858 l 1,47,-1
 825 858 l 2,48,49
 881 858 881 858 917.5 874.5 c 128,-1,50
 954 891 954 891 977.5 916.5 c 128,-1,51
 1001 942 1001 942 1011.5 974 c 128,-1,52
 1022 1006 1022 1006 1022 1038 c 0,53,54
 1022 1130 1022 1130 984 1167 c 128,-1,55
 946 1204 946 1204 893 1204 c 0,0,1
EndSplineSet
EndChar

StartChar: ae
Encoding: 230 230 168
Width: 2140
Flags: W
LayerCount: 2
Fore
SplineSet
1327 489 m 1,0,1
 1331 340 1331 340 1378 283.5 c 128,-1,2
 1425 227 1425 227 1524 227 c 0,3,4
 1556 227 1556 227 1586 236.5 c 128,-1,5
 1616 246 1616 246 1640.5 267.5 c 128,-1,6
 1665 289 1665 289 1683.5 324.5 c 128,-1,7
 1702 360 1702 360 1708 414 c 1,8,-1
 2073 414 l 1,9,10
 2052 285 2052 285 2000 198 c 128,-1,11
 1948 111 1948 111 1868 57.5 c 128,-1,12
 1788 4 1788 4 1682.5 -19.5 c 128,-1,13
 1577 -43 1577 -43 1452 -43 c 0,14,15
 1286 -43 1286 -43 1142.5 8 c 128,-1,16
 999 59 999 59 913 166 c 1,17,18
 885 127 885 127 840 91 c 128,-1,19
 795 55 795 55 732.5 27.5 c 128,-1,20
 670 0 670 0 592 -16.5 c 128,-1,21
 514 -33 514 -33 420 -33 c 0,22,23
 334 -33 334 -33 263.5 -17.5 c 128,-1,24
 193 -2 193 -2 143.5 33 c 128,-1,25
 94 68 94 68 66.5 123 c 128,-1,26
 39 178 39 178 39 256 c 0,27,28
 39 352 39 352 93 406.5 c 128,-1,29
 147 461 147 461 229 493.5 c 128,-1,30
 311 526 311 526 407.5 545.5 c 128,-1,31
 504 565 504 565 586 593 c 128,-1,32
 668 621 668 621 722 667 c 128,-1,33
 776 713 776 713 776 797 c 0,34,35
 776 872 776 872 729 917.5 c 128,-1,36
 682 963 682 963 575 963 c 0,37,38
 524 963 524 963 487.5 955.5 c 128,-1,39
 451 948 451 948 425 938 c 128,-1,40
 399 928 399 928 382 915.5 c 128,-1,41
 365 903 365 903 352 893 c 1,42,-1
 362 883 l 1,43,44
 381 893 381 893 403.5 903 c 128,-1,45
 426 913 426 913 461 913 c 0,46,47
 520 913 520 913 563 874.5 c 128,-1,48
 606 836 606 836 606 752 c 0,49,50
 606 672 606 672 540.5 623.5 c 128,-1,51
 475 575 475 575 365 575 c 0,52,53
 260 575 260 575 197.5 635.5 c 128,-1,54
 135 696 135 696 135 807 c 0,55,56
 135 868 135 868 169 928.5 c 128,-1,57
 203 989 203 989 274.5 1037 c 128,-1,58
 346 1085 346 1085 456.5 1116 c 128,-1,59
 567 1147 567 1147 723 1147 c 0,60,61
 987 1147 987 1147 1102 1051 c 1,62,63
 1163 1090 1163 1090 1255.5 1118.5 c 128,-1,64
 1348 1147 1348 1147 1464 1147 c 0,65,66
 1622 1147 1622 1147 1742 1099 c 128,-1,67
 1862 1051 1862 1051 1940.5 965 c 128,-1,68
 2019 879 2019 879 2059 758 c 128,-1,69
 2099 637 2099 637 2097 489 c 1,70,-1
 1327 489 l 1,0,1
1466 877 m 0,71,72
 1397 877 1397 877 1367 827.5 c 128,-1,73
 1337 778 1337 778 1327 664 c 1,74,-1
 1599 664 l 1,75,76
 1593 762 1593 762 1563.5 819.5 c 128,-1,77
 1534 877 1534 877 1466 877 c 0,71,72
797 565 m 1,78,79
 774 528 774 528 738 500.5 c 128,-1,80
 702 473 702 473 667.5 445.5 c 128,-1,81
 633 418 633 418 607.5 387 c 128,-1,82
 582 356 582 356 582 313 c 0,83,84
 582 281 582 281 600 254 c 128,-1,85
 618 227 618 227 670 227 c 0,86,87
 698 227 698 227 723 241.5 c 128,-1,88
 748 256 748 256 767 277.5 c 128,-1,89
 786 299 786 299 798.5 325.5 c 128,-1,90
 811 352 811 352 815 379 c 1,91,92
 807 397 807 397 804 429 c 128,-1,93
 801 461 801 461 799 492 c 0,94,95
 797 528 797 528 797 565 c 1,78,79
EndSplineSet
EndChar

StartChar: eth
Encoding: 240 240 178
Width: 1524
Flags: W
LayerCount: 2
Fore
SplineSet
512 1276 m 1,0,1
 446 1313 446 1313 393 1329 c 1,2,-1
 485 1556 l 1,3,4
 582 1540 582 1540 677 1510.5 c 128,-1,5
 772 1481 772 1481 864 1438 c 1,6,-1
 1120 1554 l 1,7,-1
 1188 1397 l 1,8,-1
 1049 1333 l 1,9,10
 1143 1268 1143 1268 1221.5 1188 c 128,-1,11
 1300 1108 1300 1108 1358.5 1013 c 128,-1,12
 1417 918 1417 918 1450 807 c 128,-1,13
 1483 696 1483 696 1483 573 c 0,14,15
 1483 412 1483 412 1431.5 295 c 128,-1,16
 1380 178 1380 178 1286 103.5 c 128,-1,17
 1192 29 1192 29 1059 -7 c 128,-1,18
 926 -43 926 -43 762 -43 c 256,19,20
 598 -43 598 -43 465 -11.5 c 128,-1,21
 332 20 332 20 237.5 88 c 128,-1,22
 143 156 143 156 92 261.5 c 128,-1,23
 41 367 41 367 41 512 c 256,24,25
 41 657 41 657 100.5 762.5 c 128,-1,26
 160 868 160 868 264.5 929.5 c 128,-1,27
 369 991 369 991 511 1010.5 c 128,-1,28
 653 1030 653 1030 819 1004 c 1,29,30
 797 1044 797 1044 759 1085 c 128,-1,31
 721 1126 721 1126 676 1163 c 1,32,-1
 453 1061 l 1,33,-1
 383 1217 l 1,34,-1
 512 1276 l 1,0,1
610 502 m 0,35,36
 610 362 610 362 641 305 c 128,-1,37
 672 248 672 248 762 248 c 256,38,39
 852 248 852 248 882.5 305 c 128,-1,40
 913 362 913 362 913 502 c 0,41,42
 913 641 913 641 882.5 697.5 c 128,-1,43
 852 754 852 754 762 754 c 256,44,45
 672 754 672 754 641 697.5 c 128,-1,46
 610 641 610 641 610 502 c 0,35,36
EndSplineSet
EndChar

StartChar: divide
Encoding: 247 247 185
Width: 1434
Flags: W
LayerCount: 2
Fore
SplineSet
1280 879 m 1,0,-1
 1280 553 l 1,1,-1
 154 553 l 1,2,-1
 154 879 l 1,3,-1
 1280 879 l 1,0,-1
528 1149 m 256,4,5
 528 1227 528 1227 581.5 1280 c 128,-1,6
 635 1333 635 1333 713 1333 c 256,7,8
 791 1333 791 1333 844 1280 c 128,-1,9
 897 1227 897 1227 897 1149 c 256,10,11
 897 1071 897 1071 844 1018 c 128,-1,12
 791 965 791 965 713 965 c 256,13,14
 635 965 635 965 581.5 1018 c 128,-1,15
 528 1071 528 1071 528 1149 c 256,4,5
528 283 m 0,16,17
 528 360 528 360 581.5 413.5 c 128,-1,18
 635 467 635 467 713 467 c 256,19,20
 791 467 791 467 844 413.5 c 128,-1,21
 897 360 897 360 897 283 c 0,22,23
 897 205 897 205 844 151.5 c 128,-1,24
 791 98 791 98 713 98 c 256,25,26
 635 98 635 98 581.5 151.5 c 128,-1,27
 528 205 528 205 528 283 c 0,16,17
EndSplineSet
EndChar

StartChar: oslash
Encoding: 248 248 186
Width: 1524
Flags: W
LayerCount: 2
Fore
SplineSet
285 76 m 1,0,1
 168 150 168 150 104.5 269.5 c 128,-1,2
 41 389 41 389 41 553 c 0,3,4
 41 700 41 700 92 811 c 128,-1,5
 143 922 143 922 237.5 996.5 c 128,-1,6
 332 1071 332 1071 465 1109 c 128,-1,7
 598 1147 598 1147 762 1147 c 0,8,9
 915 1147 915 1147 1044 1112 c 1,10,-1
 1116 1208 l 1,11,-1
 1364 1208 l 1,12,-1
 1235 1032 l 1,13,14
 1352 958 1352 958 1417.5 838.5 c 128,-1,15
 1483 719 1483 719 1483 553 c 0,16,17
 1483 408 1483 408 1431.5 296 c 128,-1,18
 1380 184 1380 184 1286 108.5 c 128,-1,19
 1192 33 1192 33 1059 -5 c 128,-1,20
 926 -43 926 -43 762 -43 c 0,21,22
 600 -43 600 -43 471 -6 c 1,23,-1
 385 -125 l 1,24,-1
 137 -125 l 1,25,-1
 285 76 l 1,0,1
930 553 m 0,26,27
 930 569 930 569 930 584.5 c 128,-1,28
 930 600 930 600 928 616 c 1,29,-1
 657 248 l 1,30,31
 692 215 692 215 762 215 c 0,32,33
 811 215 811 215 844 232.5 c 128,-1,34
 877 250 877 250 895 290 c 128,-1,35
 913 330 913 330 921.5 394.5 c 128,-1,36
 930 459 930 459 930 553 c 0,26,27
594 498 m 1,37,-1
 860 860 l 1,38,39
 825 889 825 889 762 889 c 0,40,41
 713 889 713 889 680 871.5 c 128,-1,42
 647 854 647 854 628.5 814 c 128,-1,43
 610 774 610 774 602 710.5 c 128,-1,44
 594 647 594 647 594 553 c 2,45,-1
 594 498 l 1,37,-1
EndSplineSet
EndChar

StartChar: thorn
Encoding: 254 254 192
Width: 1647
Flags: W
LayerCount: 2
Fore
SplineSet
1036 543 m 0,0,1
 1036 596 1036 596 1030 644 c 128,-1,2
 1024 692 1024 692 1007.5 728 c 128,-1,3
 991 764 991 764 963.5 784.5 c 128,-1,4
 936 805 936 805 891 805 c 256,5,6
 846 805 846 805 817 785.5 c 128,-1,7
 788 766 788 766 772 732 c 128,-1,8
 756 698 756 698 749.5 651 c 128,-1,9
 743 604 743 604 743 551 c 2,10,-1
 743 305 l 1,11,12
 760 279 760 279 806 263.5 c 128,-1,13
 852 248 852 248 891 248 c 0,14,15
 936 248 936 248 963.5 273.5 c 128,-1,16
 991 299 991 299 1007.5 341 c 128,-1,17
 1024 383 1024 383 1030 436 c 128,-1,18
 1036 489 1036 489 1036 543 c 0,0,1
760 909 m 1,19,20
 774 952 774 952 800.5 993 c 128,-1,21
 827 1034 827 1034 868 1066 c 128,-1,22
 909 1098 909 1098 967.5 1117.5 c 128,-1,23
 1026 1137 1026 1137 1106 1137 c 0,24,25
 1341 1137 1341 1137 1473.5 988.5 c 128,-1,26
 1606 840 1606 840 1606 553 c 256,27,28
 1606 266 1606 266 1470.5 116.5 c 128,-1,29
 1335 -33 1335 -33 1100 -33 c 0,30,31
 1036 -33 1036 -33 986 -26.5 c 128,-1,32
 936 -20 936 -20 895 -8 c 128,-1,33
 854 4 854 4 817 20.5 c 128,-1,34
 780 37 780 37 743 55 c 1,35,-1
 743 -43 l 2,36,37
 743 -96 743 -96 761.5 -118.5 c 128,-1,38
 780 -141 780 -141 834 -141 c 2,39,-1
 893 -141 l 1,40,-1
 893 -512 l 1,41,-1
 51 -512 l 1,42,-1
 51 -141 l 1,43,-1
 111 -141 l 2,44,45
 152 -141 152 -141 173.5 -114.5 c 128,-1,46
 195 -88 195 -88 195 -51 c 2,47,-1
 195 989 l 2,48,49
 195 1047 195 1047 158 1074.5 c 128,-1,50
 121 1102 121 1102 74 1102 c 2,51,-1
 51 1102 l 1,52,-1
 51 1473 l 1,53,-1
 743 1473 l 1,54,-1
 743 909 l 1,55,-1
 760 909 l 1,19,20
EndSplineSet
EndChar

StartChar: Aogonek
Encoding: 260 260 198
Width: 1647
Flags: W
LayerCount: 2
Fore
SplineSet
838 514 m 1,0,-1
 522 514 l 1,1,-1
 508 471 l 1,2,3
 492 428 492 428 510 399.5 c 128,-1,4
 528 371 528 371 586 371 c 2,5,-1
 643 371 l 1,6,-1
 643 0 l 1,7,-1
 20 0 l 1,8,-1
 20 371 l 1,9,-1
 61 371 l 2,10,11
 133 371 133 371 157.5 399.5 c 128,-1,12
 182 428 182 428 205 483 c 2,13,-1
 410 989 l 1,14,15
 432 1047 432 1047 417.5 1074.5 c 128,-1,16
 403 1102 403 1102 330 1102 c 2,17,-1
 309 1102 l 1,18,-1
 309 1473 l 1,19,-1
 1337 1473 l 1,20,-1
 1337 1102 l 1,21,-1
 1317 1102 l 2,22,23
 1243 1102 1243 1102 1228.5 1073 c 128,-1,24
 1214 1044 1214 1044 1237 989 c 2,25,-1
 1442 483 l 2,26,27
 1454 455 1454 455 1463.5 434.5 c 128,-1,28
 1473 414 1473 414 1487 399.5 c 128,-1,29
 1501 385 1501 385 1524.5 378 c 128,-1,30
 1548 371 1548 371 1585 371 c 2,31,-1
 1626 371 l 1,32,-1
 1626 0 l 1,33,34
 1493 -59 1493 -59 1442 -117.5 c 128,-1,35
 1391 -176 1391 -176 1391 -236 c 0,36,37
 1391 -283 1391 -283 1411.5 -299 c 128,-1,38
 1432 -315 1432 -315 1460 -315 c 0,39,40
 1509 -315 1509 -315 1563 -242 c 1,41,-1
 1667 -326 l 1,42,43
 1595 -412 1595 -412 1518.5 -449.5 c 128,-1,44
 1442 -487 1442 -487 1364 -487 c 0,45,46
 1249 -487 1249 -487 1200 -436 c 128,-1,47
 1151 -385 1151 -385 1151 -315 c 0,48,49
 1151 -231 1151 -231 1213.5 -151.5 c 128,-1,50
 1276 -72 1276 -72 1423 0 c 1,51,-1
 717 0 l 1,52,-1
 717 371 l 1,53,-1
 772 371 l 2,54,55
 829 371 829 371 848.5 399.5 c 128,-1,56
 868 428 868 428 852 471 c 1,57,-1
 838 514 l 1,0,-1
573 670 m 1,58,-1
 786 670 l 1,59,-1
 686 977 l 1,60,-1
 678 977 l 1,61,-1
 573 670 l 1,58,-1
EndSplineSet
EndChar

StartChar: aogonek
Encoding: 261 261 199
Width: 1530
Flags: W
LayerCount: 2
Fore
SplineSet
575 963 m 0,0,1
 524 963 524 963 487.5 955.5 c 128,-1,2
 451 948 451 948 425 938 c 128,-1,3
 399 928 399 928 382 915.5 c 128,-1,4
 365 903 365 903 352 893 c 1,5,-1
 362 883 l 1,6,7
 381 893 381 893 403.5 903 c 128,-1,8
 426 913 426 913 461 913 c 0,9,10
 520 913 520 913 563 874.5 c 128,-1,11
 606 836 606 836 606 752 c 0,12,13
 606 672 606 672 540.5 623.5 c 128,-1,14
 475 575 475 575 365 575 c 0,15,16
 260 575 260 575 197.5 635.5 c 128,-1,17
 135 696 135 696 135 807 c 0,18,19
 135 868 135 868 169 928.5 c 128,-1,20
 203 989 203 989 274.5 1037 c 128,-1,21
 346 1085 346 1085 456.5 1116 c 128,-1,22
 567 1147 567 1147 723 1147 c 0,23,24
 909 1147 909 1147 1027 1112 c 128,-1,25
 1145 1077 1145 1077 1210.5 1022 c 128,-1,26
 1276 967 1276 967 1300.5 897 c 128,-1,27
 1325 827 1325 827 1325 756 c 2,28,-1
 1325 365 l 2,29,30
 1325 274 1325 274 1331 241.5 c 128,-1,31
 1337 209 1337 209 1376 209 c 0,32,33
 1407 209 1407 209 1419.5 238.5 c 128,-1,34
 1432 268 1432 268 1432 340 c 2,35,-1
 1432 465 l 1,36,-1
 1546 465 l 1,37,-1
 1546 338 l 2,38,39
 1546 223 1546 223 1517.5 144.5 c 128,-1,40
 1489 66 1489 66 1417 12 c 1,41,42
 1278 -88 1278 -88 1278 -215 c 0,43,44
 1278 -262 1278 -262 1298.5 -278.5 c 128,-1,45
 1319 -295 1319 -295 1348 -295 c 0,46,47
 1397 -295 1397 -295 1450 -221 c 1,48,-1
 1554 -305 l 1,49,50
 1483 -391 1483 -391 1406 -429 c 128,-1,51
 1329 -467 1329 -467 1251 -467 c 0,52,53
 1137 -467 1137 -467 1087.5 -416 c 128,-1,54
 1038 -365 1038 -365 1038 -295 c 0,55,56
 1038 -229 1038 -229 1071 -165.5 c 128,-1,57
 1104 -102 1104 -102 1182 -41 c 1,58,-1
 1176 -41 l 2,59,60
 1075 -41 1075 -41 1008.5 -19.5 c 128,-1,61
 942 2 942 2 903 34 c 128,-1,62
 864 66 864 66 847.5 100.5 c 128,-1,63
 831 135 831 135 831 162 c 1,64,-1
 815 162 l 1,65,66
 809 121 809 121 780.5 84 c 128,-1,67
 752 47 752 47 701.5 18.5 c 128,-1,68
 651 -10 651 -10 580.5 -27.5 c 128,-1,69
 510 -45 510 -45 420 -45 c 0,70,71
 334 -45 334 -45 263.5 -28.5 c 128,-1,72
 193 -12 193 -12 143.5 23.5 c 128,-1,73
 94 59 94 59 66.5 115.5 c 128,-1,74
 39 172 39 172 39 250 c 0,75,76
 39 346 39 346 93 401.5 c 128,-1,77
 147 457 147 457 229 489.5 c 128,-1,78
 311 522 311 522 407.5 542.5 c 128,-1,79
 504 563 504 563 586 592 c 128,-1,80
 668 621 668 621 722 667 c 128,-1,81
 776 713 776 713 776 797 c 0,82,83
 776 872 776 872 729 917.5 c 128,-1,84
 682 963 682 963 575 963 c 0,0,1
776 530 m 1,85,86
 754 498 754 498 721 478.5 c 128,-1,87
 688 459 688 459 657.5 440.5 c 128,-1,88
 627 422 627 422 604.5 396.5 c 128,-1,89
 582 371 582 371 582 328 c 0,90,91
 582 295 582 295 600 268.5 c 128,-1,92
 618 242 618 242 670 242 c 0,93,94
 717 242 717 242 746.5 278.5 c 128,-1,95
 776 315 776 315 776 381 c 2,96,-1
 776 530 l 1,85,86
EndSplineSet
EndChar

StartChar: Dcroat
Encoding: 272 272 210
Width: 1901
Flags: W
LayerCount: 2
Fore
SplineSet
41 836 m 1,0,-1
 205 836 l 1,1,-1
 205 989 l 2,2,3
 205 1055 205 1055 167 1078.5 c 128,-1,4
 129 1102 129 1102 41 1102 c 1,5,-1
 41 1473 l 1,6,-1
 1102 1473 l 2,7,8
 1245 1473 1245 1473 1379 1435 c 128,-1,9
 1513 1397 1513 1397 1617.5 1311 c 128,-1,10
 1722 1225 1722 1225 1785.5 1083.5 c 128,-1,11
 1849 942 1849 942 1849 735 c 256,12,13
 1849 528 1849 528 1786.5 387 c 128,-1,14
 1724 246 1724 246 1616.5 160 c 128,-1,15
 1509 74 1509 74 1365 36 c 128,-1,16
 1221 -2 1221 -2 1059 -2 c 2,17,-1
 41 0 l 1,18,-1
 41 371 l 1,19,20
 129 371 129 371 167 394.5 c 128,-1,21
 205 418 205 418 205 483 c 2,22,-1
 205 659 l 1,23,-1
 41 659 l 1,24,-1
 41 836 l 1,0,-1
889 371 m 2,25,26
 944 371 944 371 996.5 383 c 128,-1,27
 1049 395 1049 395 1088.5 433 c 128,-1,28
 1128 471 1128 471 1153 542.5 c 128,-1,29
 1178 614 1178 614 1178 735 c 0,30,31
 1178 854 1178 854 1154 926.5 c 128,-1,32
 1130 999 1130 999 1091.5 1038 c 128,-1,33
 1053 1077 1053 1077 999.5 1089.5 c 128,-1,34
 946 1102 946 1102 889 1102 c 2,35,-1
 795 1102 l 1,36,-1
 795 836 l 1,37,-1
 1014 836 l 1,38,-1
 1014 659 l 1,39,-1
 795 659 l 1,40,-1
 795 371 l 1,41,-1
 889 371 l 2,25,26
EndSplineSet
EndChar

StartChar: dcroat
Encoding: 273 273 211
Width: 1634
Flags: W
LayerCount: 2
Fore
SplineSet
610 1341 m 1,0,-1
 891 1341 l 1,1,-1
 891 1473 l 1,2,-1
 1440 1473 l 1,3,-1
 1440 1341 l 1,4,-1
 1583 1341 l 1,5,-1
 1583 1165 l 1,6,-1
 1440 1165 l 1,7,-1
 1440 453 l 2,8,9
 1440 412 1440 412 1462.5 391.5 c 128,-1,10
 1485 371 1485 371 1526 371 c 2,11,-1
 1583 371 l 1,12,-1
 1583 0 l 1,13,-1
 911 0 l 1,14,-1
 911 182 l 1,15,-1
 895 182 l 1,16,17
 879 139 879 139 848 100 c 128,-1,18
 817 61 817 61 772 31.5 c 128,-1,19
 727 2 727 2 665.5 -15.5 c 128,-1,20
 604 -33 604 -33 526 -33 c 0,21,22
 281 -33 281 -33 155 115.5 c 128,-1,23
 29 264 29 264 29 551 c 256,24,25
 29 838 29 838 164 977 c 128,-1,26
 299 1116 299 1116 535 1116 c 0,27,28
 598 1116 598 1116 648 1106 c 128,-1,29
 698 1096 698 1096 739 1080.5 c 128,-1,30
 780 1065 780 1065 817 1045.5 c 128,-1,31
 854 1026 854 1026 891 1008 c 1,32,-1
 891 1165 l 1,33,-1
 610 1165 l 1,34,-1
 610 1341 l 1,0,-1
598 541 m 0,35,36
 598 487 598 487 604 439 c 128,-1,37
 610 391 610 391 626.5 355 c 128,-1,38
 643 319 643 319 670.5 299 c 128,-1,39
 698 279 698 279 743 279 c 256,40,41
 788 279 788 279 817 298 c 128,-1,42
 846 317 846 317 862.5 351 c 128,-1,43
 879 385 879 385 885 432 c 128,-1,44
 891 479 891 479 891 532 c 2,45,-1
 891 758 l 1,46,47
 866 782 866 782 824 798.5 c 128,-1,48
 782 815 782 815 743 815 c 0,49,50
 698 815 698 815 670.5 792.5 c 128,-1,51
 643 770 643 770 626.5 732 c 128,-1,52
 610 694 610 694 604 644 c 128,-1,53
 598 594 598 594 598 541 c 0,35,36
EndSplineSet
EndChar

StartChar: Eogonek
Encoding: 280 280 218
Width: 1507
Flags: W
LayerCount: 2
Fore
SplineSet
975 371 m 2,0,1
 1016 371 1016 371 1043.5 378 c 128,-1,2
 1071 385 1071 385 1087.5 404.5 c 128,-1,3
 1104 424 1104 424 1110 458 c 128,-1,4
 1116 492 1116 492 1116 545 c 1,5,-1
 1466 545 l 1,6,-1
 1466 0 l 1,7,8
 1231 -111 1231 -111 1231 -236 c 0,9,10
 1231 -283 1231 -283 1251.5 -299 c 128,-1,11
 1272 -315 1272 -315 1300 -315 c 0,12,13
 1350 -315 1350 -315 1403 -242 c 1,14,-1
 1507 -326 l 1,15,16
 1436 -412 1436 -412 1359 -449.5 c 128,-1,17
 1282 -487 1282 -487 1204 -487 c 0,18,19
 1090 -487 1090 -487 1040.5 -436 c 128,-1,20
 991 -385 991 -385 991 -315 c 0,21,22
 991 -231 991 -231 1056.5 -150.5 c 128,-1,23
 1122 -70 1122 -70 1264 0 c 1,24,-1
 41 0 l 1,25,-1
 41 371 l 1,26,27
 129 371 129 371 167 394.5 c 128,-1,28
 205 418 205 418 205 483 c 2,29,-1
 205 989 l 2,30,31
 205 1055 205 1055 167 1078.5 c 128,-1,32
 129 1102 129 1102 41 1102 c 1,33,-1
 41 1473 l 1,34,-1
 1466 1473 l 1,35,-1
 1466 928 l 1,36,-1
 1116 928 l 1,37,38
 1116 981 1116 981 1110 1015 c 128,-1,39
 1104 1049 1104 1049 1087.5 1068 c 128,-1,40
 1071 1087 1071 1087 1043.5 1094.5 c 128,-1,41
 1016 1102 1016 1102 975 1102 c 2,42,-1
 795 1102 l 1,43,-1
 795 836 l 1,44,-1
 1114 836 l 1,45,-1
 1114 659 l 1,46,-1
 795 659 l 1,47,-1
 795 371 l 1,48,-1
 975 371 l 2,0,1
EndSplineSet
EndChar

StartChar: eogonek
Encoding: 281 281 219
Width: 1446
Flags: W
LayerCount: 2
Fore
SplineSet
612 489 m 1,0,1
 616 340 616 340 668.5 283.5 c 128,-1,2
 721 227 721 227 819 227 c 0,3,4
 852 227 852 227 883.5 236.5 c 128,-1,5
 915 246 915 246 942 267.5 c 128,-1,6
 969 289 969 289 988.5 324.5 c 128,-1,7
 1008 360 1008 360 1014 414 c 1,8,-1
 1378 414 l 1,9,10
 1356 279 1356 279 1293.5 195 c 128,-1,11
 1231 111 1231 111 1149 47 c 1,12,13
 1061 -20 1061 -20 1015 -81.5 c 128,-1,14
 969 -143 969 -143 969 -215 c 0,15,16
 969 -262 969 -262 989.5 -278.5 c 128,-1,17
 1010 -295 1010 -295 1038 -295 c 0,18,19
 1087 -295 1087 -295 1141 -221 c 1,20,-1
 1245 -305 l 1,21,22
 1174 -391 1174 -391 1097 -429 c 128,-1,23
 1020 -467 1020 -467 942 -467 c 0,24,25
 827 -467 827 -467 778 -416 c 128,-1,26
 729 -365 729 -365 729 -295 c 0,27,28
 729 -227 729 -227 764 -162.5 c 128,-1,29
 799 -98 799 -98 881 -35 c 1,30,31
 844 -39 844 -39 804 -41 c 128,-1,32
 764 -43 764 -43 723 -43 c 0,33,34
 582 -43 582 -43 458 -7 c 128,-1,35
 334 29 334 29 240.5 102.5 c 128,-1,36
 147 176 147 176 94 287.5 c 128,-1,37
 41 399 41 399 41 553 c 0,38,39
 41 700 41 700 91 811 c 128,-1,40
 141 922 141 922 231.5 996.5 c 128,-1,41
 322 1071 322 1071 445.5 1109 c 128,-1,42
 569 1147 569 1147 717 1147 c 0,43,44
 899 1147 899 1147 1030 1099 c 128,-1,45
 1161 1051 1161 1051 1244 965 c 128,-1,46
 1327 879 1327 879 1366 758 c 128,-1,47
 1405 637 1405 637 1403 489 c 1,48,-1
 612 489 l 1,0,1
760 877 m 0,49,50
 690 877 690 877 656.5 827.5 c 128,-1,51
 623 778 623 778 612 664 c 1,52,-1
 905 664 l 1,53,54
 899 762 899 762 863 819.5 c 128,-1,55
 827 877 827 877 760 877 c 0,49,50
EndSplineSet
EndChar

StartChar: Hbar
Encoding: 294 294 232
Width: 1933
Flags: W
LayerCount: 2
Fore
SplineSet
0 1028 m 1,0,-1
 201 1028 l 1,1,2
 190 1069 190 1069 151.5 1085.5 c 128,-1,3
 113 1102 113 1102 41 1102 c 1,4,-1
 41 1473 l 1,5,-1
 930 1473 l 1,6,-1
 930 1102 l 1,7,8
 864 1102 864 1102 833.5 1084.5 c 128,-1,9
 803 1067 803 1067 797 1028 c 1,10,-1
 1137 1028 l 1,11,12
 1128 1067 1128 1067 1098.5 1084.5 c 128,-1,13
 1069 1102 1069 1102 1004 1102 c 1,14,-1
 1004 1473 l 1,15,-1
 1892 1473 l 1,16,-1
 1892 1102 l 1,17,18
 1819 1102 1819 1102 1781 1085.5 c 128,-1,19
 1743 1069 1743 1069 1733 1028 c 1,20,-1
 1933 1028 l 1,21,-1
 1933 852 l 1,22,-1
 1729 852 l 1,23,-1
 1729 483 l 2,24,25
 1729 418 1729 418 1766.5 394.5 c 128,-1,26
 1804 371 1804 371 1892 371 c 1,27,-1
 1892 0 l 1,28,-1
 1004 0 l 1,29,-1
 1004 371 l 1,30,31
 1079 371 1079 371 1109 394.5 c 128,-1,32
 1139 418 1139 418 1139 471 c 2,33,-1
 1139 596 l 1,34,-1
 795 596 l 1,35,-1
 795 471 l 2,36,37
 795 418 795 418 824.5 394.5 c 128,-1,38
 854 371 854 371 930 371 c 1,39,-1
 930 0 l 1,40,-1
 41 0 l 1,41,-1
 41 371 l 1,42,43
 129 371 129 371 167 394.5 c 128,-1,44
 205 418 205 418 205 483 c 2,45,-1
 205 852 l 1,46,-1
 0 852 l 1,47,-1
 0 1028 l 1,0,-1
1139 778 m 1,48,-1
 1139 852 l 1,49,-1
 795 852 l 1,50,-1
 795 778 l 1,51,-1
 1139 778 l 1,48,-1
EndSplineSet
EndChar

StartChar: hbar
Encoding: 295 295 233
Width: 1716
Flags: W
LayerCount: 2
Fore
SplineSet
80 1341 m 1,0,-1
 225 1341 l 1,1,-1
 225 1473 l 1,2,-1
 774 1473 l 1,3,-1
 774 1341 l 1,4,-1
 1094 1341 l 1,5,-1
 1094 1165 l 1,6,-1
 774 1165 l 1,7,-1
 774 1061 l 2,8,9
 774 1042 774 1042 762 995 c 128,-1,10
 750 948 750 948 717 901 c 1,11,-1
 737 891 l 1,12,13
 791 989 791 989 882 1047.5 c 128,-1,14
 973 1106 973 1106 1128 1106 c 0,15,16
 1260 1106 1260 1106 1342.5 1067 c 128,-1,17
 1425 1028 1425 1028 1471.5 968.5 c 128,-1,18
 1518 909 1518 909 1535 839.5 c 128,-1,19
 1552 770 1552 770 1552 709 c 2,20,-1
 1552 469 l 2,21,22
 1552 416 1552 416 1570.5 393.5 c 128,-1,23
 1589 371 1589 371 1642 371 c 2,24,-1
 1696 371 l 1,25,-1
 1696 0 l 1,26,-1
 1004 0 l 1,27,-1
 1004 598 l 2,28,29
 1004 637 1004 637 994.5 660.5 c 128,-1,30
 985 684 985 684 970.5 696.5 c 128,-1,31
 956 709 956 709 938 713 c 128,-1,32
 920 717 920 717 903 717 c 0,33,34
 838 717 838 717 806 679 c 128,-1,35
 774 641 774 641 774 571 c 2,36,-1
 774 469 l 2,37,38
 774 416 774 416 792.5 393.5 c 128,-1,39
 811 371 811 371 864 371 c 2,40,-1
 938 371 l 1,41,-1
 938 0 l 1,42,-1
 82 0 l 1,43,-1
 82 371 l 1,44,-1
 141 371 l 2,45,46
 182 371 182 371 203.5 397.5 c 128,-1,47
 225 424 225 424 225 461 c 2,48,-1
 225 1165 l 1,49,-1
 80 1165 l 1,50,-1
 80 1341 l 1,0,-1
EndSplineSet
EndChar

StartChar: dotlessi
Encoding: 305 305 243
Width: 944
Flags: W
LayerCount: 2
Fore
SplineSet
780 1102 m 1,0,-1
 780 479 l 2,1,2
 780 412 780 412 813 391.5 c 128,-1,3
 846 371 846 371 897 371 c 2,4,-1
 924 371 l 1,5,-1
 924 0 l 1,6,-1
 82 0 l 1,7,-1
 82 371 l 1,8,-1
 121 371 l 2,9,10
 174 371 174 371 199.5 404.5 c 128,-1,11
 225 438 225 438 225 477 c 2,12,-1
 225 618 l 2,13,14
 225 676 225 676 188.5 703.5 c 128,-1,15
 152 731 152 731 104 731 c 2,16,-1
 82 731 l 1,17,-1
 82 1102 l 1,18,-1
 780 1102 l 1,0,-1
EndSplineSet
EndChar

StartChar: kgreenlandic
Encoding: 312 312 250
Width: 1753
Flags: W
LayerCount: 2
Fore
SplineSet
780 1102 m 1,0,-1
 780 612 l 1,1,-1
 915 678 l 2,2,3
 950 694 950 694 960.5 705.5 c 128,-1,4
 971 717 971 717 971 727 c 0,5,6
 971 752 971 752 918 752 c 2,7,-1
 872 752 l 1,8,-1
 872 1102 l 1,9,-1
 1632 1102 l 1,10,-1
 1632 752 l 1,11,-1
 1571 752 l 2,12,13
 1516 752 1516 752 1458.5 745.5 c 128,-1,14
 1401 739 1401 739 1352 717 c 1,15,-1
 1307 694 l 1,16,-1
 1542 442 l 2,17,18
 1585 395 1585 395 1623 383 c 128,-1,19
 1661 371 1661 371 1733 371 c 1,20,-1
 1733 0 l 1,21,-1
 866 0 l 1,22,-1
 866 371 l 1,23,-1
 918 371 l 2,24,25
 954 371 954 371 966.5 381 c 128,-1,26
 979 391 979 391 979 408 c 0,27,28
 979 420 979 420 962.5 440.5 c 128,-1,29
 946 461 946 461 901 502 c 1,30,-1
 780 442 l 1,31,-1
 780 0 l 1,32,-1
 82 0 l 1,33,-1
 82 371 l 1,34,-1
 121 371 l 2,35,36
 174 371 174 371 199.5 404.5 c 128,-1,37
 225 438 225 438 225 477 c 2,38,-1
 225 618 l 2,39,40
 225 676 225 676 188.5 703.5 c 128,-1,41
 152 731 152 731 104 731 c 2,42,-1
 82 731 l 1,43,-1
 82 1102 l 1,44,-1
 780 1102 l 1,0,-1
EndSplineSet
EndChar

StartChar: Ldot
Encoding: 319 319 257
Width: 1528
Flags: W
LayerCount: 2
Fore
SplineSet
958 1102 m 1,0,1
 870 1102 870 1102 832.5 1078.5 c 128,-1,2
 795 1055 795 1055 795 989 c 2,3,-1
 795 371 l 1,4,-1
 995 371 l 2,5,6
 1079 371 1079 371 1108 412 c 128,-1,7
 1137 453 1137 453 1137 514 c 1,8,-1
 1487 514 l 1,9,-1
 1487 0 l 1,10,-1
 41 0 l 1,11,-1
 41 371 l 1,12,13
 129 371 129 371 167 394.5 c 128,-1,14
 205 418 205 418 205 483 c 2,15,-1
 205 989 l 2,16,17
 205 1055 205 1055 167 1078.5 c 128,-1,18
 129 1102 129 1102 41 1102 c 1,19,-1
 41 1473 l 1,20,-1
 958 1473 l 1,21,-1
 958 1102 l 1,0,1
1040 803 m 256,22,23
 1040 848 1040 848 1057.5 887 c 128,-1,24
 1075 926 1075 926 1105 955.5 c 128,-1,25
 1135 985 1135 985 1173.5 1002.5 c 128,-1,26
 1212 1020 1212 1020 1257 1020 c 0,27,28
 1303 1020 1303 1020 1342.5 1002.5 c 128,-1,29
 1382 985 1382 985 1412 955.5 c 128,-1,30
 1442 926 1442 926 1459.5 887 c 128,-1,31
 1477 848 1477 848 1477 803 c 256,32,33
 1477 758 1477 758 1459.5 718 c 128,-1,34
 1442 678 1442 678 1412 648 c 128,-1,35
 1382 618 1382 618 1342.5 601 c 128,-1,36
 1303 584 1303 584 1257 584 c 0,37,38
 1212 584 1212 584 1173.5 601 c 128,-1,39
 1135 618 1135 618 1105 648 c 128,-1,40
 1075 678 1075 678 1057.5 718 c 128,-1,41
 1040 758 1040 758 1040 803 c 256,22,23
EndSplineSet
EndChar

StartChar: Lslash
Encoding: 321 321 259
Width: 1528
Flags: W
LayerCount: 2
Fore
SplineSet
958 1102 m 1,0,1
 870 1102 870 1102 832.5 1078.5 c 128,-1,2
 795 1055 795 1055 795 989 c 2,3,-1
 795 913 l 1,4,-1
 1090 993 l 1,5,-1
 1143 803 l 1,6,-1
 795 709 l 1,7,-1
 795 371 l 1,8,-1
 995 371 l 2,9,10
 1036 371 1036 371 1064 379 c 128,-1,11
 1092 387 1092 387 1108 412.5 c 128,-1,12
 1124 438 1124 438 1130.5 484 c 128,-1,13
 1137 530 1137 530 1137 606 c 1,14,-1
 1487 606 l 1,15,-1
 1487 0 l 1,16,-1
 41 0 l 1,17,-1
 41 371 l 1,18,19
 129 371 129 371 167 394.5 c 128,-1,20
 205 418 205 418 205 483 c 2,21,-1
 205 551 l 1,22,-1
 41 508 l 1,23,-1
 -12 698 l 1,24,-1
 205 756 l 1,25,-1
 205 989 l 2,26,27
 205 1055 205 1055 167 1078.5 c 128,-1,28
 129 1102 129 1102 41 1102 c 1,29,-1
 41 1473 l 1,30,-1
 958 1473 l 1,31,-1
 958 1102 l 1,0,1
EndSplineSet
EndChar

StartChar: lslash
Encoding: 322 322 260
Width: 944
Flags: W
LayerCount: 2
Fore
SplineSet
780 1473 m 1,0,-1
 780 969 l 1,1,-1
 938 1012 l 1,2,-1
 991 821 l 1,3,-1
 780 764 l 1,4,-1
 780 479 l 2,5,6
 780 412 780 412 813 391.5 c 128,-1,7
 846 371 846 371 897 371 c 2,8,-1
 924 371 l 1,9,-1
 924 0 l 1,10,-1
 82 0 l 1,11,-1
 82 371 l 1,12,-1
 121 371 l 2,13,14
 174 371 174 371 199.5 404.5 c 128,-1,15
 225 438 225 438 225 477 c 2,16,-1
 225 612 l 1,17,-1
 74 571 l 1,18,-1
 20 762 l 1,19,-1
 225 817 l 1,20,-1
 225 989 l 2,21,22
 225 1047 225 1047 188.5 1074.5 c 128,-1,23
 152 1102 152 1102 104 1102 c 2,24,-1
 82 1102 l 1,25,-1
 82 1473 l 1,26,-1
 780 1473 l 1,0,-1
EndSplineSet
EndChar

StartChar: Eng
Encoding: 330 330 268
Width: 1851
Flags: W
LayerCount: 2
Fore
SplineSet
565 817 m 1,0,-1
 565 471 l 2,1,2
 565 406 565 406 603 388.5 c 128,-1,3
 641 371 641 371 729 371 c 1,4,-1
 729 0 l 1,5,-1
 41 0 l 1,6,-1
 41 371 l 1,7,8
 129 371 129 371 167 394.5 c 128,-1,9
 205 418 205 418 205 483 c 2,10,-1
 205 989 l 2,11,12
 205 1055 205 1055 167 1078.5 c 128,-1,13
 129 1102 129 1102 41 1102 c 1,14,-1
 41 1473 l 1,15,-1
 827 1473 l 1,16,-1
 1327 731 l 1,17,-1
 1327 989 l 2,18,19
 1327 1055 1327 1055 1299.5 1078.5 c 128,-1,20
 1272 1102 1272 1102 1184 1102 c 1,21,-1
 1184 1473 l 1,22,-1
 1831 1473 l 1,23,-1
 1831 1102 l 1,24,25
 1743 1102 1743 1102 1715.5 1073 c 128,-1,26
 1688 1044 1688 1044 1688 989 c 2,27,-1
 1688 55 l 2,28,29
 1688 -63 1688 -63 1662 -166.5 c 128,-1,30
 1636 -270 1636 -270 1547 -347 c 128,-1,31
 1458 -424 1458 -424 1287 -468 c 128,-1,32
 1116 -512 1116 -512 827 -512 c 1,33,-1
 827 -203 l 1,34,35
 907 -203 907 -203 970.5 -201 c 128,-1,36
 1034 -199 1034 -199 1080 -184.5 c 128,-1,37
 1126 -170 1126 -170 1151 -141.5 c 128,-1,38
 1176 -113 1176 -113 1176 -57 c 1,39,-1
 565 817 l 1,0,-1
EndSplineSet
EndChar

StartChar: eng
Encoding: 331 331 269
Width: 1655
Flags: W
LayerCount: 2
Fore
SplineSet
762 -211 m 1,0,1
 852 -211 852 -211 901 -196.5 c 128,-1,2
 950 -182 950 -182 972.5 -159.5 c 128,-1,3
 995 -137 995 -137 999.5 -109.5 c 128,-1,4
 1004 -82 1004 -82 1004 -55 c 2,5,-1
 1004 639 l 2,6,7
 1004 678 1004 678 994.5 701.5 c 128,-1,8
 985 725 985 725 970.5 737.5 c 128,-1,9
 956 750 956 750 938 754 c 128,-1,10
 920 758 920 758 903 758 c 0,11,12
 838 758 838 758 806 720 c 128,-1,13
 774 682 774 682 774 612 c 2,14,-1
 774 469 l 2,15,16
 774 416 774 416 792.5 393.5 c 128,-1,17
 811 371 811 371 864 371 c 2,18,-1
 918 371 l 1,19,-1
 918 0 l 1,20,-1
 82 0 l 1,21,-1
 82 371 l 1,22,-1
 141 371 l 2,23,24
 182 371 182 371 203.5 397.5 c 128,-1,25
 225 424 225 424 225 461 c 2,26,-1
 225 651 l 2,27,28
 225 698 225 698 197.5 714.5 c 128,-1,29
 170 731 170 731 135 731 c 2,30,-1
 82 731 l 1,31,-1
 82 1102 l 1,32,-1
 676 1102 l 1,33,-1
 655 827 l 1,34,-1
 672 827 l 1,35,36
 694 981 694 981 807 1064 c 128,-1,37
 920 1147 920 1147 1114 1147 c 0,38,39
 1251 1147 1251 1147 1337 1108 c 128,-1,40
 1423 1069 1423 1069 1470.5 1009.5 c 128,-1,41
 1518 950 1518 950 1535 880.5 c 128,-1,42
 1552 811 1552 811 1552 750 c 2,43,-1
 1552 61 l 2,44,45
 1552 -104 1552 -104 1518.5 -214 c 128,-1,46
 1485 -324 1485 -324 1396 -390.5 c 128,-1,47
 1307 -457 1307 -457 1153 -484.5 c 128,-1,48
 999 -512 999 -512 762 -512 c 1,49,-1
 762 -211 l 1,0,1
EndSplineSet
EndChar

StartChar: OE
Encoding: 338 338 276
Width: 2400
Flags: W
LayerCount: 2
Fore
SplineSet
1868 371 m 2,0,1
 1909 371 1909 371 1936.5 378 c 128,-1,2
 1964 385 1964 385 1980.5 404.5 c 128,-1,3
 1997 424 1997 424 2003 458 c 128,-1,4
 2009 492 2009 492 2009 545 c 1,5,-1
 2359 545 l 1,6,-1
 2359 0 l 1,7,-1
 922 0 l 2,8,9
 729 0 729 0 569.5 43 c 128,-1,10
 410 86 410 86 294 176 c 128,-1,11
 178 266 178 266 114.5 404.5 c 128,-1,12
 51 543 51 543 51 735 c 0,13,14
 51 928 51 928 114.5 1067 c 128,-1,15
 178 1206 178 1206 294 1296 c 128,-1,16
 410 1386 410 1386 569.5 1429.5 c 128,-1,17
 729 1473 729 1473 922 1473 c 2,18,-1
 2359 1473 l 1,19,-1
 2359 928 l 1,20,-1
 2009 928 l 1,21,22
 2009 981 2009 981 2003 1015 c 128,-1,23
 1997 1049 1997 1049 1980.5 1068 c 128,-1,24
 1964 1087 1964 1087 1936.5 1094.5 c 128,-1,25
 1909 1102 1909 1102 1868 1102 c 2,26,-1
 1688 1102 l 1,27,-1
 1688 836 l 1,28,-1
 2007 836 l 1,29,-1
 2007 659 l 1,30,-1
 1688 659 l 1,31,-1
 1688 371 l 1,32,-1
 1868 371 l 2,0,1
723 735 m 0,33,34
 723 623 723 623 737.5 545 c 128,-1,35
 752 467 752 467 782.5 419 c 128,-1,36
 813 371 813 371 862 349.5 c 128,-1,37
 911 328 911 328 981 328 c 0,38,39
 1038 328 1038 328 1059.5 331 c 128,-1,40
 1081 334 1081 334 1100 338 c 1,41,-1
 1100 1135 l 1,42,43
 1075 1139 1075 1139 1053.5 1142 c 128,-1,44
 1032 1145 1032 1145 979 1145 c 0,45,46
 899 1145 899 1145 849 1123.5 c 128,-1,47
 799 1102 799 1102 771 1053 c 128,-1,48
 743 1004 743 1004 733 926 c 128,-1,49
 723 848 723 848 723 735 c 0,33,34
EndSplineSet
EndChar

StartChar: oe
Encoding: 339 339 277
Width: 2277
Flags: W
LayerCount: 2
Fore
SplineSet
1444 489 m 1,0,1
 1448 340 1448 340 1500 283.5 c 128,-1,2
 1552 227 1552 227 1651 227 c 0,3,4
 1683 227 1683 227 1715 236.5 c 128,-1,5
 1747 246 1747 246 1773.5 267.5 c 128,-1,6
 1800 289 1800 289 1819.5 324.5 c 128,-1,7
 1839 360 1839 360 1845 414 c 1,8,-1
 2210 414 l 1,9,10
 2189 285 2189 285 2136 198 c 128,-1,11
 2083 111 2083 111 1999 57.5 c 128,-1,12
 1915 4 1915 4 1803.5 -19.5 c 128,-1,13
 1692 -43 1692 -43 1554 -43 c 0,14,15
 1450 -43 1450 -43 1352.5 -18.5 c 128,-1,16
 1255 6 1255 6 1174 55 c 1,17,18
 1004 -43 1004 -43 762 -43 c 0,19,20
 598 -43 598 -43 465 -5 c 128,-1,21
 332 33 332 33 237.5 108.5 c 128,-1,22
 143 184 143 184 92 296 c 128,-1,23
 41 408 41 408 41 553 c 0,24,25
 41 700 41 700 92 811 c 128,-1,26
 143 922 143 922 237.5 996.5 c 128,-1,27
 332 1071 332 1071 465 1109 c 128,-1,28
 598 1147 598 1147 762 1147 c 0,29,30
 881 1147 881 1147 984 1122.5 c 128,-1,31
 1087 1098 1087 1098 1171 1049 c 1,32,33
 1331 1147 1331 1147 1548 1147 c 0,34,35
 1731 1147 1731 1147 1862 1099 c 128,-1,36
 1993 1051 1993 1051 2076 965 c 128,-1,37
 2159 879 2159 879 2197.5 758 c 128,-1,38
 2236 637 2236 637 2234 489 c 1,39,-1
 1444 489 l 1,0,1
610 553 m 256,40,41
 610 469 610 469 617.5 410.5 c 128,-1,42
 625 352 625 352 642 316.5 c 128,-1,43
 659 281 659 281 688 264.5 c 128,-1,44
 717 248 717 248 762 248 c 256,45,46
 807 248 807 248 835.5 264.5 c 128,-1,47
 864 281 864 281 881.5 316.5 c 128,-1,48
 899 352 899 352 906 410.5 c 128,-1,49
 913 469 913 469 913 553 c 0,50,51
 913 721 913 721 881.5 788.5 c 128,-1,52
 850 856 850 856 762 856 c 0,53,54
 717 856 717 856 688 840.5 c 128,-1,55
 659 825 659 825 642 789.5 c 128,-1,56
 625 754 625 754 617.5 695.5 c 128,-1,57
 610 637 610 637 610 553 c 256,40,41
1591 877 m 0,58,59
 1522 877 1522 877 1488 827.5 c 128,-1,60
 1454 778 1454 778 1444 664 c 1,61,-1
 1737 664 l 1,62,63
 1731 762 1731 762 1695 819.5 c 128,-1,64
 1659 877 1659 877 1591 877 c 0,58,59
EndSplineSet
EndChar

StartChar: Tbar
Encoding: 358 358 296
Width: 1655
Flags: W
LayerCount: 2
Fore
SplineSet
1634 1473 m 1,0,-1
 1634 887 l 1,1,-1
 1305 887 l 1,2,3
 1305 954 1305 954 1301.5 1003.5 c 128,-1,4
 1298 1053 1298 1053 1286 1083.5 c 128,-1,5
 1274 1114 1274 1114 1249.5 1128.5 c 128,-1,6
 1225 1143 1225 1143 1184 1143 c 2,7,-1
 1122 1143 l 1,8,-1
 1122 795 l 1,9,-1
 1430 795 l 1,10,-1
 1430 618 l 1,11,-1
 1122 618 l 1,12,-1
 1122 483 l 2,13,14
 1122 418 1122 418 1160 394.5 c 128,-1,15
 1198 371 1198 371 1286 371 c 1,16,-1
 1286 0 l 1,17,-1
 369 0 l 1,18,-1
 369 371 l 1,19,20
 457 371 457 371 494.5 394.5 c 128,-1,21
 532 418 532 418 532 483 c 2,22,-1
 532 618 l 1,23,-1
 225 618 l 1,24,-1
 225 795 l 1,25,-1
 532 795 l 1,26,-1
 532 1143 l 1,27,-1
 471 1143 l 2,28,29
 430 1143 430 1143 405.5 1128.5 c 128,-1,30
 381 1114 381 1114 368.5 1083.5 c 128,-1,31
 356 1053 356 1053 353 1003.5 c 128,-1,32
 350 954 350 954 350 887 c 1,33,-1
 20 887 l 1,34,-1
 20 1473 l 1,35,-1
 1634 1473 l 1,0,-1
EndSplineSet
EndChar

StartChar: tbar
Encoding: 359 359 297
Width: 1071
Flags: W
LayerCount: 2
Fore
SplineSet
741 1473 m 1,0,-1
 741 1102 l 1,1,-1
 1040 1102 l 1,2,-1
 1040 731 l 1,3,-1
 741 731 l 1,4,-1
 741 647 l 1,5,-1
 1051 647 l 1,6,-1
 1051 471 l 1,7,-1
 741 471 l 1,8,-1
 741 424 l 2,9,10
 741 358 741 358 759.5 316 c 128,-1,11
 778 274 778 274 836 274 c 0,12,13
 868 274 868 274 887.5 286.5 c 128,-1,14
 907 299 907 299 918.5 317.5 c 128,-1,15
 930 336 930 336 933 359.5 c 128,-1,16
 936 383 936 383 936 408 c 2,17,-1
 936 426 l 1,18,-1
 1051 426 l 1,19,-1
 1051 412 l 2,20,21
 1051 315 1051 315 1030.5 231 c 128,-1,22
 1010 147 1010 147 960.5 86 c 128,-1,23
 911 25 911 25 826 -11 c 128,-1,24
 741 -47 741 -47 612 -47 c 0,25,26
 469 -47 469 -47 384 -12 c 128,-1,27
 299 23 299 23 255 84 c 128,-1,28
 211 145 211 145 197.5 229 c 128,-1,29
 184 313 184 313 184 412 c 2,30,-1
 184 471 l 1,31,-1
 27 471 l 1,32,-1
 27 647 l 1,33,-1
 184 647 l 1,34,-1
 184 731 l 1,35,-1
 27 731 l 1,36,-1
 27 1061 l 1,37,38
 102 1061 102 1061 166.5 1093.5 c 128,-1,39
 231 1126 231 1126 277.5 1183.5 c 128,-1,40
 324 1241 324 1241 349.5 1315 c 128,-1,41
 375 1389 375 1389 375 1473 c 1,42,-1
 741 1473 l 1,0,-1
EndSplineSet
EndChar

